<?xml version="1.0" encoding="UTF-8" standalone="no"?>
<svg width="162px" height="40px" viewBox="0 0 162 40" version="1.1" xmlns="http://www.w3.org/2000/svg" xmlns:xlink="http://www.w3.org/1999/xlink">
    <!-- Generator: sketchtool 47.1 (45422) - http://www.bohemiancoding.com/sketch -->
    <title>59C8239B-D18A-4636-A5D8-29ECD55EB4CE</title>
    <desc>Created with sketchtool.</desc>
    <defs>
        <polygon id="path-1" points="0.171539677 0.284379562 5.08011059 0.284379562 5.08011059 5.21170803 0.171539677 5.21170803 0.171539677 0.284379562"></polygon>
    </defs>
    <g id="Page-1" stroke="none" stroke-width="1" fill="none" fill-rule="evenodd">
        <g id="WeiCrowd-Website" transform="translate(-132.000000, -18.000000)">
            <g id="Group-14" transform="translate(132.000000, 18.000000)">
                <path d="M11.9333504,38.7299562 L11.9333504,20.3962336 L11.9333504,38.7299562 Z" id="Fill-1" fill="#4158A3"></path>
                <path d="M11.9332341,39.7156204 C11.3908104,39.7156204 10.9516363,39.2741606 10.9516363,38.729927 L10.9516363,20.3962044 C10.9516363,19.8519708 11.3908104,19.4105109 11.9332341,19.4105109 C12.475367,19.4105109 12.914832,19.8519708 12.914832,20.3962044 L12.914832,38.729927 C12.914832,39.2741606 12.475367,39.7156204 11.9332341,39.7156204" id="Fill-2" fill="#FFFFFF"></path>
                <path d="M17.8726718,28.7761168 L17.8726718,38.7299854" id="Fill-4" fill="#4158A3"></path>
                <path d="M17.8726718,39.7156204 C17.330539,39.7156204 16.891074,39.2741606 16.891074,38.729927 L16.891074,28.7766423 C16.891074,28.2321168 17.330539,27.7906569 17.8726718,27.7906569 C18.4148047,27.7906569 18.8545605,28.2321168 18.8545605,28.7766423 L18.8545605,38.729927 C18.8545605,39.2741606 18.4148047,39.7156204 17.8726718,39.7156204" id="Fill-6" fill="#FFFFFF"></path>
                <path d="M23.5665792,6.79932847 L23.5665792,38.7298394" id="Fill-8" fill="#4158A3"></path>
                <path d="M23.5665792,39.7156204 C23.0244463,39.7156204 22.5849813,39.2741606 22.5849813,38.729927 L22.5849813,6.79941606 C22.5849813,6.25489051 23.0244463,5.81372263 23.5665792,5.81372263 C24.108712,5.81372263 24.5484679,6.25489051 24.5484679,6.79941606 L24.5484679,38.729927 C24.5484679,39.2741606 24.108712,39.7156204 23.5665792,39.7156204" id="Fill-10" fill="#FFFFFF"></path>
                <path d="M29.5551404,20.4980146 L29.5551404,38.7298394" id="Fill-12" fill="#4158A3"></path>
                <path d="M29.5551404,39.7156204 C29.0127167,39.7156204 28.5732517,39.2741606 28.5732517,38.729927 L28.5732517,20.4981022 C28.5732517,19.9535766 29.0127167,19.5124088 29.5551404,19.5124088 C30.0969824,19.5124088 30.5367382,19.9535766 30.5367382,20.4981022 L30.5367382,38.729927 C30.5367382,39.2741606 30.0969824,39.7156204 29.5551404,39.7156204" id="Fill-14" fill="#FFFFFF"></path>
                <path d="M14.3875196,16.3556788 C14.3875196,17.7159708 13.2890025,18.8193285 11.9333795,18.8193285 C10.5774657,18.8193285 9.47894865,17.7159708 9.47894865,16.3556788 C9.47894865,14.9948029 10.5774657,13.8920292 11.9333795,13.8920292 C13.2890025,13.8920292 14.3875196,14.9948029 14.3875196,16.3556788" id="Fill-16" fill="#FFFFFF"></path>
                <g id="Group-20" transform="translate(20.940754, 0.007591)">
                    <mask id="mask-2" fill="white">
                        <use xlink:href="#path-1"></use>
                    </mask>
                    <g id="Clip-19"></g>
                    <path d="M5.08011059,2.74776642 C5.08011059,4.10835036 3.98130269,5.21170803 2.62597056,5.21170803 C1.27034758,5.21170803 0.171539677,4.10835036 0.171539677,2.74776642 C0.171539677,1.38718248 1.27034758,0.284116788 2.62597056,0.284116788 C3.98130269,0.284116788 5.08011059,1.38718248 5.08011059,2.74776642" id="Fill-18" fill="#FFFFFF" mask="url(#mask-2)"></path>
                </g>
                <path d="M32.0094259,16.5527007 C32.0094259,17.9132847 30.910618,19.0163504 29.5552858,19.0163504 C28.199372,19.0163504 27.1008549,17.9132847 27.1008549,16.5527007 C27.1008549,15.1921168 28.199372,14.0890511 29.5552858,14.0890511 C30.910618,14.0890511 32.0094259,15.1921168 32.0094259,16.5527007" id="Fill-21" fill="#FFFFFF"></path>
                <path d="M20.3269573,24.732438 C20.3269573,26.0930219 19.2281494,27.1960876 17.8728172,27.1960876 C16.5169034,27.1960876 15.4183864,26.0930219 15.4183864,24.732438 C15.4183864,23.371854 16.5169034,22.2687883 17.8728172,22.2687883 C19.2281494,22.2687883 20.3269573,23.371854 20.3269573,24.732438" id="Fill-23" fill="#FFFFFF"></path>
                <path d="M29.8833285,39.6138394 C29.5468223,39.6138394 29.2190413,39.4401168 29.0361005,39.128292 C28.7612531,38.6590949 28.9168546,38.0550073 29.3839497,37.7790949 C34.9117271,34.5116496 38.4829982,28.0757372 38.4829982,21.3834745 C38.4829982,18.0296058 37.5729479,14.7496058 35.8517343,11.897635 C33.5962406,8.16186861 31.2700718,6.08391241 27.8215368,4.72391241 C27.3172136,4.52478832 27.0685422,3.95281752 27.2668977,3.44624818 C27.4652531,2.93967883 28.0347253,2.69033577 28.5396302,2.88945985 C32.3752783,4.40186861 35.0644201,6.79048175 37.5304847,10.8763212 C39.4381293,14.0360292 40.4464847,17.6696058 40.4464847,21.3834745 C40.4464847,28.7601168 36.4950808,35.8625985 30.3803806,39.4774891 C30.2236158,39.5700438 30.0525996,39.6138394 29.8833285,39.6138394" id="Fill-25" fill="#FFFFFF"></path>
                <g id="Group-29" transform="translate(0.000000, 0.883504)" fill="#FFFFFF">
                    <path d="M11.6871221,38.6644672 C11.5475171,38.6644672 11.4055853,38.6346861 11.2706338,38.5710365 C7.857,36.9622774 5.01516517,34.4694307 3.05196948,31.3619854 C1.05532675,28.2014015 -0.000145421903,24.4454891 -0.000145421903,20.4997956 C-0.000145421903,15.2221314 1.89092101,10.2484088 5.32491382,6.4939562 C8.79031777,2.70446715 13.5435781,0.480233577 18.7092549,0.23059854 C19.2481885,0.203737226 19.7106302,0.623883212 19.7365153,1.16753285 C19.7626912,1.71118248 19.3447487,2.17337226 18.8031975,2.19906569 C9.20302513,2.6630073 1.96334111,10.5307445 1.96334111,20.4997956 C1.96334111,27.7053431 5.75478097,33.7938102 12.1050646,36.7870949 C12.5957181,37.0180438 12.8068707,37.6051971 12.5765224,38.0980438 C12.4092873,38.4551241 12.0562029,38.6644672 11.6871221,38.6644672" id="Fill-27"></path>
                </g>
                <path d="M103.000443,18.4818686 C103.000443,18.4897518 103.004515,18.4938394 103.01295,18.4938394 C103.24737,18.7297518 103.36458,19.017927 103.36458,19.3589489 C103.36458,19.6920876 103.245334,19.978219 103.006551,20.217635 C102.768059,20.4573431 102.483032,20.5770511 102.15118,20.5770511 C101.811474,20.5770511 101.52412,20.4555912 101.289409,20.2117956 L101.277485,20.2117956 C100.581786,19.5134015 99.7360126,19.1639124 98.7410359,19.1639124 C97.7460592,19.1639124 96.8965045,19.5151533 96.1926625,20.217635 C95.4885296,20.9204088 95.1368995,21.7712117 95.1368995,22.7703358 C95.1368995,23.7688759 95.4885296,24.6217226 96.1926625,25.328292 C96.8965045,26.0348613 97.7460592,26.388438 98.7410359,26.388438 C99.7278689,26.388438 100.573643,26.0392409 101.277485,25.3405547 C101.285628,25.3326715 101.293481,25.3244964 101.301625,25.3163212 C101.536045,25.0809927 101.823399,24.9627445 102.163104,24.9627445 C102.503101,24.9627445 102.794235,25.0827445 103.03709,25.3224526 C103.279944,25.5621606 103.400935,25.8523796 103.400935,26.1934015 C103.400935,26.5344234 103.279944,26.8269781 103.03709,27.0704818 C103.028946,27.0786569 103.020803,27.0871241 103.01295,27.0950073 C101.839686,28.2725255 100.415715,28.8614307 98.7410359,28.8614307 C97.0663573,28.8614307 95.638605,28.2687299 94.4571975,27.0827445 C93.2757899,25.8967591 92.6850862,24.4631825 92.6850862,22.7823066 C92.6850862,21.1011387 93.2757899,19.667854 94.4571975,18.4818686 C95.638605,17.2958832 97.0663573,16.7031825 98.7410359,16.7031825 C100.415715,16.7031825 101.839686,17.2920876 103.01295,18.4696058 L103.000443,18.4818686 Z" id="Fill-30" fill="#FFFFFF"></path>
                <path d="M112.066016,16.6787153 C112.405721,16.6787153 112.697147,16.8004672 112.939711,17.0442628 C113.182274,17.2877664 113.303847,17.5803212 113.303847,17.9213431 C113.303847,18.262365 113.182274,18.5549197 112.939711,18.7984234 C112.697147,19.042219 112.405721,19.1639708 112.066016,19.1639708 L112.0538,19.1639708 C111.058824,19.1639708 110.208978,19.5175474 109.505136,20.2241168 C108.858009,20.8655766 108.509869,21.6331679 108.461589,22.5263066 C108.469732,22.5995912 108.473513,22.6725839 108.473513,22.7455766 L108.473513,27.4480584 C108.473513,27.9029489 108.352231,28.252146 108.109377,28.4959416 C107.866813,28.7397372 107.575678,28.8614891 107.235973,28.8614891 C106.896267,28.8614891 106.604842,28.7397372 106.362278,28.4959416 C106.119714,28.252146 105.998141,27.8950657 105.998141,27.4238248 L105.998141,22.7210511 C106.014138,21.0644088 106.604842,19.651562 107.769962,18.481927 C108.88622,17.3607591 110.318335,16.7598832 112.066016,16.6787153" id="Fill-32" fill="#FFFFFF"></path>
                <path d="M119.832476,19.1639124 C118.83779,19.1639124 117.987945,19.5151533 117.284103,20.217635 C116.580261,20.9204088 116.22834,21.7712117 116.22834,22.7703358 C116.22834,23.7688759 116.580261,24.6217226 117.284103,25.328292 C117.987945,26.0348613 118.83779,26.388438 119.832476,26.388438 C120.827744,26.388438 121.675262,26.0348613 122.375033,25.328292 C123.074803,24.6217226 123.424979,23.7688759 123.424979,22.7703358 C123.424979,21.7712117 123.074803,20.9204088 122.375033,20.217635 C121.675262,19.5151533 120.827744,19.1639124 119.832476,19.1639124 M124.116605,18.4818686 C125.297722,19.667854 125.888426,21.1011387 125.888426,22.7823066 C125.888426,24.4631825 125.297722,25.8970511 124.116605,27.0827445 C122.935198,28.2687299 121.507736,28.8614307 119.832476,28.8614307 C118.157797,28.8614307 116.730045,28.2687299 115.548638,27.0827445 C114.367521,25.8970511 113.777108,24.4631825 113.777108,22.7823066 C113.777108,21.1011387 114.367521,19.667854 115.548638,18.4818686 C116.730045,17.2961752 118.157797,16.7031825 119.832476,16.7031825 C121.507736,16.7031825 122.935198,17.2961752 124.116605,18.4818686" id="Fill-34" fill="#FFFFFF"></path>
                <path d="M137.829862,16.6787153 C138.169567,16.6787153 138.45663,16.7963796 138.691632,17.032 C138.772196,17.1131679 138.837054,17.1984234 138.885625,17.2877664 L138.89784,17.2877664 L142.684045,24.901781 L146.47054,17.2877664 L146.482465,17.3000292 C146.538889,17.2025109 146.60811,17.1131679 146.688964,17.032 C146.923675,16.7963796 147.206375,16.6787153 147.538519,16.6787153 C147.878224,16.6787153 148.165287,16.7984234 148.399998,17.0378394 C148.634418,17.2778394 148.751919,17.5639708 148.751919,17.8968175 C148.751919,18.1648467 148.674846,18.4004672 148.521571,18.6036788 L143.824734,28.0696642 C143.768311,28.232 143.675241,28.3741898 143.545524,28.4959416 C143.311104,28.7397372 143.02375,28.8614891 142.684045,28.8614891 C142.352483,28.8614891 142.069201,28.7397372 141.834781,28.4959416 C141.705065,28.3741898 141.611995,28.2360876 141.555571,28.081635 L137.829862,20.5896642 L134.116368,28.0696642 C134.059654,28.232 133.966583,28.3741898 133.837158,28.4959416 C133.602447,28.7397372 133.315675,28.8614891 132.975679,28.8614891 C132.643826,28.8614891 132.360544,28.7397372 132.126124,28.4959416 C131.996408,28.3741898 131.903628,28.2360876 131.847205,28.081635 L127.126228,18.5914161 C126.980515,18.3882044 126.907804,18.1566715 126.907804,17.8968175 C126.907804,17.5639708 127.02705,17.2778394 127.265833,17.0378394 C127.504325,16.7984234 127.789643,16.6787153 128.121205,16.6787153 C128.461201,16.6787153 128.748264,16.7963796 128.982975,17.032 C129.063539,17.1131679 129.128688,17.1984234 129.177259,17.2877664 L129.189183,17.2877664 L132.975679,24.901781 L136.761883,17.2877664 L136.774099,17.3000292 C136.830522,17.2025109 136.899452,17.1131679 136.980307,17.032 C137.215018,16.7963796 137.498009,16.6787153 137.829862,16.6787153" id="Fill-36" fill="#FFFFFF"></path>
                <path d="M159.249461,23.038219 C159.241317,22.9649343 159.237246,22.8919416 159.237246,22.8186569 L159.237246,22.3558832 C159.147957,21.5436204 158.80447,20.8370511 158.205623,20.2358832 C157.501781,19.5293139 156.652226,19.1760292 155.656958,19.1760292 C154.662273,19.1760292 153.814463,19.5293139 153.114693,20.2358832 C152.414922,20.9424526 152.065037,21.7955912 152.065037,22.7944234 C152.065037,23.7932555 152.414922,24.6443504 153.114693,25.3465401 C153.814463,26.0493139 154.662273,26.4005547 155.656958,26.4005547 C156.652226,26.4005547 157.501781,26.0472701 158.205623,25.3407007 C158.853041,24.6989489 159.20089,23.9316496 159.249461,23.038219 L159.249461,23.038219 Z M161.712908,22.8431825 C161.696621,24.4998248 161.106208,25.9132555 159.941088,27.0828905 C158.75968,28.2685839 157.331928,28.8612847 155.656958,28.8612847 C153.982571,28.8612847 152.554237,28.2685839 151.373411,27.0828905 C150.192003,25.8969051 149.60159,24.4633285 149.60159,22.7821606 C149.60159,21.1009927 150.192003,19.667708 151.373411,18.4820146 C152.554237,17.2960292 153.982571,16.7033285 155.656958,16.7033285 C157.008219,16.7033285 158.20126,17.0928175 159.237246,17.8726715 L159.237246,14.2910657 C159.237246,13.9497518 159.358527,13.6574891 159.601382,13.4136934 C159.843946,13.1698978 160.135371,13.048438 160.475077,13.048438 C160.814782,13.048438 161.106208,13.1698978 161.348772,13.4136934 C161.591626,13.6574891 161.712908,13.9497518 161.712908,14.2910657 L161.712908,22.8431825 Z" id="Fill-38" fill="#FFFFFF"></path>
                <path d="M58.8176047,16.6787153 C59.1573102,16.6787153 59.4443731,16.7963796 59.679084,17.032 C59.7599386,17.1131679 59.8247968,17.1984234 59.8733677,17.2877664 L59.8855831,17.2877664 L63.6717878,24.901781 L67.4579925,17.2877664 L67.4702079,17.3000292 C67.5269224,17.2025109 67.5955616,17.1131679 67.6764162,17.032 C67.9111271,16.7963796 68.194409,16.6787153 68.5259709,16.6787153 C68.8659673,16.6787153 69.1530302,16.7984234 69.3877411,17.0378394 C69.6221612,17.2778394 69.7396621,17.5639708 69.7396621,17.8968175 C69.7396621,18.1648467 69.6628794,18.4004672 69.509023,18.6036788 L64.8124772,28.0696642 C64.7557627,28.232 64.6629835,28.3741898 64.533558,28.4959416 C64.298847,28.7397372 64.0114934,28.8614891 63.6717878,28.8614891 C63.339935,28.8614891 63.056944,28.7397372 62.8225239,28.4959416 C62.6928075,28.3741898 62.5997375,28.2360876 62.5433138,28.081635 L58.8176047,20.5896642 L55.104111,28.0696642 C55.0473964,28.232 54.9543264,28.3741898 54.8249009,28.4959416 C54.5901899,28.7397372 54.3031271,28.8614891 53.9634215,28.8614891 C53.6315688,28.8614891 53.3482869,28.7397372 53.1138668,28.4959416 C52.9844413,28.3741898 52.8913713,28.2360876 52.8346567,28.081635 L48.1139709,18.5914161 C47.9682582,18.3882044 47.8955472,18.1566715 47.8955472,17.8968175 C47.8955472,17.5639708 48.0147932,17.2778394 48.2535759,17.0378394 C48.4920679,16.7984234 48.7773856,16.6787153 49.1092384,16.6787153 C49.448944,16.6787153 49.7360068,16.7963796 49.9707178,17.032 C50.0515724,17.1131679 50.1164305,17.1984234 50.1650014,17.2877664 L50.1772169,17.2877664 L53.9634215,24.901781 L57.7496262,17.2877664 L57.7618417,17.3000292 C57.8182654,17.2025109 57.8871953,17.1131679 57.9680499,17.032 C58.2027609,16.7963796 58.4857519,16.6787153 58.8176047,16.6787153" id="Fill-40" fill="#FFFFFF"></path>
                <path d="M78.1129971,19.4684088 C77.6682969,19.265781 77.178516,19.1638832 76.6445268,19.1638832 C75.6498409,19.1638832 74.7999953,19.5151241 74.0964442,20.2176058 C73.3926022,20.9203796 73.0406811,21.7711825 73.0406811,22.7703066 C73.0406811,23.7688467 73.3926022,24.6216934 74.0964442,25.3282628 C74.7999953,26.0348321 75.6498409,26.3884088 76.6445268,26.3884088 C77.6319415,26.3884088 78.4771336,26.0392117 79.1809756,25.3405255 C79.1888284,25.3326423 79.1975537,25.3244672 79.2054065,25.316292 C79.4398266,25.0809635 79.7274711,24.9627153 80.0671767,24.9627153 C80.4068822,24.9627153 80.6983077,25.0827153 80.9408715,25.3224234 C81.1834352,25.5621314 81.3050079,25.8523504 81.3050079,26.1933723 C81.3050079,26.5343942 81.1834352,26.8269489 80.9408715,27.0704526 C80.9327278,27.0786277 80.9242934,27.0870949 80.9164406,27.0949781 C79.7431767,28.2724964 78.3197871,28.8614015 76.6445268,28.8614015 C74.9698481,28.8614015 73.5420959,28.2687007 72.3609792,27.0827153 C71.1795716,25.8970219 70.5891587,24.4631533 70.5891587,22.7822774 C70.5891587,21.1011095 71.1795716,19.6678248 72.3609792,18.4818394 C73.5420959,17.296146 74.9698481,16.7031533 76.6445268,16.7031533 C78.3197871,16.7031533 79.7431767,17.2920584 80.9164406,18.4695766 L80.904516,18.4818394 C80.904516,18.4897226 80.9082969,18.4938102 80.9164406,18.4938102 C81.1508607,18.7297226 81.2686524,19.0178978 81.2686524,19.3589197 C81.2686524,19.6920584 81.1508607,19.976146 80.9164406,20.2117664 L77.4455106,23.6716204 C77.2029469,23.9072409 76.9115214,24.0246131 76.5718158,24.0246131 C76.2242575,24.0246131 75.9287601,23.9072409 75.6861964,23.6716204 C75.4517763,23.4278248 75.3339846,23.1317664 75.3339846,22.7822774 C75.3339846,22.4412555 75.4517763,22.1487007 75.6861964,21.9051971 L78.1129971,19.4684088 Z" id="Fill-42" fill="#FFFFFF"></path>
                <path d="M85.1396962,28.8613723 C84.7999907,28.8613723 84.5085652,28.7396204 84.2660014,28.4958248 C84.0234377,28.2520292 83.901865,27.9597664 83.901865,27.6187445 L83.901865,17.8724672 C83.901865,17.5314453 84.0234377,17.2391825 84.2660014,16.9953869 C84.5085652,16.7515912 84.7999907,16.6298394 85.1396962,16.6298394 C85.4794018,16.6298394 85.7708273,16.7515912 86.013391,16.9953869 C86.2565364,17.2391825 86.3775275,17.5314453 86.3775275,17.8724672 L86.3775275,27.6187445 C86.3775275,27.9597664 86.2565364,28.2520292 86.013391,28.4958248 C85.7708273,28.7396204 85.4794018,28.8613723 85.1396962,28.8613723 M85.1396962,15.4847299 C84.7999907,15.4847299 84.5085652,15.3632701 84.2660014,15.1194745 C84.0234377,14.8756788 83.901865,14.5834161 83.901865,14.2421022 C83.901865,13.9010803 84.0234377,13.6088175 84.2660014,13.3650219 C84.5085652,13.1215182 84.7999907,12.9994745 85.1396962,12.9994745 C85.4794018,12.9994745 85.7708273,13.1215182 86.013391,13.3650219 C86.2565364,13.6088175 86.3775275,13.9010803 86.3775275,14.2421022 C86.3775275,14.5834161 86.2565364,14.8756788 86.013391,15.1194745 C85.7708273,15.3632701 85.4794018,15.4847299 85.1396962,15.4847299" id="Fill-44" fill="#FFFFFF"></path>
                <path d="M87.5343296,13.1933139 C87.5343296,14.5538978 86.4355217,15.6572555 85.0801896,15.6572555 C83.7245666,15.6572555 82.6257587,14.5538978 82.6257587,13.1933139 C82.6257587,11.8327299 83.7245666,10.7296642 85.0801896,10.7296642 C86.4355217,10.7296642 87.5343296,11.8327299 87.5343296,13.1933139" id="Fill-46" fill="#FFFFFF"></path>
            </g>
        </g>
    </g>
</svg>