<?xml version="1.0" encoding="UTF-8" standalone="no"?>
<svg width="78px" height="96px" viewBox="0 0 78 96" version="1.1" xmlns="http://www.w3.org/2000/svg" xmlns:xlink="http://www.w3.org/1999/xlink">
    <!-- Generator: sketchtool 47.1 (45422) - http://www.bohemiancoding.com/sketch -->
    <title>B51C5A2C-D99D-477C-8281-75BD5B80045B</title>
    <desc>Created with sketchtool.</desc>
    <defs></defs>
    <g id="Page-1" stroke="none" stroke-width="1" fill="none" fill-rule="evenodd">
        <g id="WeiCrowd-Website" transform="translate(-513.000000, -3924.000000)" fill-rule="nonzero" fill="#008BFF">
            <g id="Group-19-Copy-2" transform="translate(513.000000, 3924.000000)">
                <path d="M72.1332857,0 L5.86671429,0 C2.72654187,0 0.171945813,2.493375 0.171945813,5.557875 L0.171945813,90.442125 C0.171945813,93.506625 2.72654187,96 5.86671429,96 L72.1332857,96 C75.2734581,96 77.8280542,93.506625 77.8280542,90.442125 L77.8280542,5.557875 C77.8280542,2.493375 75.2734581,0 72.1332857,0 Z M74.7218867,90.442125 C74.7218867,91.83525 73.5607241,92.9685 72.1332857,92.9685 L5.86671429,92.9685 C4.43927586,92.9685 3.2781133,91.83525 3.2781133,90.442125 L3.2781133,5.557875 C3.2781133,4.16475 4.43927586,3.0315 5.86671429,3.0315 L72.1332857,3.0315 C73.5607241,3.0315 74.7218867,4.16475 74.7218867,5.557875 L74.7218867,90.442125 Z" id="Shape"></path>
                <path d="M62.1112315,71 L16.5530837,71 C15.6952759,71 15,71.678375 15,72.51575 C15,73.353125 15.695468,74.0315 16.5530837,74.0315 L62.1114236,74.0315 C62.9692315,74.0315 63.6645074,73.353125 63.6645074,72.51575 C63.6645074,71.6785625 62.9690394,71 62.1112315,71 Z" id="Shape"></path>
                <path d="M62.1112315,55 L16.5530837,55 C15.6952759,55 15,55.678375 15,56.51575 C15,57.353125 15.695468,58.0315 16.5530837,58.0315 L62.1114236,58.0315 C62.9692315,58.0315 63.6645074,57.353125 63.6645074,56.51575 C63.6645074,55.6785625 62.9690394,55 62.1112315,55 Z" id="Shape-Copy"></path>
                <path d="M62.1112315,63 L16.5530837,63 C15.6952759,63 15,63.6785625 15,64.51575 C15,65.353125 15.695468,66.0315 16.5530837,66.0315 L62.1114236,66.0315 C62.9692315,66.0315 63.6645074,65.353125 63.6645074,64.51575 C63.6645074,63.6785625 62.9690394,63 62.1112315,63 Z" id="Shape"></path>
                <path d="M62.1112315,47 L16.5530837,47 C15.6952759,47 15,47.6785625 15,48.51575 C15,49.353125 15.695468,50.0315 16.5530837,50.0315 L62.1114236,50.0315 C62.9692315,50.0315 63.6645074,49.353125 63.6645074,48.51575 C63.6645074,47.6785625 62.9690394,47 62.1112315,47 Z" id="Shape-Copy-2"></path>
                <path d="M62.1112315,40 L16.5530837,40 C15.6952759,40 15,40.678375 15,41.51575 C15,42.353125 15.695468,43.0315 16.5530837,43.0315 L62.1114236,43.0315 C62.9692315,43.0315 63.6645074,42.353125 63.6645074,41.51575 C63.6645074,40.6785625 62.9690394,40 62.1112315,40 Z" id="Shape-Copy-4"></path>
                <path d="M62.1112315,32 L16.5530837,32 C15.6952759,32 15,32.6785625 15,33.51575 C15,34.353125 15.695468,35.0315 16.5530837,35.0315 L62.1114236,35.0315 C62.9692315,35.0315 63.6645074,34.353125 63.6645074,33.51575 C63.6645074,32.6785625 62.9690394,32 62.1112315,32 Z" id="Shape-Copy-3"></path>
                <path d="M62.1112315,25 L16.5530837,25 C15.6952759,25 15,25.678375 15,26.51575 C15,27.353125 15.695468,28.0315 16.5530837,28.0315 L62.1114236,28.0315 C62.9692315,28.0315 63.6645074,27.353125 63.6645074,26.51575 C63.6645074,25.6785625 62.9690394,25 62.1112315,25 Z" id="Shape-Copy-6"></path>
                <path d="M62.1112315,17 L16.5530837,17 C15.6952759,17 15,17.6785625 15,18.51575 C15,19.353125 15.695468,20.0315 16.5530837,20.0315 L62.1114236,20.0315 C62.9692315,20.0315 63.6645074,19.353125 63.6645074,18.51575 C63.6645074,17.6785625 62.9690394,17 62.1112315,17 Z" id="Shape-Copy-5"></path>
                <path d="M52.4603793,78.8210625 L25.5396207,78.8210625 C24.6818128,78.8210625 23.9865369,79.4994375 23.9865369,80.3368125 C23.9865369,81.1741875 24.6820049,81.8525625 25.5396207,81.8525625 L52.4603793,81.8525625 C53.3181872,81.8525625 54.0134631,81.1741875 54.0134631,80.3368125 C54.0134631,79.4994375 53.3181872,78.8210625 52.4603793,78.8210625 Z" id="Shape"></path>
            </g>
        </g>
    </g>
</svg>