<?xml version="1.0" encoding="UTF-8" standalone="no"?>
<svg width="78px" height="96px" viewBox="0 0 78 96" version="1.1" xmlns="http://www.w3.org/2000/svg" xmlns:xlink="http://www.w3.org/1999/xlink">
    <!-- Generator: sketchtool 47.1 (45422) - http://www.bohemiancoding.com/sketch -->
    <title>5C06919E-FF66-45B5-BEDB-734232324778</title>
    <desc>Created with sketchtool.</desc>
    <defs></defs>
    <g id="Page-1" stroke="none" stroke-width="1" fill="none" fill-rule="evenodd">
        <g id="WeiCrowd-Website" transform="translate(-853.000000, -3924.000000)" fill-rule="nonzero" fill="#26CB6D">
            <g id="Group-11-Copy-2" transform="translate(853.000000, 3924.000000)">
                <path d="M39.9580936,47.3075625 C42.2102956,47.307375 44.4940049,46.775625 46.608266,45.654375 C50.9789557,43.3363125 53.7765813,38.8786875 53.9097192,34.02075 C53.9327734,33.1839375 53.2563251,32.487375 52.3989015,32.4650625 C51.5403251,32.441625 50.8275665,33.1029375 50.8047044,33.93975 C50.7011527,37.719375 48.5246453,41.1871875 45.1251133,42.990375 C39.8576158,45.7835625 33.2439458,43.8740625 30.3815764,38.7331875 C27.5192069,33.5926875 29.4761232,27.1374375 34.7436207,24.3440625 C35.4971084,23.9443125 35.7762562,23.0240625 35.3666601,22.2885 C34.9572562,21.553125 34.014532,21.2810625 33.260468,21.6804375 C26.4883005,25.2718125 23.9721281,33.571125 27.6521527,40.1806875 C30.1835025,44.727 34.996064,47.3075625 39.9580936,47.3075625 Z" id="Shape"></path>
                <path d="M72.1332857,0 L5.86671429,0 C2.72654187,0 0.171945813,2.493375 0.171945813,5.557875 L0.171945813,90.442125 C0.171945813,93.506625 2.72654187,96 5.86671429,96 L72.1332857,96 C75.2734581,96 77.8280542,93.506625 77.8280542,90.442125 L77.8280542,5.557875 C77.8280542,2.493375 75.2734581,0 72.1332857,0 Z M74.7218867,90.442125 C74.7218867,91.83525 73.5607241,92.9685 72.1332857,92.9685 L5.86671429,92.9685 C4.43927586,92.9685 3.2781133,91.83525 3.2781133,90.442125 L3.2781133,5.557875 C3.2781133,4.16475 4.43927586,3.0315 5.86671429,3.0315 L72.1332857,3.0315 C73.5607241,3.0315 74.7218867,4.16475 74.7218867,5.557875 L74.7218867,90.442125 Z" id="Shape"></path>
                <path d="M61.7790739,70.7368125 L16.2209261,70.7368125 C15.3631182,70.7368125 14.6678424,71.4151875 14.6678424,72.2525625 C14.6678424,73.0899375 15.3633103,73.7683125 16.2209261,73.7683125 L61.779266,73.7683125 C62.6370739,73.7683125 63.3323498,73.0899375 63.3323498,72.2525625 C63.3323498,71.415375 62.6368818,70.7368125 61.7790739,70.7368125 Z" id="Shape"></path>
                <path d="M61.7790739,62.6525625 L16.2209261,62.6525625 C15.3631182,62.6525625 14.6678424,63.331125 14.6678424,64.1683125 C14.6678424,65.0056875 15.3633103,65.6840625 16.2209261,65.6840625 L61.779266,65.6840625 C62.6370739,65.6840625 63.3323498,65.0056875 63.3323498,64.1683125 C63.3323498,63.331125 62.6368818,62.6525625 61.7790739,62.6525625 Z" id="Shape"></path>
                <path d="M52.4603793,78.8210625 L25.5396207,78.8210625 C24.6818128,78.8210625 23.9865369,79.4994375 23.9865369,80.3368125 C23.9865369,81.1741875 24.6820049,81.8525625 25.5396207,81.8525625 L52.4603793,81.8525625 C53.3181872,81.8525625 54.0134631,81.1741875 54.0134631,80.3368125 C54.0134631,79.4994375 53.3181872,78.8210625 52.4603793,78.8210625 Z" id="Shape"></path>
                <path d="M40.0353251,53.557875 C51.1685764,53.557875 60.2259901,44.7181875 60.2259901,33.8525625 C60.2259901,30.751125 59.4811478,27.709125 58.0602414,24.9661875 L60.3721921,23.663625 C60.734335,23.4594375 60.9969606,23.121375 61.1005123,22.7255625 C61.2038719,22.330125 61.1395123,21.9105 60.9218424,21.5619375 C56.4414532,14.388 48.6335764,10.105125 40.0355172,10.105125 C39.1777094,10.105125 38.4824335,10.7835 38.4824335,11.620875 L38.4824335,14.205 C28.0721232,14.981625 19.8450443,23.497125 19.8450443,33.85275 C19.8448522,44.7181875 28.902266,53.557875 40.0353251,53.557875 Z M41.588601,15.6631875 L41.588601,13.190625 C47.9477143,13.632 53.6843645,16.7731875 57.3918621,21.8424375 L55.202867,23.0758125 C55.1911478,23.0825625 55.1792365,23.089125 55.1675172,23.095875 L41.588601,30.7471875 L41.588601,15.6631875 L41.588601,15.6631875 Z M38.4822414,17.2471875 L38.4822414,33.372375 C38.4822414,33.9140625 38.7782956,34.4143125 39.2587833,34.6850625 C39.7392709,34.9558125 40.3313793,34.9558125 40.811867,34.6850625 L55.3652069,26.4845625 C56.5165714,28.7649375 57.1196305,31.284375 57.1196305,33.8525625 C57.1196305,43.04625 49.4556502,50.5261875 40.0353251,50.5261875 C30.615,50.5261875 22.9510197,43.04625 22.9510197,33.8525625 C22.9510197,25.1694375 29.7865862,18.0151875 38.4822414,17.2471875 Z" id="Shape"></path>
            </g>
        </g>
    </g>
</svg>