<svg xmlns="http://www.w3.org/2000/svg" width="64" height="64" viewBox="0 0 64 64">
    <g fill="none" fill-rule="nonzero">
        <path fill="#231E9C" d="M54.729 63.999a3.827 3.827 0 0 1-2.715-1.123L32 42.861 11.986 62.875a3.847 3.847 0 0 1-5.431 0l-5.431-5.431a3.844 3.844 0 0 1 0-5.431L21.139 32 1.125 11.986a3.844 3.844 0 0 1 0-5.431l5.431-5.431a3.843 3.843 0 0 1 5.431 0L32 21.139 52.014 1.125a3.843 3.843 0 0 1 5.431 0l5.431 5.431a3.844 3.844 0 0 1 0 5.431L42.861 32l20.014 20.014a3.844 3.844 0 0 1 0 5.431l-5.431 5.431A3.832 3.832 0 0 1 54.729 64zM32 39.24l21.824 21.824c.5.5 1.312.498 1.811 0l5.431-5.431c.5-.5.5-1.31 0-1.811L39.241 32l21.824-21.824c.5-.5.5-1.31 0-1.811l-5.431-5.431c-.5-.5-1.312-.5-1.811 0L32 24.759 10.176 2.935c-.5-.5-1.312-.498-1.811 0L2.934 8.366c-.5.5-.5 1.31 0 1.811L24.759 32 2.935 53.824c-.5.5-.5 1.31 0 1.811l5.431 5.431c.498.498 1.31.5 1.811 0L32 39.241z"/>
        <path fill="#326FF9" d="M57.678 9.038l-2.716-2.716L32 29.285 9.038 6.322 6.322 9.038 29.285 32 6.322 54.962l2.716 2.716L32 34.715l22.962 22.963 2.716-2.716L34.715 32z"/>
    </g>
</svg>
