<svg xmlns="http://www.w3.org/2000/svg" xmlns:xlink="http://www.w3.org/1999/xlink" width="162" height="40" viewBox="0 0 162 40">
    <defs>
        <path id="a" d="M.172.284H5.08v4.928H.172V.284z"/>
    </defs>
    <g fill="none" fill-rule="evenodd">
        <path fill="#4158A3" d="M11.933 38.73V20.396 38.73z"/>
        <path fill="#326FF9" d="M11.933 39.716a.984.984 0 0 1-.981-.986V20.396c0-.544.439-.985.981-.985s.982.441.982.985V38.73c0 .544-.44.986-.982.986"/>
        <path fill="#4158A3" d="M17.873 28.776v9.954"/>
        <path fill="#326FF9" d="M17.873 39.716a.984.984 0 0 1-.982-.986v-9.953c0-.545.44-.986.982-.986s.982.441.982.986v9.953c0 .544-.44.986-.982.986"/>
        <path fill="#4158A3" d="M23.567 6.8v31.93"/>
        <path fill="#326FF9" d="M23.567 39.716a.984.984 0 0 1-.982-.986V6.8c0-.545.44-.986.982-.986s.981.44.981.985v31.93c0 .545-.44.987-.981.987"/>
        <path fill="#4158A3" d="M29.555 20.498V38.73"/>
        <path fill="#326FF9" d="M29.555 39.716a.984.984 0 0 1-.982-.986V20.498c0-.544.44-.986.982-.986s.982.442.982.986V38.73c0 .544-.44.986-.982.986M14.388 16.356a2.459 2.459 0 0 1-2.455 2.463 2.459 2.459 0 0 1-2.454-2.463 2.459 2.459 0 0 1 2.454-2.464 2.459 2.459 0 0 1 2.455 2.464"/>
        <g transform="translate(20.94 .008)">
            <mask id="b" fill="#fff">
                <use xlink:href="#a"/>
            </mask>
            <path fill="#326FF9" d="M5.08 2.748a2.46 2.46 0 0 1-2.454 2.464A2.46 2.46 0 0 1 .172 2.748 2.459 2.459 0 0 1 2.626.284 2.459 2.459 0 0 1 5.08 2.748" mask="url(#b)"/>
        </g>
        <path fill="#326FF9" d="M32.01 16.553a2.459 2.459 0 0 1-2.455 2.463 2.459 2.459 0 0 1-2.454-2.463 2.459 2.459 0 0 1 2.454-2.464 2.459 2.459 0 0 1 2.454 2.464M20.327 24.732a2.459 2.459 0 0 1-2.454 2.464 2.459 2.459 0 0 1-2.455-2.464 2.459 2.459 0 0 1 2.455-2.463 2.459 2.459 0 0 1 2.454 2.463"/>
        <path fill="#326FF9" d="M29.883 39.614a.988.988 0 0 1-.5-1.835c5.529-3.267 9.1-9.703 9.1-16.396 0-3.353-.91-6.633-2.631-9.485-2.256-3.736-4.582-5.814-8.03-7.174a.987.987 0 0 1-.555-1.278.98.98 0 0 1 1.273-.557c3.835 1.513 6.524 3.901 8.99 7.987a20.326 20.326 0 0 1 2.916 10.507c0 7.377-3.95 14.48-10.066 18.094a.974.974 0 0 1-.497.137M11.687 39.548a.974.974 0 0 1-.416-.093c-3.414-1.61-6.256-4.102-8.219-7.21C1.055 29.085 0 25.33 0 21.383c0-5.277 1.89-10.251 5.325-14.006 3.465-3.789 8.219-6.013 13.384-6.263a.984.984 0 0 1 1.028.937.983.983 0 0 1-.934 1.032c-9.6.464-16.84 8.331-16.84 18.3 0 7.206 3.792 13.294 10.142 16.288a.987.987 0 0 1-.418 1.877M103 18.482c0 .008.005.012.013.012.234.236.352.524.352.865 0 .333-.12.62-.358.859-.239.24-.524.36-.856.36a1.15 1.15 0 0 1-.862-.366h-.012c-.695-.699-1.541-1.048-2.536-1.048-.995 0-1.844.351-2.548 1.054-.704.702-1.056 1.553-1.056 2.552 0 .999.352 1.852 1.056 2.558a3.466 3.466 0 0 0 2.548 1.06c.987 0 1.833-.349 2.536-1.047l.025-.025a1.17 1.17 0 0 1 .861-.353c.34 0 .631.12.874.36s.364.53.364.87c0 .341-.121.634-.364.877l-.024.025c-1.173 1.178-2.597 1.766-4.272 1.766-1.675 0-3.102-.592-4.284-1.778-1.181-1.186-1.772-2.62-1.772-4.3 0-1.682.59-3.115 1.772-4.301s2.61-1.779 4.284-1.779c1.675 0 3.099.59 4.272 1.767l-.013.012zM112.066 16.679c.34 0 .631.121.874.365.242.244.364.536.364.877 0 .341-.122.634-.364.877a1.189 1.189 0 0 1-.874.366h-.012c-.995 0-1.845.354-2.549 1.06-.647.642-.995 1.41-1.043 2.302.008.074.012.147.012.22v4.702c0 .455-.122.804-.365 1.048a1.188 1.188 0 0 1-.873.365c-.34 0-.631-.121-.874-.365-.242-.244-.364-.6-.364-1.072V22.72c.016-1.657.607-3.07 1.772-4.24 1.116-1.12 2.548-1.721 4.296-1.802M119.832 19.164c-.994 0-1.844.351-2.548 1.054a3.474 3.474 0 0 0-1.056 2.552c0 .999.352 1.852 1.056 2.558a3.467 3.467 0 0 0 2.548 1.06c.996 0 1.843-.353 2.543-1.06.7-.706 1.05-1.56 1.05-2.558 0-.999-.35-1.85-1.05-2.552a3.456 3.456 0 0 0-2.543-1.054m4.285-.682c1.18 1.186 1.771 2.62 1.771 4.3 0 1.681-.59 3.115-1.771 4.3-1.182 1.187-2.61 1.78-4.285 1.78-1.674 0-3.102-.593-4.283-1.78-1.181-1.185-1.772-2.619-1.772-4.3 0-1.68.59-3.114 1.772-4.3 1.181-1.186 2.609-1.779 4.283-1.779 1.676 0 3.103.593 4.285 1.779M137.83 16.679c.34 0 .627.117.862.353.08.081.145.166.194.256h.012l3.786 7.614 3.787-7.614.011.012c.057-.097.126-.187.207-.268.235-.236.517-.353.85-.353.34 0 .626.12.861.359.234.24.352.526.352.859 0 .268-.077.503-.23.707l-4.697 9.466c-.057.162-.15.304-.28.426a1.15 1.15 0 0 1-.861.365c-.332 0-.615-.121-.85-.365a1.067 1.067 0 0 1-.278-.414l-3.726-7.492-3.714 7.48c-.056.162-.15.304-.279.426a1.15 1.15 0 0 1-.861.365c-.332 0-.615-.121-.85-.365a1.066 1.066 0 0 1-.279-.414l-4.72-9.49a1.162 1.162 0 0 1-.22-.695c0-.333.12-.62.359-.86.238-.239.524-.358.855-.358.34 0 .627.117.862.353.08.081.146.166.194.256h.012l3.787 7.614 3.786-7.614.012.012c.057-.097.125-.187.206-.268.235-.236.518-.353.85-.353M159.25 23.038a1.984 1.984 0 0 1-.013-.22v-.462c-.089-.812-.433-1.519-1.031-2.12a3.466 3.466 0 0 0-2.549-1.06c-.995 0-1.843.353-2.542 1.06-.7.706-1.05 1.56-1.05 2.558 0 1 .35 1.85 1.05 2.553a3.456 3.456 0 0 0 2.542 1.054c.995 0 1.845-.354 2.549-1.06.647-.642.995-1.41 1.043-2.303zm2.463-.195c-.016 1.657-.607 3.07-1.772 4.24-1.181 1.186-2.61 1.778-4.284 1.778s-3.103-.592-4.284-1.778c-1.181-1.186-1.771-2.62-1.771-4.3 0-1.682.59-3.115 1.771-4.301s2.61-1.779 4.284-1.779c1.351 0 2.544.39 3.58 1.17V14.29c0-.341.122-.634.364-.877.243-.244.534-.366.874-.366.34 0 .631.122.874.366.243.243.364.536.364.877v8.552zM58.818 16.679c.34 0 .626.117.861.353.08.081.146.166.194.256h.013l3.786 7.614 3.786-7.614.012.012c.057-.097.126-.187.206-.268.235-.236.518-.353.85-.353.34 0 .627.12.862.359.234.24.352.526.352.859 0 .268-.077.503-.231.707l-4.697 9.466c-.056.162-.149.304-.278.426a1.15 1.15 0 0 1-.862.365c-.332 0-.615-.121-.85-.365a1.067 1.067 0 0 1-.279-.414l-3.725-7.492-3.714 7.48c-.057.162-.15.304-.28.426a1.15 1.15 0 0 1-.86.365c-.332 0-.616-.121-.85-.365a1.073 1.073 0 0 1-.28-.414l-4.72-9.49a1.162 1.162 0 0 1-.218-.695c0-.333.119-.62.358-.86.238-.239.523-.358.855-.358.34 0 .627.117.862.353.08.081.145.166.194.256h.012l3.786 7.614 3.787-7.614.012.012c.056-.097.125-.187.206-.268.235-.236.518-.353.85-.353M78.113 19.468a3.501 3.501 0 0 0-1.468-.304c-.995 0-1.845.351-2.549 1.054a3.474 3.474 0 0 0-1.055 2.552c0 .999.352 1.852 1.055 2.558a3.466 3.466 0 0 0 2.549 1.06 3.47 3.47 0 0 0 2.536-1.047l.024-.025a1.17 1.17 0 0 1 .862-.353c.34 0 .631.12.874.36.242.24.364.53.364.87 0 .341-.122.634-.364.877l-.025.025c-1.173 1.177-2.596 1.766-4.271 1.766-1.675 0-3.103-.592-4.284-1.778-1.181-1.186-1.772-2.62-1.772-4.3 0-1.682.59-3.115 1.772-4.301 1.181-1.186 2.609-1.779 4.284-1.779 1.675 0 3.098.59 4.271 1.767l-.011.012c0 .008.003.012.011.012.235.236.353.524.353.865 0 .333-.118.617-.353.853l-3.47 3.46a1.21 1.21 0 0 1-.874.353c-.348 0-.643-.118-.886-.353a1.235 1.235 0 0 1-.352-.89c0-.34.118-.633.352-.877l2.427-2.437zM85.14 28.861c-.34 0-.631-.121-.874-.365a1.2 1.2 0 0 1-.364-.877v-9.747a1.2 1.2 0 0 1 .364-.877c.243-.243.534-.365.874-.365.34 0 .63.122.873.365.244.244.365.536.365.877v9.747c0 .34-.121.633-.365.877a1.189 1.189 0 0 1-.873.365m0-13.376c-.34 0-.631-.122-.874-.366a1.2 1.2 0 0 1-.364-.877 1.2 1.2 0 0 1 .364-.877 1.19 1.19 0 0 1 .874-.366c.34 0 .63.123.873.366.244.244.365.536.365.877 0 .341-.121.634-.365.877a1.188 1.188 0 0 1-.873.366"/>
        <path fill="#326FF9" d="M87.534 13.193a2.46 2.46 0 0 1-2.454 2.464 2.46 2.46 0 0 1-2.454-2.464 2.459 2.459 0 0 1 2.454-2.463 2.459 2.459 0 0 1 2.454 2.463"/>
    </g>
</svg>
