<?xml version="1.0" encoding="utf-8"?>
<!-- Generator: Adobe Illustrator 16.0.0, SVG Export Plug-In . SVG Version: 6.00 Build 0)  -->
<!DOCTYPE svg PUBLIC "-//W3C//DTD SVG 1.1//EN" "http://www.w3.org/Graphics/SVG/1.1/DTD/svg11.dtd">
<svg version="1.1" id="Layer_1" xmlns="http://www.w3.org/2000/svg" xmlns:xlink="http://www.w3.org/1999/xlink" x="0px" y="0px"
	 width="224.5px" height="69.5px" viewBox="0 0 224.5 69.5" enable-background="new 0 0 224.5 69.5" xml:space="preserve">
<g>
	<path fill="#2B3E50" d="M15.3,42.06l-13.2-42h7.56l9.3,29.58l8.58-29.58h7.56l9.3,29.58l8.58-29.58h7.5l-12.24,42h-7.5l-9.3-29.58
		L22.8,42.06H15.3z"/>
	<path fill="#2B3E50" d="M81.781,30.66H66.061c0.399,0.92,0.979,1.74,1.74,2.46c0.84,0.84,1.779,1.47,2.821,1.89
		c1.039,0.42,2.139,0.63,3.299,0.63c1.641,0,3.1-0.38,4.381-1.14l7.5,3c-1.439,1.68-3.18,2.991-5.221,3.93
		c-2.039,0.939-4.26,1.41-6.66,1.41c-2.199,0-4.26-0.411-6.18-1.23s-3.6-1.95-5.04-3.39s-2.57-3.12-3.39-5.04
		c-0.82-1.92-1.23-3.96-1.23-6.12c0-2.199,0.41-4.26,1.23-6.18c0.819-1.92,1.95-3.6,3.39-5.04c1.44-1.44,3.12-2.569,5.04-3.39
		c1.92-0.819,3.98-1.23,6.18-1.23s4.26,0.411,6.18,1.23c1.92,0.82,3.602,1.95,5.041,3.39c1.439,1.44,2.57,3.12,3.391,5.04
		c0.818,1.92,1.229,3.981,1.229,6.18c0,1.281-0.141,2.48-0.42,3.6H81.781z M73.92,18.42c-2.32,0-4.36,0.84-6.12,2.52
		c-0.76,0.76-1.34,1.601-1.74,2.52h15.721c-0.4-0.919-0.982-1.76-1.74-2.52C78.361,19.26,76.32,18.42,73.92,18.42z"/>
	<path fill="#2B3E50" d="M93.06,0.06h7.2v7.2h-7.2V0.06z M93.06,42.06v-30h7.2v30H93.06z"/>
	<path fill="#2B3E50" d="M135.6,5.94l-21.96,28.92h21.96v7.2h-27.48h-4.56v-5.88l21.96-28.92h-21.96v-7.2h27.479h4.561V5.94z"/>
	<path fill="#2B3E50" d="M168.299,12v30.06h-7.2v-15c0-2.4-0.84-4.44-2.52-6.12c-1.68-1.68-3.72-2.52-6.12-2.52
		c-1.161,0-2.271,0.22-3.33,0.66c-1.061,0.44-1.99,1.06-2.79,1.86c-1.68,1.68-2.52,3.72-2.52,6.12c0,2.361,0.84,4.38,2.52,6.06
		c0.8,0.84,1.729,1.47,2.79,1.89c1.06,0.42,2.169,0.63,3.33,0.63c1.2,0,2.28-0.2,3.24-0.6l2.58,6.42
		c-1.841,0.92-3.981,1.38-6.42,1.38c-2.201,0-4.23-0.411-6.091-1.23c-1.859-0.819-3.471-1.95-4.83-3.39s-2.42-3.12-3.18-5.04
		s-1.14-3.96-1.14-6.12c0-2.199,0.38-4.26,1.14-6.18c0.76-1.92,1.82-3.6,3.18-5.04c1.359-1.44,2.971-2.569,4.83-3.39
		c1.86-0.819,3.89-1.23,6.091-1.23c1.959,0,3.699,0.3,5.22,0.9c1.52,0.6,2.859,1.36,4.02,2.28V12H168.299z"/>
	<path fill="#2B3E50" d="M183.509,12.06c1.419-0.6,3.029-0.9,4.83-0.9v7.2c-2.4,0-4.44,0.84-6.12,2.52
		c-1.681,1.761-2.521,3.801-2.521,6.12v15.06h-7.2V27V12h7.2v2.34C180.817,13.42,182.088,12.66,183.509,12.06z"/>
	<path fill="#2B3E50" d="M221.278,0v42.06h-7.2v-15c0-2.439-0.84-4.479-2.521-6.12c-1.68-1.68-3.7-2.52-6.06-2.52
		c-2.4,0-4.44,0.84-6.12,2.52c-1.68,1.68-2.52,3.72-2.52,6.12c0,2.361,0.84,4.38,2.52,6.06c0.8,0.84,1.729,1.47,2.79,1.89
		c1.06,0.42,2.169,0.63,3.33,0.63c1.159,0,2.22-0.2,3.18-0.6l2.58,6.42c-1.84,0.92-3.96,1.38-6.359,1.38
		c-2.201,0-4.23-0.411-6.091-1.23c-1.859-0.819-3.471-1.95-4.83-3.39s-2.42-3.12-3.18-5.04s-1.14-3.96-1.14-6.12
		c0-2.199,0.38-4.26,1.14-6.18c0.76-1.92,1.82-3.6,3.18-5.04c1.359-1.44,2.971-2.569,4.83-3.39c1.86-0.819,3.89-1.23,6.091-1.23
		c1.92,0,3.639,0.3,5.159,0.9s2.859,1.36,4.021,2.28V0H221.278z"/>
</g>
<g>
	<path fill="#2B3E50" d="M34.585,54.155v4.309H33.25v-11.4h3.132c1.219,0,2.164,0.297,2.834,0.891
		c0.67,0.593,1.005,1.431,1.005,2.512c0,1.082-0.373,1.966-1.117,2.655c-0.745,0.689-1.75,1.034-3.017,1.034H34.585z M34.585,48.272
		v4.674h1.399c0.922,0,1.626-0.21,2.111-0.632s0.728-1.016,0.728-1.785c0-1.505-0.891-2.258-2.671-2.258H34.585z"/>
	<path fill="#2B3E50" d="M44.992,58.655c-1.203,0-2.164-0.38-2.882-1.141c-0.718-0.76-1.077-1.769-1.077-3.024
		c0-1.368,0.374-2.436,1.121-3.204c0.747-0.768,1.757-1.152,3.029-1.152c1.213,0,2.161,0.374,2.842,1.121
		c0.681,0.748,1.021,1.784,1.021,3.108c0,1.298-0.367,2.338-1.101,3.12S46.227,58.655,44.992,58.655z M45.087,51.229
		c-0.837,0-1.5,0.285-1.987,0.855c-0.488,0.57-0.731,1.355-0.731,2.357c0,0.964,0.247,1.725,0.739,2.281
		c0.493,0.557,1.153,0.835,1.979,0.835c0.843,0,1.491-0.273,1.944-0.819s0.68-1.322,0.68-2.329c0-1.018-0.227-1.802-0.68-2.353
		S45.93,51.229,45.087,51.229z"/>
	<path fill="#2B3E50" d="M61.384,50.323l-2.44,8.141h-1.352l-1.677-5.827c-0.064-0.223-0.106-0.474-0.127-0.755h-0.032
		c-0.016,0.191-0.071,0.438-0.167,0.74l-1.82,5.843h-1.304L50,50.323h1.367l1.686,6.122c0.053,0.186,0.09,0.429,0.111,0.731h0.063
		c0.016-0.233,0.063-0.482,0.143-0.748l1.876-6.105h1.192l1.686,6.137c0.053,0.196,0.093,0.44,0.119,0.731h0.063
		c0.011-0.207,0.056-0.45,0.135-0.731l1.653-6.137H61.384z"/>
	<path fill="#2B3E50" d="M69.357,54.72H63.61c0.021,0.906,0.265,1.605,0.731,2.099c0.466,0.493,1.107,0.739,1.924,0.739
		c0.917,0,1.759-0.302,2.528-0.906v1.224c-0.715,0.52-1.662,0.779-2.838,0.779c-1.15,0-2.054-0.37-2.711-1.109
		c-0.657-0.74-0.986-1.78-0.986-3.121c0-1.267,0.359-2.298,1.077-3.096c0.718-0.797,1.61-1.196,2.675-1.196
		c1.065,0,1.889,0.344,2.472,1.033s0.875,1.646,0.875,2.87V54.72z M68.022,53.615c-0.005-0.752-0.187-1.338-0.545-1.757
		c-0.357-0.419-0.854-0.628-1.49-0.628c-0.615,0-1.137,0.22-1.566,0.66c-0.429,0.44-0.694,1.015-0.795,1.725H68.022z"/>
	<path fill="#2B3E50" d="M75.574,51.643c-0.228-0.175-0.557-0.262-0.986-0.262c-0.557,0-1.021,0.262-1.396,0.787
		c-0.374,0.524-0.56,1.24-0.56,2.146v4.15h-1.304v-8.141h1.304v1.678h0.032c0.186-0.573,0.469-1.019,0.851-1.34
		c0.381-0.32,0.808-0.481,1.28-0.481c0.339,0,0.599,0.037,0.779,0.111V51.643z"/>
	<path fill="#2B3E50" d="M83.317,54.72h-5.748c0.021,0.906,0.265,1.605,0.731,2.099c0.466,0.493,1.107,0.739,1.924,0.739
		c0.917,0,1.759-0.302,2.528-0.906v1.224c-0.715,0.52-1.662,0.779-2.838,0.779c-1.15,0-2.054-0.37-2.711-1.109
		c-0.657-0.74-0.986-1.78-0.986-3.121c0-1.267,0.359-2.298,1.077-3.096c0.718-0.797,1.61-1.196,2.675-1.196
		c1.065,0,1.889,0.344,2.472,1.033s0.875,1.646,0.875,2.87V54.72z M81.981,53.615c-0.005-0.752-0.187-1.338-0.545-1.757
		c-0.357-0.419-0.854-0.628-1.49-0.628c-0.615,0-1.137,0.22-1.566,0.66c-0.429,0.44-0.694,1.015-0.795,1.725H81.981z"/>
	<path fill="#2B3E50" d="M92.236,58.464h-1.304v-1.383h-0.032c-0.604,1.049-1.537,1.574-2.798,1.574
		c-1.023,0-1.84-0.364-2.453-1.093c-0.612-0.729-0.918-1.721-0.918-2.977c0-1.346,0.339-2.425,1.018-3.235
		c0.678-0.811,1.582-1.216,2.711-1.216c1.118,0,1.932,0.44,2.44,1.319h0.032v-5.04h1.304V58.464z M90.933,54.783v-1.2
		c0-0.657-0.217-1.214-0.652-1.669c-0.435-0.456-0.986-0.684-1.653-0.684c-0.795,0-1.42,0.292-1.876,0.875
		c-0.456,0.583-0.684,1.389-0.684,2.417c0,0.938,0.219,1.679,0.656,2.222c0.438,0.543,1.024,0.815,1.761,0.815
		c0.726,0,1.315-0.262,1.769-0.787C90.706,56.246,90.933,55.583,90.933,54.783z"/>
	<path fill="#2B3E50" d="M100.671,57.287h-0.032v1.177h-1.304V46.412h1.304v5.342h0.032c0.641-1.081,1.579-1.622,2.814-1.622
		c1.044,0,1.861,0.364,2.453,1.093c0.591,0.729,0.886,1.706,0.886,2.93c0,1.362-0.331,2.452-0.994,3.271s-1.569,1.229-2.719,1.229
		C102.036,58.655,101.222,58.199,100.671,57.287z M100.639,54.004v1.137c0,0.673,0.218,1.244,0.656,1.713
		c0.437,0.469,0.992,0.704,1.666,0.704c0.79,0,1.408-0.302,1.856-0.906s0.672-1.444,0.672-2.52c0-0.906-0.209-1.616-0.628-2.13
		c-0.419-0.514-0.986-0.771-1.701-0.771c-0.758,0-1.368,0.264-1.829,0.791C100.87,52.548,100.639,53.209,100.639,54.004z"/>
	<path fill="#2B3E50" d="M115.387,50.323l-3.746,9.444c-0.667,1.686-1.605,2.528-2.814,2.528c-0.339,0-0.623-0.034-0.851-0.103
		v-1.169c0.281,0.096,0.538,0.143,0.771,0.143c0.657,0,1.15-0.392,1.479-1.176l0.652-1.542l-3.18-8.125h1.447l2.202,6.265
		c0.026,0.08,0.082,0.286,0.167,0.62h0.047c0.027-0.127,0.08-0.329,0.159-0.604l2.314-6.28H115.387z"/>
	<path fill="#2B3E50" d="M134.934,47.064l-3.221,11.4h-1.564l-2.346-8.331c-0.102-0.355-0.162-0.742-0.184-1.161h-0.031
		c-0.031,0.392-0.102,0.774-0.207,1.145l-2.361,8.347h-1.549l-3.34-11.4h1.471l2.424,8.745c0.102,0.366,0.166,0.748,0.191,1.145
		h0.041c0.025-0.281,0.107-0.663,0.246-1.145l2.52-8.745h1.279l2.418,8.808c0.084,0.302,0.148,0.657,0.189,1.065h0.033
		c0.02-0.275,0.092-0.641,0.213-1.097l2.33-8.776H134.934z"/>
	<path fill="#2B3E50" d="M142.605,54.72h-5.748c0.021,0.906,0.266,1.605,0.73,2.099c0.467,0.493,1.107,0.739,1.924,0.739
		c0.918,0,1.76-0.302,2.529-0.906v1.224c-0.717,0.52-1.662,0.779-2.838,0.779c-1.15,0-2.055-0.37-2.711-1.109
		c-0.658-0.74-0.986-1.78-0.986-3.121c0-1.267,0.359-2.298,1.078-3.096c0.717-0.797,1.609-1.196,2.674-1.196
		c1.066,0,1.889,0.344,2.473,1.033c0.582,0.689,0.875,1.646,0.875,2.87V54.72z M141.27,53.615c-0.006-0.752-0.188-1.338-0.545-1.757
		c-0.357-0.419-0.854-0.628-1.49-0.628c-0.615,0-1.137,0.22-1.566,0.66s-0.693,1.015-0.795,1.725H141.27z"/>
	<path fill="#2B3E50" d="M145.244,48.256c-0.232,0-0.432-0.079-0.596-0.238s-0.246-0.36-0.246-0.604s0.082-0.447,0.246-0.608
		s0.363-0.242,0.596-0.242c0.238,0,0.441,0.081,0.609,0.242c0.166,0.162,0.25,0.365,0.25,0.608c0,0.233-0.084,0.432-0.25,0.596
		C145.686,48.174,145.482,48.256,145.244,48.256z M145.881,58.464h-1.305v-8.141h1.305V58.464z"/>
	<path fill="#2B3E50" d="M156.453,57.987c-0.842,0.445-1.893,0.668-3.148,0.668c-1.621,0-2.92-0.522-3.895-1.566
		c-0.977-1.044-1.463-2.414-1.463-4.11c0-1.823,0.549-3.296,1.645-4.42c1.098-1.124,2.488-1.685,4.174-1.685
		c1.082,0,1.977,0.156,2.688,0.469v1.423c-0.816-0.456-1.717-0.684-2.703-0.684c-1.309,0-2.371,0.438-3.184,1.312
		c-0.814,0.874-1.221,2.043-1.221,3.505c0,1.389,0.381,2.495,1.141,3.319c0.762,0.824,1.758,1.236,2.994,1.236
		c1.145,0,2.135-0.254,2.973-0.763V57.987z"/>
	<path fill="#2B3E50" d="M162.844,51.643c-0.227-0.175-0.557-0.262-0.984-0.262c-0.557,0-1.021,0.262-1.396,0.787
		c-0.373,0.524-0.561,1.24-0.561,2.146v4.15H158.6v-8.141h1.303v1.678h0.033c0.186-0.573,0.469-1.019,0.85-1.34
		c0.383-0.32,0.809-0.481,1.281-0.481c0.338,0,0.598,0.037,0.777,0.111V51.643z"/>
	<path fill="#2B3E50" d="M167.447,58.655c-1.203,0-2.164-0.38-2.881-1.141c-0.719-0.76-1.078-1.769-1.078-3.024
		c0-1.368,0.373-2.436,1.121-3.204c0.746-0.768,1.756-1.152,3.029-1.152c1.213,0,2.16,0.374,2.842,1.121
		c0.68,0.748,1.021,1.784,1.021,3.108c0,1.298-0.367,2.338-1.102,3.12S168.682,58.655,167.447,58.655z M167.543,51.229
		c-0.838,0-1.5,0.285-1.988,0.855c-0.486,0.57-0.73,1.355-0.73,2.357c0,0.964,0.246,1.725,0.738,2.281
		c0.494,0.557,1.152,0.835,1.98,0.835c0.842,0,1.49-0.273,1.943-0.819s0.68-1.322,0.68-2.329c0-1.018-0.227-1.802-0.68-2.353
		S168.385,51.229,167.543,51.229z"/>
	<path fill="#2B3E50" d="M183.84,50.323l-2.441,8.141h-1.352l-1.676-5.827c-0.064-0.223-0.107-0.474-0.127-0.755h-0.033
		c-0.016,0.191-0.07,0.438-0.166,0.74l-1.82,5.843h-1.305l-2.465-8.141h1.369l1.684,6.122c0.053,0.186,0.092,0.429,0.111,0.731
		h0.064c0.016-0.233,0.064-0.482,0.143-0.748l1.877-6.105h1.191l1.686,6.137c0.053,0.196,0.094,0.44,0.119,0.731h0.064
		c0.01-0.207,0.055-0.45,0.135-0.731l1.654-6.137H183.84z"/>
	<path fill="#2B3E50" d="M192.219,58.464h-1.305v-1.383h-0.031c-0.604,1.049-1.537,1.574-2.799,1.574
		c-1.021,0-1.84-0.364-2.451-1.093c-0.613-0.729-0.92-1.721-0.92-2.977c0-1.346,0.34-2.425,1.018-3.235
		c0.68-0.811,1.582-1.216,2.711-1.216c1.119,0,1.932,0.44,2.441,1.319h0.031v-5.04h1.305V58.464z M190.914,54.783v-1.2
		c0-0.657-0.217-1.214-0.652-1.669c-0.434-0.456-0.984-0.684-1.652-0.684c-0.795,0-1.42,0.292-1.877,0.875
		c-0.455,0.583-0.684,1.389-0.684,2.417c0,0.938,0.219,1.679,0.656,2.222c0.438,0.543,1.023,0.815,1.762,0.815
		c0.725,0,1.314-0.262,1.768-0.787C190.688,56.246,190.914,55.583,190.914,54.783z"/>
</g>
</svg>
