<svg xmlns="http://www.w3.org/2000/svg" width="76" height="63" viewBox="0 0 76 63">
    <g fill="none" fill-rule="nonzero">
        <path fill="#EDEDED" d="M66.79 54.32l-10.434-4.16H42.83l-11.658 4.6c-2.383.946-4.187 2.773-5.088 5.168l-.451 1.197h47.919c-1.16-3.088-3.672-5.608-6.763-6.806z"/>
        <path fill="#101215" d="M51.01 58.667c-1.288-3.466-3.542-6.427-6.44-8.444h-1.74l-11.657 4.6c-2.383.946-4.187 2.773-5.088 5.168l-.451 1.197h26.664l-1.288-2.52z" opacity=".2"/>
        <path fill="#FFF" d="M56.292 46.064v6.05c-1.933 6.68-11.465 6.68-13.397 0v-6.05"/>
        <path fill="#101215" d="M50.366 57.092c-1.61-3.403-4.25-6.239-7.471-8.003v3.025c1.03 3.655 4.38 5.356 7.471 4.978z" opacity=".2"/>
        <path fill="#101215" d="M42.895 50.916c2.77 1.513 5.217 1.828 6.698 1.828 1.74 0 4.058-.378 6.699-1.828v-2.772H42.895v2.772z" opacity=".2"/>
        <path fill="#231E9C" d="M49.593 59.045c-4.057 0-7.471-2.52-8.566-6.427-.064-.19-.064-.315-.064-.504v-6.05c0-1.071.837-1.89 1.932-1.89s1.932.819 1.932 1.89v5.798c.837 2.52 3.027 3.402 4.766 3.402 1.74 0 3.929-.882 4.766-3.402v-5.798c0-1.071.838-1.89 1.933-1.89 1.094 0 1.932.819 1.932 1.89v6.05c0 .189 0 .378-.065.504-1.095 3.907-4.508 6.427-8.566 6.427z"/>
        <path fill="#231E9C" d="M31.173 56.65a1.94 1.94 0 0 1-1.804-1.196 1.868 1.868 0 0 1 1.095-2.458l11.658-4.6c.966-.378 2.125.063 2.512 1.071a1.868 1.868 0 0 1-1.095 2.458l-11.658 4.6c-.193.126-.45.126-.708.126zM73.553 63.015c-.773 0-1.546-.44-1.804-1.197-1.03-2.584-3.091-4.726-5.668-5.734l-10.434-4.096c-.966-.378-1.48-1.513-1.094-2.458.386-.945 1.545-1.45 2.511-1.071l10.434 4.096c3.607 1.45 6.441 4.285 7.858 7.877.386.945-.129 2.08-1.095 2.457-.258.063-.45.126-.708.126z"/>
        <g>
            <path fill="#FFF" d="M67.692 24.072c0-14.683-7.343-22.182-18.099-22.182s-18.098 7.5-18.098 22.182c-3.478.252-2.705 8.129 1.288 7.688 5.024 13.99 12.044 17.707 16.875 17.707 4.83 0 11.786-3.718 16.874-17.707 3.865.44 4.637-7.436 1.16-7.688z"/>
            <path fill="#101215" d="M32.719 31.76c2.898 8.003 6.376 12.603 9.79 15.123.901-.882 1.738-1.827 2.447-2.898 1.675-2.647 2.576-5.672 2.576-8.76v-3.087c1.095-2.899 1.288-6.554.322-9.2-.129-.315-.257-.568-.386-.883-.322-7.75-2.383-13.989-5.926-18.463-6.247 2.962-10.176 9.83-10.176 20.543-3.35.189-2.576 8.066 1.353 7.625z" opacity=".2"/>
            <path fill="#326FF9" d="M67.885 23.316C67.627 9.137 60.349 1.89 49.786 1.89h-.258c-10.562 0-17.84 7.247-18.097 21.426l.644 2.961c.193 1.009 1.223 1.639 2.254 1.513 1.868-1.702-.644-5.672 1.932-8.066 1.03-.945 13.847 1.89 21.319 2.331 2.77.19 5.088-2.646 5.474-2.331 2.577 2.394.065 6.364 1.932 8.066 1.03.189 1.997-.504 2.255-1.513l.644-2.961z"/>
            <path fill="#000" d="M49.786 1.89h-.258c-1.094 0-2.125.063-3.09.253 8.243 1.26 13.911 7.498 14.877 18.59.902-.631 1.546-1.198 1.74-1.01 2.576 2.395.064 6.365 1.931 8.067 1.03.189 1.997-.504 2.255-1.513l.644-2.961C67.627 9.137 60.349 1.89 49.786 1.89z" opacity=".1"/>
            <path fill="#101215" d="M31.495 23.316l.644 2.961c.193 1.009 1.224 1.639 2.254 1.513 1.868-1.702-.644-5.672 1.932-8.066.644-.567 5.604.252 11.143 1.071-.451-7.12-2.512-12.918-5.797-17.203-6.118 2.899-9.983 9.515-10.176 19.724z" opacity=".2"/>
            <path fill="#231E9C" d="M56.936 23.883h-.387c-3.735-.19-8.308-.882-12.302-1.576-2.769-.44-6.118-1.008-7.149-.945-.708.315-1.61.19-2.254-.378-.708-.756-.708-1.953.064-2.647 1.16-1.07 3.028-.819 9.92.253 3.928.63 8.308 1.323 11.85 1.512 1.61.063 3.091-.882 4.058-1.512.901-.568 2.318-1.45 3.606-.316.773.694.773 1.89.065 2.647-.322.315-.773.504-1.224.567a1.35 1.35 0 0 0-.386.252c-1.03.82-3.22 2.143-5.861 2.143z"/>
            <path fill="#231E9C" d="M49.593 51.358c-3.478 0-12.108-1.765-18.227-17.834-2.512-.567-3.929-3.214-3.993-5.86-.065-2.269.773-4.033 2.254-4.915C30.014 8.444 37.42 0 49.593 0c12.173 0 19.58 8.444 20.03 22.749 1.418.882 2.32 2.71 2.255 4.915-.129 2.646-1.481 5.293-3.993 5.86-6.183 16.07-14.814 17.834-18.292 17.834zM32.72 29.869c.837 0 1.545.504 1.803 1.26 1.417 3.845 6.57 16.448 15.007 16.448S63.183 34.974 64.536 31.13c.322-.82 1.159-1.324 2.06-1.26h.13c.515 0 .966-.757 1.094-1.513.322-1.323-.064-2.332-.257-2.395-1.03-.063-1.804-.882-1.804-1.89 0-12.918-5.86-20.291-16.166-20.291-10.305 0-16.166 7.373-16.166 20.29 0 1.01-.773 1.828-1.803 1.891-.258.126-.644 1.072-.322 2.395.193.693.58 1.512 1.095 1.512h.322z"/>
        </g>
        <g>
            <path fill="#FFF" d="M24.024 1.89h-.258c-10.563 0-16.81 7.247-17.068 21.426v11.91c0 1.89.58 3.78 1.61 5.356a9.919 9.919 0 0 0 8.245 4.474h14.62c3.349 0 6.44-1.701 8.244-4.474a9.879 9.879 0 0 0 1.61-5.356v-11.91C40.834 9.137 34.587 1.89 24.024 1.89z"/>
            <path fill="#231E9C" d="M32.397 48.08h-16.94a11.871 11.871 0 0 1-9.918-5.356 11.691 11.691 0 0 1-1.868-6.364v-.19l1.16-12.98C5.088 8.444 12.044 0 23.83 0h.258c11.786 0 18.742 8.444 19 23.19l1.158 12.98v.19c0 2.268-.644 4.474-1.932 6.364a11.787 11.787 0 0 1-9.918 5.357zM7.536 36.424c0 1.512.45 3.025 1.288 4.285a7.843 7.843 0 0 0 6.634 3.592h16.939a7.843 7.843 0 0 0 6.634-3.592 7.796 7.796 0 0 0 1.288-4.285l-1.16-12.918v-.126c-.193-8.948-2.898-19.535-15.135-19.535h-.193c-12.238 0-14.943 10.65-15.136 19.535v.126l-1.16 12.918z"/>
            <path fill="#FFF" d="M39.095 54.32l-9.275-4.16H17.84l-10.304 4.6c-2.061.946-3.736 2.773-4.573 5.168l-.387 1.197h42.509c-1.03-3.088-3.22-5.608-5.99-6.806z"/>
            <path fill="#FFF" d="M29.756 46.064v6.05c-1.74 6.68-10.176 6.68-11.915 0v-6.05"/>
            <path fill="#101215" d="M17.905 50.916c2.448 1.513 4.637 1.828 5.926 1.828 1.545 0 3.606-.378 5.925-1.828v-2.772h-11.85v2.772z" opacity=".2"/>
            <path fill="#231E9C" d="M23.83 59.045c-3.735 0-6.827-2.52-7.793-6.427-.064-.126-.064-.315-.064-.441v-6.05c0-1.071.837-1.89 1.932-1.89s1.932.819 1.932 1.89v5.86c.709 2.458 2.512 3.404 3.994 3.404 1.48 0 3.284-.883 3.993-3.403v-5.86c0-1.072.837-1.891 1.932-1.891s1.932.819 1.932 1.89v6.05c0 .126 0 .315-.064.44-.966 3.908-4.058 6.428-7.793 6.428z"/>
            <path fill="#231E9C" d="M2.576 63.015c-.193 0-.386-.063-.644-.126-1.03-.315-1.546-1.386-1.224-2.394l.387-1.198c.966-2.835 3.027-5.104 5.603-6.238l10.305-4.6c.966-.441 2.126 0 2.577.945.45.945 0 2.08-.966 2.52l-10.306 4.6c-1.61.694-2.898 2.206-3.542 4.034l-.386 1.197c-.258.756-1.03 1.26-1.804 1.26zM45.085 63.015c-.838 0-1.546-.504-1.804-1.26-.901-2.584-2.705-4.663-4.959-5.671l-9.275-4.096c-.966-.441-1.416-1.576-.966-2.52.451-.946 1.61-1.387 2.577-.946l9.274 4.096c3.22 1.45 5.797 4.348 7.02 7.94.323 1.008-.193 2.08-1.223 2.394-.193 0-.451.063-.644.063z"/>
            <path fill="#FFF" d="M40.898 24.072c0-14.683-6.312-22.182-17.067-22.182-10.756 0-17.068 7.5-17.068 22.182-1.997.126-1.224 7.94 1.288 7.688 5.024 13.99 11.078 17.707 15.844 17.707s10.82-3.718 15.844-17.707c2.383.252 3.156-7.562 1.16-7.688z"/>
            <path fill="#326FF9" d="M40.898 24.072c0-14.683-6.312-22.182-17.067-22.182h-.967-.064C12.753 2.395 6.763 7.625 6.763 21.803c-.258 0-.516 2.458-.709 2.773 0 0-1.868-2.08.709-4.474 1.095-1.008 4.959 5.671 13.976 4.474 2.834-.378 6.183-6.302 10.176-6.176 1.546.064 3.993 6.87 6.119 8.13 2.576 1.575 4.637-2.395 3.864-2.458z"/>
            <g fill="#000" opacity=".1">
                <path d="M40.898 24.072c0-14.683-6.312-22.182-17.067-22.182h-.967-.064c-.773.063-1.546.126-2.254.19 8.63 1.323 13.783 8.444 13.976 21.11.837 1.449 1.739 2.772 2.512 3.276 2.576 1.639 4.637-2.331 3.864-2.394z"/>
            </g>
            <path fill="#C88B79" d="M6.054 24.576c.193-.315.387-2.773.709-2.773 0-.567 0-1.197.064-1.701h-.064c-2.577 2.394-.709 4.474-.709 4.474z"/>
            <path fill="#231E9C" d="M37.034 28.42c-.322 0-.709-.063-1.03-.252-1.353-.82-2.126-2.584-2.963-4.411-.451-.945-1.546-3.466-2.126-3.466-.966 0-1.739.82-3.027 2.205-1.61 1.828-3.671 4.033-7.213 3.97-6.441-.126-10.048-2.394-11.916-3.591l-.58-.379c-.579.127-1.223-.063-1.738-.567-.709-.756-.709-1.953.064-2.646 1.481-1.387 3.22-.315 4.315.44 1.675 1.072 4.509 2.9 9.855 2.963 1.61 0 2.705-1.009 4.25-2.71 1.482-1.639 3.156-3.466 5.861-3.466 3.156 0 4.573 3.214 5.668 5.734.387.883 1.03 2.395 1.417 2.647a1.9 1.9 0 0 1 .644 2.584c-.193.63-.837.945-1.481.945z"/>
            <path fill="#231E9C" d="M23.83 51.358c-8.63 0-14.105-9.579-17.26-17.96-1.868-.882-2.77-3.529-2.834-6.112-.065-2.269.45-3.466 1.159-4.16C5.153 8.382 12.045 0 23.83 0s18.677 8.381 19 23.064c.644.693 1.223 1.953 1.159 4.159-.129 2.646-1.03 5.293-2.834 6.112-3.22 8.444-8.695 18.023-17.325 18.023zM8.18 29.869c.708.063 1.352.567 1.61 1.26 3.864 10.776 8.695 16.448 13.976 16.448 5.281 0 10.112-5.672 13.976-16.447.258-.694.902-1.198 1.61-1.26.516-.757.838-3.088.58-4.097-.644-.315-1.03-.945-1.03-1.701C38.966 7.31 30.722 3.78 23.83 3.78c-6.892 0-15.136 3.529-15.136 20.29 0 .757-.45 1.387-1.03 1.702-.323 1.009 0 3.34.515 4.096z"/>
        </g>
    </g>
</svg>
