<svg xmlns="http://www.w3.org/2000/svg" width="76" height="64" viewBox="0 0 76 64">
    <g fill="none" fill-rule="nonzero">
        <path fill="#FFF" d="M67.426 61.91H7.925c-3.313 0-5.976-2.677-5.976-6.008V8.032c0-3.33 2.663-6.008 5.976-6.008H67.49c3.312 0 5.976 2.678 5.976 6.009v47.869c-.065 3.33-2.729 6.008-6.041 6.008z"/>
        <path fill="#326FF9" d="M21.89 62.367c-1.104 0-1.948-.849-1.948-1.959v-35.07c0-1.11.844-1.958 1.949-1.958 1.104 0 1.948.849 1.948 1.959v35.134c0 1.045-.844 1.894-1.948 1.894z"/>
        <g fill="#326FF9">
            <path d="M73.402 14.04H1.949V8.034c0-3.331 2.663-6.009 5.976-6.009H67.49c3.312 0 5.976 2.678 5.976 6.009l-.065 6.008zM33.648 23.053h28.84c1.105 0 1.95.849 1.95 1.96v8.032c0 1.11-.845 1.96-1.95 1.96h-28.84c-1.104 0-1.949-.85-1.949-1.96v-8.033c0-1.11.845-1.959 1.949-1.959zM33.648 41.012h7.99c1.104 0 1.948.85 1.948 1.96v8.032c0 1.11-.844 1.96-1.948 1.96h-7.99c-1.104 0-1.949-.85-1.949-1.96v-8.033c0-1.11.845-1.959 1.949-1.959z"/>
        </g>
        <path fill="#231E9C" d="M67.49.065H7.926C3.573.065 0 3.657 0 8.033v47.869c0 4.376 3.573 7.967 7.925 7.967h59.5c4.353 0 7.925-3.526 7.99-7.967V8.032c0-4.375-3.572-7.967-7.924-7.967zM3.898 8.098c0-2.22 1.82-4.049 4.028-4.049v-.065h59.5c2.21 0 4.028 1.828 4.028 4.049v4.049H3.897V8.098zm63.594 51.918H7.925c-2.209 0-4.028-1.828-4.028-4.049V16h67.62v39.967c0 2.22-1.818 4.05-4.026 4.05z"/>
        <path fill="#FFF" d="M9.419 10.318c-1.234 0-2.274-1.045-2.274-2.285 0-1.241 1.04-2.286 2.274-2.286s2.273 1.045 2.273 2.286c-.065 1.24-1.039 2.285-2.273 2.285zM15.33 10.318c-1.234 0-2.274-1.045-2.274-2.285 0-1.241 1.04-2.286 2.274-2.286s2.273 1.045 2.273 2.286c0 1.24-1.039 2.285-2.273 2.285zM21.306 10.318c-1.234 0-2.274-1.045-2.274-2.285 0-1.241 1.04-2.286 2.274-2.286s2.273 1.045 2.273 2.286c-.064 1.24-1.039 2.285-2.273 2.285z"/>
        <g fill="#326FF9">
            <path d="M61.84 44.735H49.951c-1.104 0-1.949-.85-1.949-1.96 0-1.11.845-1.959 1.95-1.959h11.886c1.105 0 1.949.85 1.949 1.96 0 1.11-.844 1.959-1.949 1.959zM61.84 53.094H49.951c-1.104 0-1.949-.85-1.949-1.96 0-1.11.845-1.958 1.95-1.958h11.886c1.105 0 1.949.848 1.949 1.959 0 1.11-.844 1.959-1.949 1.959z"/>
        </g>
    </g>
</svg>
