<svg xmlns="http://www.w3.org/2000/svg" width="64" height="64" viewBox="0 0 64 64">
    <g fill="none" fill-rule="nonzero">
        <circle cx="32" cy="32" r="30.189" fill="#FFF"/>
        <path fill="#0C0F13" d="M54.642 32c0-15.396-11.533-28.075-26.385-29.947 1.207-.181 2.475-.242 3.803-.242 16.665 0 30.19 13.525 30.19 30.189S48.724 62.189 32.06 62.189c-1.268 0-2.535-.06-3.803-.242C43.109 60.075 54.642 47.397 54.642 32z" opacity=".1"/>
        <path fill="#231E9C" d="M32 64C14.37 64 0 49.63 0 32 0 14.37 14.37 0 32 0c17.63 0 32 14.37 32 32 0 17.63-14.37 32-32 32zm0-60.377C16.362 3.623 3.623 16.363 3.623 32c0 15.638 12.74 28.377 28.377 28.377 15.638 0 28.377-12.74 28.377-28.377 0-15.638-12.74-28.377-28.377-28.377z"/>
        <path fill="#326FF9" d="M32 19.14a1.779 1.779 0 0 0-1.811 1.81c0 1.027.785 1.812 1.811 1.812a1.779 1.779 0 0 0 1.811-1.811A1.779 1.779 0 0 0 32 19.14zM32 49.51a1.779 1.779 0 0 1-1.811-1.812V30.974c0-1.027.785-1.812 1.811-1.812 1.026 0 1.811.785 1.811 1.812v16.724A1.779 1.779 0 0 1 32 49.51z"/>
    </g>
</svg>
