<svg xmlns="http://www.w3.org/2000/svg" width="78" height="96" viewBox="0 0 78 96">
    <g fill="none" fill-rule="nonzero">
        <path fill="#231E9C" d="M72.28 0H5.72C2.566 0 0 2.493 0 5.558v84.884C0 93.507 2.566 96 5.72 96h66.56c3.154 0 5.72-2.493 5.72-5.558V5.558C78 2.493 75.434 0 72.28 0zm2.6 90.442c0 1.393-1.166 2.527-2.6 2.527H5.72c-1.434 0-2.6-1.134-2.6-2.527V5.558c0-1.393 1.166-2.526 2.6-2.526h66.56c1.434 0 2.6 1.133 2.6 2.526v84.884z"/>
        <path fill="#008BFF" d="M62.436 71H16.564C15.7 71 15 71.671 15 72.5s.7 1.5 1.564 1.5h45.872C63.3 74 64 73.329 64 72.5c0-.828-.7-1.5-1.564-1.5zM62.436 55H16.564C15.7 55 15 55.671 15 56.5s.7 1.5 1.564 1.5h45.872C63.3 58 64 57.329 64 56.5c0-.828-.7-1.5-1.564-1.5zM62.436 63H16.564C15.7 63 15 63.672 15 64.5c0 .829.7 1.5 1.564 1.5h45.872C63.3 66 64 65.329 64 64.5c0-.828-.7-1.5-1.564-1.5zM62.436 47H16.564C15.7 47 15 47.672 15 48.5c0 .829.7 1.5 1.564 1.5h45.872C63.3 50 64 49.329 64 48.5c0-.828-.7-1.5-1.564-1.5zM62.436 40H16.564C15.7 40 15 40.671 15 41.5s.7 1.5 1.564 1.5h45.872C63.3 43 64 42.329 64 41.5c0-.828-.7-1.5-1.564-1.5zM62.436 32H16.564C15.7 32 15 32.672 15 33.5c0 .829.7 1.5 1.564 1.5h45.872C63.3 35 64 34.329 64 33.5c0-.828-.7-1.5-1.564-1.5zM62.436 25H16.564C15.7 25 15 25.671 15 26.5s.7 1.5 1.564 1.5h45.872C63.3 28 64 27.329 64 26.5c0-.828-.7-1.5-1.564-1.5zM62.436 17H16.564C15.7 17 15 17.672 15 18.5c0 .829.7 1.5 1.564 1.5h45.872C63.3 20 64 19.329 64 18.5c0-.828-.7-1.5-1.564-1.5zM52.448 79H25.552c-.857 0-1.552.671-1.552 1.5s.695 1.5 1.552 1.5h26.896c.857 0 1.552-.671 1.552-1.5s-.695-1.5-1.552-1.5z"/>
    </g>
</svg>
