<?xml version="1.0" encoding="utf-8"?>
<!-- Generator: Adobe Illustrator 16.0.0, SVG Export Plug-In . SVG Version: 6.00 Build 0)  -->
<!DOCTYPE svg PUBLIC "-//W3C//DTD SVG 1.1//EN" "http://www.w3.org/Graphics/SVG/1.1/DTD/svg11.dtd">
<svg version="1.1" id="Layer_1" xmlns="http://www.w3.org/2000/svg" xmlns:xlink="http://www.w3.org/1999/xlink" x="0px" y="0px"
	 width="128.5px" height="3024.856px" viewBox="0 0 128.5 3024.856" enable-background="new 0 0 128.5 3024.856"
	 xml:space="preserve">
<g>
	<g transform="translate(-52 -1)">
		<defs>
			<filter id="Adobe_OpacityMaskFilter" filterUnits="userSpaceOnUse" x="55.351" y="70.049" width="39.05" height="46.153">
				<feColorMatrix  type="matrix" values="1 0 0 0 0  0 1 0 0 0  0 0 1 0 0  0 0 0 1 0"/>
			</filter>
		</defs>
		<mask maskUnits="userSpaceOnUse" x="55.351" y="70.049" width="39.05" height="46.153" id="b_2_">
			<g filter="url(#Adobe_OpacityMaskFilter)">
				<path id="a_2_" fill="#FFFFFF" d="M3.35,68.716h144v48h-144V68.716z"/>
			</g>
		</mask>
		<g mask="url(#b_2_)">
			<path fill="#FFFFFF" d="M77.539,109.102h7.986v-1.775h-7.986V109.102z M64.225,109.102h7.988v-1.775h-7.988V109.102z
				 M74.875,83.361c1.961,0,3.551,1.59,3.551,3.551c0,0,0,0,0,0.001c0,1.96-1.59,3.55-3.551,3.55c-1.96,0-3.549-1.59-3.549-3.55
				c0-1.961,1.589-3.55,3.549-3.55"/>
			<g transform="translate(52 .819)">
				<defs>
					<filter id="Adobe_OpacityMaskFilter_1_" filterUnits="userSpaceOnUse" x="3.351" y="69.23" width="39.05" height="46.153">
						<feColorMatrix  type="matrix" values="1 0 0 0 0  0 1 0 0 0  0 0 1 0 0  0 0 0 1 0"/>
					</filter>
				</defs>
				<mask maskUnits="userSpaceOnUse" x="3.351" y="69.23" width="39.05" height="46.153" id="d_2_">
					<g filter="url(#Adobe_OpacityMaskFilter_1_)">
						<path id="c_2_" fill="#FFFFFF" d="M42.401,115.382V69.231H3.35v46.151H42.401z"/>
					</g>
				</mask>
				<path mask="url(#d_2_)" fill="#FFFFFF" d="M40.625,103.845c0,0.49-0.396,0.888-0.885,0.888h-6.215V90.012l1.776,1.773v11.17
					h1.774v-9.394l2.771,2.768c0.502,0.504,0.78,1.175,0.78,1.887L40.625,103.845L40.625,103.845z M33.525,107.395
					c0,0.489-0.396,0.886-0.886,0.887h-7.101v-1.773h7.986L33.525,107.395L33.525,107.395z M29.976,110.945
					c0,0.49-0.396,0.888-0.888,0.888h-3.549v-1.776h4.438L29.976,110.945L29.976,110.945z M23.764,112.72
					c-0.023,0.49-0.439,0.869-0.93,0.846c-0.459-0.021-0.824-0.388-0.846-0.846v-12.426c0.022-0.491,0.439-0.869,0.93-0.847
					c0.457,0.022,0.824,0.389,0.846,0.847V112.72z M15.775,110.945v-0.888h4.438v1.775h-3.551
					C16.172,111.832,15.775,111.435,15.775,110.945z M13.113,108.282c-0.49-0.001-0.887-0.396-0.889-0.886v-0.888h7.988v1.773
					L13.113,108.282L13.113,108.282z M6.013,104.732c-0.489-0.001-0.886-0.397-0.888-0.887v-5.63c0-0.711,0.276-1.38,0.781-1.886
					l2.77-2.768v9.395h1.773V91.785l1.775-1.774v14.72L6.013,104.732L6.013,104.732z M22.875,71.006
					c5.506,0,8.877,9.193,8.877,14.199v15.977h-3.551v1.774h3.551v1.776h-6.213v-4.438c-0.002-1.471-1.193-2.661-2.664-2.662
					c-1.469,0.001-2.66,1.192-2.662,2.662v4.438H14v-1.777h3.55v-1.774H14V85.205C14,80.2,17.371,71.006,22.875,71.006z
					 M41.1,95.076l-7.574-7.574v-2.296c0-5.575-3.656-15.976-10.65-15.976c-6.993,0-10.65,10.4-10.65,15.976v2.296l-7.573,7.574
					c-0.835,0.831-1.304,1.962-1.302,3.141v5.629c0.001,1.47,1.193,2.662,2.663,2.663h4.437v0.888
					c0.004,1.469,1.194,2.658,2.664,2.66H14v0.889c0.002,1.47,1.192,2.66,2.662,2.663h3.713c0.375,1.061,1.376,1.771,2.5,1.774
					c1.125-0.003,2.127-0.714,2.5-1.774h3.713c1.471-0.002,2.662-1.193,2.664-2.663v-0.888h0.888
					c1.469-0.003,2.659-1.192,2.662-2.661v-0.888h4.438c1.469-0.003,2.66-1.193,2.661-2.663v-5.63
					C42.404,97.036,41.936,95.906,41.1,95.076L41.1,95.076z"/>
			</g>
			<path fill="#FFFFFF" d="M74.875,84.25c1.471,0.002,2.662,1.192,2.664,2.662c-0.002,1.47-1.193,2.661-2.664,2.663
				c-1.469-0.002-2.66-1.193-2.662-2.663C72.215,85.442,73.406,84.252,74.875,84.25 M74.875,91.351
				c2.451-0.003,4.437-1.988,4.438-4.438c-0.003-2.45-1.988-4.436-4.438-4.438c-2.449,0.003-4.434,1.988-4.437,4.438
				C70.44,89.362,72.426,91.349,74.875,91.351"/>
		</g>
	</g>
</g>
<g>
	<path fill="#0053FB" stroke="#231E9C" stroke-width="3" d="M33.322,326.397c2.647,4.363,0.287,9.601-1.187,14.545
		c-1.473,4.943-0.287,8.147,4.72,7.568c6.483-0.591,8.843-1.75,13.851-1.75c5.309,0,6.482,1.75,6.781,3.204
		c0.288,2.034-0.886,3.193-0.886,4.364c0,1.159,4.421,1.739,4.421,5.523c0,4.068-3.535,3.784-3.535,4.943
		c0,1.17,2.948,1.75,2.948,4.943c0,3.205-4.134,3.5-4.134,4.955c0,1.454,1.474,1.738,1.474,3.772c0,2.046-4.121,6.41-18.858,6.41
		c-25.053-0.297-22.105-6.115-33.895-6.115v-21.817c6.194,0,5.895-5.24,10.016-9.307c4.134-4.364,9.73-13.966,11.203-21.239
		C27.427,321.453,31.848,323.782,33.322,326.397L33.322,326.397z"/>
</g>
<g>
	<g transform="translate(-52 -1)">
		<defs>
			<filter id="Adobe_OpacityMaskFilter_2_" filterUnits="userSpaceOnUse" x="56.637" y="6.311" width="39.052" height="46.152">
				<feColorMatrix  type="matrix" values="1 0 0 0 0  0 1 0 0 0  0 0 1 0 0  0 0 0 1 0"/>
			</filter>
		</defs>
		<mask maskUnits="userSpaceOnUse" x="56.637" y="6.311" width="39.052" height="46.152" id="b_5_">
			<g filter="url(#Adobe_OpacityMaskFilter_2_)">
				<path id="a_5_" fill="#FFFFFF" d="M4.637,4.978h144v48h-144V4.978z"/>
			</g>
		</mask>
		<g mask="url(#b_5_)">
			<path fill="#326FF9" d="M78.827,45.364h7.986v-1.776h-7.986V45.364z M65.512,45.364H73.5v-1.776h-7.988V45.364z M76.163,19.624
				c1.96,0,3.55,1.589,3.55,3.55v0.001c0,1.96-1.59,3.55-3.55,3.55s-3.55-1.589-3.55-3.55S74.203,19.625,76.163,19.624"/>
			<g transform="translate(52 .819)">
				<defs>
					<filter id="Adobe_OpacityMaskFilter_3_" filterUnits="userSpaceOnUse" x="4.637" y="5.492" width="39.052" height="46.152">
						<feColorMatrix  type="matrix" values="1 0 0 0 0  0 1 0 0 0  0 0 1 0 0  0 0 0 1 0"/>
					</filter>
				</defs>
				<mask maskUnits="userSpaceOnUse" x="4.637" y="5.492" width="39.052" height="46.152" id="d_5_">
					<g filter="url(#Adobe_OpacityMaskFilter_3_)">
						<path id="c_5_" fill="#FFFFFF" d="M43.689,51.644V5.493H4.637v46.151H43.689z"/>
					</g>
				</mask>
				<path mask="url(#d_5_)" fill="#231E9C" d="M41.913,40.107c0,0.49-0.396,0.888-0.885,0.888h-6.215V26.274l1.776,1.774v11.17
					h1.774v-9.394l2.771,2.768c0.502,0.504,0.78,1.174,0.78,1.886L41.913,40.107L41.913,40.107z M34.813,43.657
					c0,0.489-0.396,0.886-0.886,0.887h-7.101V42.77h7.986L34.813,43.657L34.813,43.657z M31.263,47.207
					c0,0.49-0.396,0.888-0.888,0.888h-3.549v-1.777h4.438L31.263,47.207L31.263,47.207z M25.051,48.982
					c-0.023,0.49-0.44,0.869-0.93,0.846c-0.458-0.022-0.824-0.388-0.846-0.846V36.556c0.023-0.49,0.439-0.869,0.93-0.846
					c0.458,0.021,0.824,0.388,0.846,0.846V48.982z M17.063,47.207v-0.888H21.5v1.776h-3.55
					C17.46,48.095,17.063,47.697,17.063,47.207z M14.4,44.544c-0.489-0.001-0.886-0.396-0.888-0.886V42.77H21.5v1.774H14.4z
					 M7.3,40.994c-0.49-0.001-0.886-0.397-0.888-0.887v-5.63c0-0.711,0.277-1.38,0.781-1.885l2.77-2.768v9.395h1.774V28.048
					l1.775-1.775v14.72L7.3,40.994L7.3,40.994z M24.163,7.268c5.505,0,8.876,9.194,8.876,14.2v15.976h-3.551v1.775h3.551v1.776
					h-6.213v-4.439c-0.002-1.47-1.194-2.66-2.664-2.662c-1.47,0.002-2.661,1.192-2.663,2.662v4.439h-6.213v-1.777h3.55v-1.775h-3.55
					V21.468C15.287,16.462,18.659,7.268,24.163,7.268z M42.387,31.338l-7.574-7.575v-2.295c0-5.576-3.656-15.976-10.65-15.976
					s-10.651,10.4-10.651,15.976v2.295l-7.573,7.575c-0.835,0.831-1.304,1.962-1.302,3.14v5.629c0.001,1.47,1.193,2.662,2.663,2.663
					h4.437v0.888c0.003,1.469,1.194,2.658,2.663,2.66h0.887v0.889c0.002,1.47,1.193,2.66,2.662,2.663h3.714
					c0.375,1.061,1.375,1.771,2.5,1.774c1.125-0.003,2.126-0.713,2.5-1.774h3.713c1.471-0.001,2.662-1.193,2.664-2.663v-0.888h0.888
					c1.469-0.003,2.659-1.192,2.662-2.661V42.77h4.438c1.469-0.002,2.66-1.193,2.661-2.663v-5.63
					C43.692,33.298,43.223,32.168,42.387,31.338L42.387,31.338z"/>
			</g>
			<path fill="#231E9C" d="M76.163,20.512c1.47,0.001,2.662,1.192,2.664,2.662c-0.002,1.47-1.193,2.662-2.664,2.663
				c-1.47-0.001-2.661-1.193-2.662-2.663C73.503,21.705,74.694,20.514,76.163,20.512 M76.163,27.613
				c2.451-0.002,4.436-1.988,4.438-4.439c-0.003-2.45-1.988-4.435-4.438-4.437c-2.449,0.003-4.434,1.988-4.437,4.437
				C71.728,25.625,73.713,27.611,76.163,27.613"/>
		</g>
	</g>
</g>
<g>
	<g transform="translate(-48 -7)">
		<defs>
			<filter id="Adobe_OpacityMaskFilter_4_" filterUnits="userSpaceOnUse" x="52.474" y="159.429" width="47.466" height="34.104">
				<feColorMatrix  type="matrix" values="1 0 0 0 0  0 1 0 0 0  0 0 1 0 0  0 0 0 1 0"/>
			</filter>
		</defs>
		<mask maskUnits="userSpaceOnUse" x="52.474" y="159.429" width="47.466" height="34.104" id="b_1_">
			<g filter="url(#Adobe_OpacityMaskFilter_4_)">
				<path id="a_1_" fill="#FFFFFF" d="M4.474,151.918h144v48h-144V151.918z"/>
			</g>
		</mask>
		<g mask="url(#b_1_)">
			<path fill="#FFFFFF" d="M53.474,191.918h45v-24h-45V191.918z"/>
			<g transform="translate(48 7)">
				<path fill="#326FF9" d="M50.714,185.328V161.25l-16.491,1.606c-13.872,1.364-24.43,8.788-24.43,22.474h40.919L50.714,185.328z"
					/>
				<path fill="#FFFFFF" d="M29.764,172.326l-2.539-0.641c-0.778-0.201-1.268-0.843-1.268-1.606c0-0.924,0.777-1.685,1.718-1.685
					h1.229c0.86,0,1.555,0.68,1.555,1.524c0,0.681,0.531,1.203,1.228,1.203c0.695,0,1.228-0.522,1.228-1.203
					c0-2.006-1.514-3.651-3.478-3.894v-0.522c0-0.68-0.532-1.203-1.228-1.203s-1.229,0.522-1.229,1.203v0.564
					c-1.963,0.32-3.478,2.006-3.478,4.013c0,1.885,1.31,3.492,3.152,3.973l2.537,0.601c0.778,0.201,1.269,0.844,1.269,1.607
					c0,0.922-0.778,1.685-1.719,1.685h-1.228c-0.859,0-1.555-0.683-1.555-1.525c0-0.682-0.53-1.204-1.227-1.204
					c-0.697,0-1.23,0.522-1.23,1.204c0,2.006,1.516,3.651,3.48,3.894v0.52c0,0.683,0.532,1.205,1.228,1.205s1.228-0.522,1.228-1.205
					v-0.562c1.964-0.32,3.478-2.006,3.478-4.012C32.914,174.374,31.604,172.768,29.764,172.326"/>
				<defs>
					<filter id="Adobe_OpacityMaskFilter_5_" filterUnits="userSpaceOnUse" x="4.474" y="152.429" width="47.466" height="34.104">
						<feColorMatrix  type="matrix" values="1 0 0 0 0  0 1 0 0 0  0 0 1 0 0  0 0 0 1 0"/>
					</filter>
				</defs>
				<mask maskUnits="userSpaceOnUse" x="4.474" y="152.429" width="47.466" height="34.104" id="d_1_">
					<g filter="url(#Adobe_OpacityMaskFilter_5_)">
						<path id="c_1_" fill="#FFFFFF" d="M4.474,186.533h47.468V152.43H4.474V186.533z"/>
					</g>
				</mask>
				<path mask="url(#d_1_)" fill="#231E9C" d="M6.928,184.126h42.56v-21.672H6.927L6.928,184.126L6.928,184.126z M50.714,186.533
					H5.701c-0.697,0-1.227-0.522-1.227-1.204v-24.081c0-0.683,0.53-1.203,1.227-1.203h45.013c0.695,0,1.226,0.52,1.226,1.203v24.08
					C51.94,186.01,51.41,186.532,50.714,186.533L50.714,186.533z M50.714,158.841c-15.1,0-26.107-1.363-39.692-3.773v2.57
					c0,0.682-0.532,1.204-1.228,1.204c-0.696,0-1.227-0.523-1.227-1.204v-4.014c0-0.361,0.162-0.682,0.449-0.923
					c0.286-0.241,0.655-0.322,1.022-0.241l0.37,0.08c13.913,2.448,25,3.894,40.306,3.894c0.695,0,1.226,0.522,1.226,1.203
					C51.94,158.319,51.41,158.841,50.714,158.841"/>
			</g>
		</g>
	</g>
</g>
<g>
	<g transform="translate(-5 -6)">
		<defs>
			<filter id="Adobe_OpacityMaskFilter_6_" filterUnits="userSpaceOnUse" x="11.945" y="450.923" width="13.999" height="12">
				<feColorMatrix  type="matrix" values="1 0 0 0 0  0 1 0 0 0  0 0 1 0 0  0 0 0 1 0"/>
			</filter>
		</defs>
		<mask maskUnits="userSpaceOnUse" x="11.945" y="450.923" width="13.999" height="12" id="b_3_">
			<g filter="url(#Adobe_OpacityMaskFilter_6_)">
				<circle id="a_3_" fill="#FFFFFF" cx="18.945" cy="456.923" r="12"/>
			</g>
		</mask>
		<g mask="url(#b_3_)">
			<path fill="#F7F7FB" d="M24.46,462.556H13.417c-0.615,0-1.11-0.502-1.11-1.127v-9.575c0-0.307,0.254-0.563,0.555-0.563h9.944
				c0.303,0,0.556,0.257,0.556,0.563v9.593C23.359,462.053,23.851,462.55,24.46,462.556c0.615,0,1.11-0.502,1.11-1.127v-6.191
				c-0.001-0.312-0.248-0.562-0.556-0.563H24.46"/>
			<path fill="#0053FB" d="M13.997,452.993h7.615c0.205,0,0.362,0.159,0.362,0.367v2.065c0.004,0.198-0.152,0.362-0.35,0.366
				c-0.004,0-0.009,0-0.013,0h-7.615c-0.197,0.002-0.359-0.156-0.362-0.354c0-0.007,0-0.014,0-0.018v-2.065
				C13.635,453.152,13.792,452.992,13.997,452.993L13.997,452.993z"/>
			<path fill="#DEDFE6" d="M24.46,462.556c0.615,0,1.11-0.502,1.11-1.127v-6.191c-0.001-0.312-0.248-0.562-0.556-0.563h-1.666v6.76
				C23.362,462.054,23.857,462.556,24.46,462.556L24.46,462.556z"/>
			<path fill="#0053FB" d="M24.46,462.923H13.417c-0.808,0-1.472-0.673-1.472-1.494v-9.575c0-0.515,0.41-0.931,0.917-0.931h9.944
				c0.508,0,0.918,0.416,0.918,0.93v9.593c0,0.417,0.338,0.76,0.748,0.76c0.41,0,0.748-0.343,0.748-0.76v-6.208
				c0.003-0.106-0.082-0.194-0.188-0.196c-0.002,0-0.004,0-0.005,0h-0.556c-0.197,0.002-0.359-0.156-0.361-0.354
				c0-0.004,0-0.009,0-0.013c0-0.208,0.156-0.367,0.361-0.367h0.556c0.507,0,0.917,0.416,0.917,0.935v6.191
				C25.933,462.262,25.269,462.923,24.46,462.923z M12.862,451.658c-0.106,0-0.192,0.085-0.193,0.188c0,0.002,0,0.003,0,0.005v9.592
				c0,0.417,0.338,0.76,0.748,0.76h9.788c-0.137-0.229-0.207-0.493-0.205-0.76v-9.592c0.002-0.104-0.082-0.189-0.188-0.191
				c-0.002,0-0.004,0-0.006,0L12.862,451.658L12.862,451.658z"/>
			<path fill="#0053FB" d="M16.193,458.013h-2.196c-0.197,0.002-0.359-0.151-0.362-0.354c0-0.005,0-0.01,0-0.019
				c0-0.208,0.157-0.362,0.362-0.362h2.196c0.205,0,0.362,0.155,0.362,0.362c0.006,0.197-0.15,0.362-0.348,0.368
				C16.202,458.013,16.198,458.013,16.193,458.013z M16.193,461.172h-2.196c-0.197,0.002-0.359-0.156-0.362-0.354
				c0-0.004,0-0.014,0-0.018c0-0.209,0.157-0.368,0.362-0.368h2.196c0.205,0,0.362,0.16,0.362,0.368
				c0.005,0.198-0.151,0.362-0.349,0.367C16.202,461.172,16.197,461.172,16.193,461.172z M16.193,459.581h-2.196
				c-0.197,0.002-0.359-0.156-0.362-0.354c0-0.004,0-0.009,0-0.013c0-0.208,0.157-0.368,0.362-0.368h2.196
				c0.205,0,0.362,0.16,0.362,0.368c0.005,0.198-0.151,0.362-0.349,0.367C16.202,459.581,16.197,459.581,16.193,459.581z
				 M21.599,461.221H18.22c-0.198,0.002-0.359-0.152-0.361-0.354c0-0.004,0-0.008,0-0.012v-3.368c0-0.208,0.157-0.367,0.362-0.367
				h3.38c0.203,0,0.361,0.16,0.361,0.367v3.368C21.962,461.055,21.8,461.219,21.599,461.221z M18.583,460.486h2.655v-2.637h-2.655
				V460.486z"/>
		</g>
	</g>
</g>
<g>
	<g transform="translate(-4 -5)">
		<defs>
			<filter id="Adobe_OpacityMaskFilter_7_" filterUnits="userSpaceOnUse" x="13.945" y="509.749" width="16" height="13.972">
				<feColorMatrix  type="matrix" values="1 0 0 0 0  0 1 0 0 0  0 0 1 0 0  0 0 0 1 0"/>
			</filter>
		</defs>
		<mask maskUnits="userSpaceOnUse" x="13.945" y="509.749" width="16" height="13.972" id="b_6_">
			<g filter="url(#Adobe_OpacityMaskFilter_7_)">
				<circle id="a_6_" fill="#FFFFFF" cx="21.945" cy="516.734" r="12"/>
			</g>
		</mask>
		<g mask="url(#b_6_)">
			<g transform="translate(4.414 5.404)">
				<ellipse fill="none" cx="22.593" cy="515.449" rx="2.523" ry="2.463"/>
				<ellipse fill="#0053FB" cx="12.469" cy="515.449" rx="2.524" ry="2.463"/>
				<ellipse fill="#0053FB" cx="17.531" cy="507.211" rx="2.523" ry="2.463"/>
			</g>
			<path fill="#0053FB" d="M16.883,523.721c-1.614,0-2.938-1.293-2.938-2.867c0-1.571,1.324-2.863,2.938-2.863
				c1.614,0,2.938,1.292,2.938,2.863C19.821,522.428,18.511,523.721,16.883,523.721z M16.883,518.781
				c-1.172,0-2.11,0.928-2.11,2.059c0,1.146,0.951,2.063,2.11,2.063c1.172,0,2.11-0.935,2.11-2.063
				C19.007,519.709,18.055,518.78,16.883,518.781L16.883,518.781z M27.007,523.721c-1.629,0-2.938-1.293-2.938-2.867
				c0-1.571,1.324-2.863,2.938-2.863c1.613,0,2.938,1.273,2.938,2.863C29.945,522.442,28.621,523.721,27.007,523.721z
				 M27.007,518.781c-1.172,0-2.11,0.928-2.11,2.059c0,1.146,0.95,2.063,2.11,2.063c1.172,0,2.109-0.935,2.109-2.063
				C29.117,519.709,28.166,518.78,27.007,518.781L27.007,518.781z M21.945,515.497c-1.628,0-2.938-1.293-2.938-2.868
				s1.31-2.88,2.938-2.88c1.628,0,2.938,1.292,2.938,2.867S23.573,515.496,21.945,515.497L21.945,515.497z M21.945,510.557
				c-1.172,0-2.11,0.933-2.11,2.063c0,1.144,0.951,2.06,2.11,2.06c1.159,0,2.109-0.93,2.109-2.06
				C24.054,511.485,23.116,510.556,21.945,510.557L21.945,510.557z"/>
			<path fill="#0053FB" d="M25.697,519.13c-0.146,0-0.283-0.076-0.359-0.202l-1.586-2.565c-0.117-0.186-0.064-0.427,0.115-0.54
				c0.008-0.004,0.016-0.014,0.023-0.019c0.193-0.118,0.445-0.058,0.564,0.14l1.588,2.584c0.116,0.181,0.064,0.422-0.117,0.538
				c-0.007,0.005-0.014,0.01-0.021,0.014C25.842,519.116,25.77,519.135,25.697,519.13z M19.104,517.757
				c-0.077,0.001-0.153-0.017-0.221-0.054c-0.189-0.115-0.251-0.361-0.138-0.552l1.628-2.57c0.12-0.191,0.371-0.251,0.565-0.135
				c0.188,0.11,0.25,0.355,0.138,0.551l-1.628,2.558C19.374,517.675,19.245,517.751,19.104,517.757z"/>
		</g>
	</g>
</g>
<g>
	<g transform="translate(-5 -4)">
		<defs>
			<filter id="Adobe_OpacityMaskFilter_8_" filterUnits="userSpaceOnUse" x="12.768" y="562.816" width="13.84" height="16">
				<feColorMatrix  type="matrix" values="1 0 0 0 0  0 1 0 0 0  0 0 1 0 0  0 0 0 1 0"/>
			</filter>
		</defs>
		<mask maskUnits="userSpaceOnUse" x="12.768" y="562.816" width="13.84" height="16" id="b_7_">
			<g filter="url(#Adobe_OpacityMaskFilter_8_)">
				<circle id="a_7_" fill="#FFFFFF" cx="19.688" cy="570.816" r="12"/>
			</g>
		</mask>
		<g mask="url(#b_7_)">
			<path fill="#FFFFFF" d="M24.54,578.363h-9.704c-0.875,0-1.591-0.685-1.591-1.515v-12.069c0-0.83,0.716-1.515,1.59-1.515h9.705
				c0.875,0,1.592,0.685,1.592,1.515v12.073c0,0.828-0.717,1.513-1.59,1.513L24.54,578.363z"/>
			<path fill="#0053FB" d="M19.528,576.326c-0.153,0.005-0.3-0.063-0.397-0.187l-0.938-1.188c-0.15-0.19-0.118-0.467,0.073-0.618
				c0.007-0.005,0.015-0.011,0.022-0.016c0.212-0.148,0.502-0.109,0.668,0.09l0.557,0.695l0.89-1.283
				c0.152-0.217,0.451-0.271,0.67-0.121c0.206,0.12,0.275,0.384,0.156,0.589c-0.01,0.016-0.02,0.031-0.029,0.045l-1.257,1.796
				c-0.08,0.121-0.24,0.196-0.398,0.212C19.545,576.325,19.529,576.325,19.528,576.326L19.528,576.326z M23.108,567.042h-7.159
				c-0.27,0-0.477-0.196-0.477-0.452c0-0.257,0.207-0.453,0.477-0.453h7.16c0.271,0,0.478,0.196,0.478,0.453
				C23.586,566.847,23.379,567.042,23.108,567.042z M23.108,569.307h-7.159c-0.27,0-0.477-0.191-0.477-0.447
				c0-0.262,0.207-0.453,0.477-0.453h7.16c0.271,0,0.478,0.191,0.478,0.453C23.586,569.11,23.379,569.308,23.108,569.307
				L23.108,569.307z M19.211,571.571h-3.263c-0.27,0-0.477-0.197-0.477-0.453c0-0.257,0.207-0.453,0.477-0.453h3.262
				c0.27,0,0.477,0.196,0.477,0.453S19.48,571.571,19.211,571.571L19.211,571.571z"/>
			<path fill="#0053FB" d="M24.54,578.816h-9.704c-1.146,0-2.068-0.875-2.068-1.967v-12.071c0-1.087,0.922-1.962,2.068-1.962h9.704
				c1.146,0,2.068,0.875,2.068,1.962v12.071C26.608,577.941,25.686,578.816,24.54,578.816z M14.836,563.723
				c-0.62,0-1.114,0.473-1.114,1.061v12.076c0,0.588,0.493,1.056,1.114,1.056h9.704c0.621,0,1.114-0.468,1.114-1.056V564.78
				c0-0.588-0.493-1.061-1.114-1.061L14.836,563.723L14.836,563.723z"/>
		</g>
	</g>
</g>
<g>
	<g transform="translate(-4 -4)">
		<defs>
			<filter id="Adobe_OpacityMaskFilter_9_" filterUnits="userSpaceOnUse" x="10.688" y="613.654" width="16" height="16">
				<feColorMatrix  type="matrix" values="1 0 0 0 0  0 1 0 0 0  0 0 1 0 0  0 0 0 1 0"/>
			</filter>
		</defs>
		<mask maskUnits="userSpaceOnUse" x="10.688" y="613.654" width="16" height="16" id="b_8_">
			<g filter="url(#Adobe_OpacityMaskFilter_9_)">
				<circle id="a_8_" fill="#FFFFFF" cx="18.688" cy="621.654" r="12"/>
			</g>
		</mask>
		<g mask="url(#b_8_)">
			<g transform="translate(4 4)">
				<circle fill="#FFFFFF" cx="14.688" cy="617.654" r="7.586"/>
				<path opacity="0.1" fill="#0053FB" enable-background="new    " d="M14.688,610.068c-0.317,0-0.634,0.022-0.952,0.055
					c3.794,0.479,6.638,3.708,6.636,7.531c-0.004,3.817-2.845,7.047-6.636,7.526c0.318,0.041,0.621,0.06,0.952,0.06
					c4.188,0.002,7.584-3.396,7.586-7.578c0-0.002,0-0.005,0-0.008c0.002-4.188-3.391-7.584-7.578-7.586
					C14.694,610.068,14.69,610.068,14.688,610.068z"/>
				<path fill="#0053FB" d="M14.688,625.654c-4.414,0-8-3.586-8-8s3.586-8,8-8s8,3.586,8,8S19.103,625.654,14.688,625.654z
					 M14.688,610.482c-3.96,0.002-7.17,3.212-7.172,7.172c0.002,3.96,3.212,7.17,7.172,7.172c3.96-0.002,7.17-3.212,7.172-7.172
					C21.858,613.694,18.648,610.484,14.688,610.482z"/>
				<path fill="#0053FB" d="M14.688,612.068c-2.97-0.002-5.378,2.399-5.38,5.374c-0.001,1.051,0.306,2.079,0.883,2.957
					c0.991-1.515,2.677-2.417,4.483-2.413c1.875,0,3.532,0.966,4.483,2.414c0.582-0.875,0.889-1.902,0.883-2.952
					C20.067,614.467,17.654,612.067,14.688,612.068L14.688,612.068z M14.688,616.798c-1.108,0.004-2.01-0.892-2.014-2
					c0-0.004,0-0.009,0-0.013c0-1.117,0.897-2.014,2.014-2.014s2.014,0.896,2.014,2.014C16.701,615.896,15.8,616.798,14.688,616.798
					L14.688,616.798z"/>
				<path fill="#0053FB" d="M14.605,617.157c-1.24-0.043-2.222-1.063-2.22-2.308c0.003-1.274,1.039-2.313,2.317-2.313
					c1.277-0.001,2.314,1.033,2.316,2.31c0,0.002,0,0.005,0,0.007c0,1.2-0.938,2.207-2.139,2.308c-0.055,0-0.096,0-0.137-0.017
					C14.688,617.157,14.646,617.157,14.605,617.157L14.605,617.157z M14.688,613.364c-0.814,0-1.49,0.662-1.49,1.489
					c0,0.801,0.621,1.444,1.421,1.477c0.033-0.001,0.065,0.004,0.096,0.014c0.027-0.014,0.056-0.014,0.097-0.014
					c0.772-0.058,1.368-0.702,1.366-1.477C16.179,614.026,15.503,613.364,14.688,613.364z M18.909,620.564
					c-0.137-0.002-0.265-0.068-0.345-0.184c-1.399-2.141-4.27-2.741-6.41-1.342c-0.535,0.35-0.992,0.807-1.342,1.342
					c-0.126,0.194-0.385,0.249-0.58,0.124c-0.193-0.127-0.248-0.386-0.123-0.58c1.034-1.543,2.729-2.467,4.579-2.467
					c1.848,0,3.545,0.924,4.566,2.455c0.123,0.199,0.063,0.46-0.136,0.584C19.056,620.541,18.983,620.563,18.909,620.564
					L18.909,620.564z"/>
			</g>
		</g>
	</g>
</g>
<g>
	<g transform="translate(-6 -4)">
		<defs>
			<filter id="Adobe_OpacityMaskFilter_10_" filterUnits="userSpaceOnUse" x="14.155" y="687.399" width="11.637" height="16.004">
				<feColorMatrix  type="matrix" values="1 0 0 0 0  0 1 0 0 0  0 0 1 0 0  0 0 0 1 0"/>
			</filter>
		</defs>
		<mask maskUnits="userSpaceOnUse" x="14.155" y="687.399" width="11.637" height="16.004" id="b_9_">
			<g filter="url(#Adobe_OpacityMaskFilter_10_)">
				<circle id="a_9_" fill="#FFFFFF" cx="20.156" cy="695.399" r="12"/>
			</g>
		</mask>
		<g mask="url(#b_9_)">
			<path fill="#0053FB" d="M24.337,688.854H20.7c-0.002,0.4-0.326,0.729-0.727,0.729c-0.401-0.002-0.725-0.326-0.727-0.729H15.61
				c-0.8,0-1.455,0.654-1.455,1.454v11.641c0,0.8,0.655,1.455,1.455,1.455h8.727c0.801,0,1.455-0.655,1.455-1.455V690.31
				C25.792,689.509,25.138,688.855,24.337,688.854L24.337,688.854z"/>
			<path fill="#FFFFFF" d="M24.337,702.31H15.61c-0.219,0-0.364-0.146-0.364-0.36v-11.64c0-0.219,0.145-0.359,0.364-0.359h8.727
				c0.219,0,0.363,0.146,0.363,0.359v11.641C24.701,702.165,24.556,702.31,24.337,702.31z"/>
			<path fill="#0053FB" d="M20.701,688.854c-0.002,0.4-0.326,0.729-0.727,0.729c-0.401-0.002-0.725-0.326-0.727-0.729h-2.546v1.454
				c0,0.399,0.328,0.729,0.728,0.729h5.09c0.4-0.001,0.727-0.325,0.728-0.729v-1.454H20.701z"/>
			<path fill="#0053FB" d="M19.974,687.399c-0.8,0-1.454,0.65-1.454,1.45c0,0.805,0.654,1.454,1.454,1.454
				c0.8,0,1.456-0.649,1.456-1.454C21.43,688.054,20.774,687.399,19.974,687.399z M19.974,689.581
				c-0.401-0.002-0.725-0.326-0.727-0.729c0-0.396,0.327-0.729,0.727-0.729s0.727,0.328,0.727,0.729
				C20.699,689.255,20.375,689.579,19.974,689.581z M22.882,696.489c0,1.6-1.309,2.91-2.909,2.91s-2.909-1.313-2.909-2.91
				c0-1.604,1.31-2.908,2.91-2.908C21.575,693.581,22.882,694.891,22.882,696.489"/>
			<path fill="#FFFFFF" d="M19.653,697.956l-1.39-1.39l0.514-0.52l0.882,0.882l1.697-1.653l0.509,0.521L19.653,697.956z"/>
		</g>
	</g>
</g>
<g>
	<g transform="translate(-4 -6)">
		<defs>
			<filter id="Adobe_OpacityMaskFilter_11_" filterUnits="userSpaceOnUse" x="11.748" y="658.657" width="15.757" height="11.856">
				<feColorMatrix  type="matrix" values="1 0 0 0 0  0 1 0 0 0  0 0 1 0 0  0 0 0 1 0"/>
			</filter>
		</defs>
		<mask maskUnits="userSpaceOnUse" x="11.748" y="658.657" width="15.757" height="11.856" id="b_11_">
			<g filter="url(#Adobe_OpacityMaskFilter_11_)">
				<circle id="a_11_" fill="#FFFFFF" cx="19.635" cy="664.589" r="12"/>
			</g>
		</mask>
		<g mask="url(#b_11_)">
			<path fill="#7A9FEB" d="M17.179,659.189l-3.734,2.605c-0.702,0.345-0.323,1.365,0,2.115l2.512,2.685l8.729,3.45l2.387-7.05
				L17.179,659.189z M16.028,663.915c-0.547-0.21-0.828-0.855-0.632-1.44c0.197-0.585,0.8-0.885,1.348-0.675
				c0.547,0.21,0.828,0.855,0.631,1.44C17.179,663.824,16.575,664.139,16.028,663.915z"/>
			<path opacity="0.1" fill="#7A9FEB" enable-background="new    " d="M13.445,661.799c-0.701,0.345-0.322,1.365,0,2.115
				l2.513,2.685l3.031,1.2h6.457l1.628-4.8l-9.895-3.81L13.445,661.799z M17.375,663.239c-0.196,0.585-0.8,0.885-1.347,0.675
				c-0.547-0.21-0.828-0.855-0.632-1.44c0.197-0.585,0.8-0.885,1.348-0.675C17.291,662.024,17.572,662.669,17.375,663.239z"/>
			<path fill="#0053FB" d="M24.688,670.514c-0.058,0-0.1-0.015-0.141-0.025l-8.729-3.45c-0.057-0.03-0.113-0.063-0.155-0.105
				l-2.512-2.685c-0.082-0.084-0.128-0.198-0.127-0.315v-2.13c0-0.146,0.07-0.3,0.197-0.375l3.733-2.625
				c0.112-0.075,0.253-0.091,0.38-0.045l9.893,3.825c0.099,0.045,0.196,0.12,0.239,0.225c0.047,0.109,0.052,0.232,0.015,0.349
				l-2.387,7.051c-0.032,0.114-0.115,0.208-0.225,0.255C24.817,670.494,24.754,670.515,24.688,670.514z M16.196,666.224l8.238,3.255
				l2.105-6.21l-9.305-3.6l-3.368,2.37v1.695L16.196,666.224L16.196,666.224z"/>
			<path fill="#7A9FEB" d="M15.958,659.114l-2.513,2.685c-0.547,0.604-0.547,1.521,0,2.115l2.512,2.685h10.526v-7.5H15.958V659.114z
				 M16.378,663.989c-0.575,0-1.052-0.511-1.052-1.125c0-0.615,0.477-1.125,1.053-1.125c0.575,0,1.052,0.51,1.052,1.125
				C17.431,663.479,16.968,663.989,16.378,663.989L16.378,663.989z"/>
			<path fill="#0053FB" d="M26.485,667.064H15.957c-0.114,0.002-0.222-0.052-0.295-0.14l-2.512-2.685
				c-0.349-0.374-0.541-0.869-0.534-1.38c0-0.525,0.197-1.005,0.534-1.38l2.513-2.688c0.074-0.085,0.182-0.135,0.295-0.135h10.526
				c0.238,0,0.421,0.194,0.421,0.45v7.5C26.905,666.87,26.723,667.064,26.485,667.064z M16.14,666.165h9.937v-6.6H16.14l-2.4,2.55
				c-0.182,0.19-0.28,0.465-0.28,0.75s0.098,0.54,0.28,0.73L16.14,666.165z"/>
			<path fill="#FFFFFF" d="M23.677,662.564h-3.509c-0.238,0-0.42-0.195-0.42-0.45s0.182-0.45,0.42-0.45h3.51
				c0.238,0,0.42,0.195,0.42,0.45C24.098,662.37,23.916,662.564,23.677,662.564L23.677,662.564z M23.677,664.064h-3.509
				c-0.238,0-0.42-0.195-0.42-0.45s0.182-0.45,0.42-0.45h3.51c0.238,0,0.42,0.195,0.42,0.45
				C24.098,663.87,23.916,664.064,23.677,664.064L23.677,664.064z"/>
			<path fill="#7A9FEB" d="M12.168,667.814c-0.113,0-0.22-0.055-0.294-0.14c-0.168-0.176-0.168-0.454,0-0.63l1.277-1.365
				c0.168-0.18,0.435-0.18,0.59,0c0.168,0.182,0.168,0.454,0,0.635l-1.279,1.36C12.39,667.767,12.281,667.817,12.168,667.814
				L12.168,667.814z"/>
		</g>
	</g>
</g>
<g>
	<title>82C74CE2-61A9-42E9-9F02-6A6999CD8024</title>
	<desc>Created with sketchtool.</desc>
	<g id="Page-1">
		<g id="Page-22" transform="translate(-1185.000000, -167.000000)">
			<g id="icons8-bitcoin" transform="translate(1185.000000, 167.000000)">
				<path id="Shape" fill="#FFC107" d="M36.945,750.055c0,8.835-7.165,16-16,16s-16-7.165-16-16s7.165-16,16-16
					S36.945,741.22,36.945,750.055z"/>
				<path id="Shape_1_" fill="#FFF8E1" d="M15.345,758.055v-16h6.559c1.928,0,3.387,0.372,4.385,1.116
					c0.996,0.743,1.493,1.834,1.493,3.271c0,0.779-0.2,1.475-0.597,2.067c-0.4,0.602-0.956,1.034-1.669,1.313
					c0.813,0.207,1.452,0.619,1.921,1.244c0.471,0.62,0.708,1.38,0.708,2.278c0,1.537-0.487,2.703-1.462,3.494
					c-0.977,0.79-2.363,1.193-4.166,1.209L15.345,758.055L15.345,758.055z M18.545,748.455h3.49c1.65-0.028,2.479-0.66,2.479-1.957
					c0-0.725-0.209-1.246-0.627-1.564c-0.419-0.313-1.079-0.479-1.982-0.479h-3.359L18.545,748.455L18.545,748.455z M18.545,750.854
					v4.805h3.875c0.77,0,2.525-0.375,2.525-2.087s-0.894-2.69-2.4-2.714L18.545,750.854L18.545,750.854z"/>
				<polygon id="Shape_2_" fill="#FFF8E1" points="17.745,739.654 20.145,739.654 20.145,743.654 17.745,743.654 				"/>
				<polygon id="Shape_3_" fill="#FFF8E1" points="21.745,739.654 24.145,739.654 24.145,743.654 21.745,743.654 				"/>
				<polygon id="Shape_4_" fill="#FFF8E1" points="17.745,756.455 20.145,756.455 20.145,760.455 17.745,760.455 				"/>
				<polygon id="Shape_5_" fill="#FFF8E1" points="21.745,756.455 24.145,756.455 24.145,760.455 21.745,760.455 				"/>
			</g>
		</g>
	</g>
</g>
<g>
	<title>B58FDBBF-0F8A-436C-92A6-B016EE446E40</title>
	<desc>Created with sketchtool.</desc>
	<g id="Page-1_1_">
		<g id="Page-22_1_" transform="translate(-856.000000, -163.000000)">
			<g id="icons8-ethereum" transform="translate(856.000000, 163.000000)">
				<polygon id="Shape_11_" fill="#9FA8DA" points="4.921,824.036 15.421,808.036 25.921,824.036 15.421,829.854 				"/>
				<polygon id="Shape_10_" fill="#7986CB" points="15.421,808.036 25.921,824.036 15.421,829.854 				"/>
				<polygon id="Shape_9_" fill="#9FA8DA" points="4.921,826.218 15.421,832.036 25.921,826.218 15.421,840.036 				"/>
				<polygon id="Shape_8_" fill="#7986CB" points="15.421,832.036 25.921,826.218 15.421,840.036 				"/>
				<polygon id="Shape_7_" fill="#7986CB" points="4.921,824.036 15.421,819.673 25.921,824.036 15.421,829.854 				"/>
				<polygon id="Shape_6_" fill="#5C6BC0" points="15.421,819.673 25.921,824.036 15.421,829.854 				"/>
			</g>
		</g>
	</g>
</g>
<g>
	<title>B9B44CA0-3505-45B2-99DA-1A9D42B64CEA</title>
	<desc>Created with sketchtool.</desc>
	<g id="Page-1_2_">
		<g id="Page-22_2_" transform="translate(-511.000000, -170.000000)">
			<g id="Group-41" transform="translate(511.000000, 170.000000)">
				<path id="Fill-9" fill="#23CF5F" d="M36.338,891.946l-1.017,1.021c-1.649,1.665-3.307,3.324-4.959,4.985
					c-0.049,0.05-0.064,0.087-0.064,0.157c0,0.064,0.016,0.104,0.064,0.151l2.32,2.331c0.085,0.084,0.225,0.084,0.309-0.001
					c1.99-2.001,3.985-3.999,5.973-6.004c0.34-0.344,0.895-0.344,1.234,0l3.942,3.979c0.341,0.344,0.341,0.898,0,1.243l-1.187,1.196
					c-0.084,0.085-0.084,0.229,0,0.313l2.316,2.337c0.085,0.084,0.225,0.084,0.309,0l1.188-1.198c1.783-1.8,1.783-4.745,0-6.545
					l-3.943-3.979C41.041,890.146,38.121,890.146,36.338,891.946"/>
				<path id="Fill-11" fill="#2B3E51" d="M28.761,906.11l3.967,3.979c1.785,1.795,4.701,1.801,6.484,0l3.293-3.324
					c0.084-0.086,0.084-0.227,0-0.313l-2.316-2.336c-0.084-0.086-0.225-0.086-0.309,0l-3.295,3.322
					c-0.34,0.342-0.894,0.344-1.233,0.002l-4.958-4.987c-0.963-0.968-1.646-1.388-2.25-1.415c-0.603,0.027-1.287,0.447-2.249,1.415
					l-4.958,4.987c-0.34,0.342-0.894,0.34-1.234-0.002l-3.294-3.322c-0.084-0.086-0.225-0.086-0.309,0l-2.316,2.336
					c-0.084,0.086-0.084,0.227,0,0.313l3.293,3.324c1.783,1.801,4.699,1.795,6.485,0l3.967-3.979
					c0.169-0.17,0.393-0.261,0.616-0.261S28.591,905.94,28.761,906.11z"/>
				<path id="Fill-13" fill="#23CF5F" d="M19.951,891.946c-1.783-1.8-4.703-1.8-6.485,0l-3.942,3.979
					c-1.784,1.8-1.784,4.745,0,6.545l1.186,1.197c0.084,0.086,0.225,0.086,0.309,0l2.316-2.336c0.084-0.085,0.084-0.228,0-0.313
					l-1.187-1.193c-0.34-0.346-0.34-0.902,0-1.246l3.942-3.979c0.34-0.344,0.895-0.344,1.235,0c1.987,2.008,3.981,4.003,5.973,6.006
					c0.084,0.086,0.224,0.086,0.308,0.002l2.321-2.33c0.049-0.054,0.064-0.091,0.064-0.155c0-0.07-0.015-0.107-0.064-0.157
					c-1.654-1.661-3.311-3.319-4.96-4.983L19.951,891.946z"/>
			</g>
		</g>
	</g>
</g>
<g>
	<path fill="#E8E8E8" d="M27.089,986.239c0,0.271-0.22,0.492-0.492,0.492H7.581c-0.272,0-0.492-0.224-0.492-0.492v-18.896
		c0-0.271,0.22-0.492,0.492-0.492h19.016c0.272,0,0.492,0.224,0.492,0.492V986.239z"/>
</g>
<g>
	<path fill="#4A4A4A" d="M30.671,1046.209c0,0.271-0.22,0.492-0.492,0.492H11.163c-0.272,0-0.492-0.221-0.492-0.492v-18.893
		c0-0.271,0.22-0.492,0.492-0.492h19.016c0.272,0,0.492,0.221,0.492,0.492V1046.209z"/>
	<polyline fill="none" stroke="#FFFFFF" stroke-width="3" stroke-linecap="square" stroke-miterlimit="10" points="15.225,1036.855 
		18.917,1040.733 26.732,1032.487 	"/>
</g>
<g>
	<path d="M15.976,1094.288l-0.898,0.896l5.003,5.002l-5.033,5.043l0.888,0.892l5.043-5.033l5.033,5.033l0.898-0.898l-5.033-5.03
		l5.003-5.002l-0.898-0.896l-5.003,5.002L15.976,1094.288z"/>
</g>
<g>
	<g>
		<path fill="#FFFFFF" d="M25.956,1151.223H15.722c-0.76,0-1.383-0.569-1.383-1.272v-8.685c0-0.7,0.622-1.272,1.383-1.272h10.234
			c0.76,0,1.383,0.572,1.383,1.272v8.685C27.338,1150.649,26.716,1151.223,25.956,1151.223z"/>
		<path fill="#0053FB" d="M27.559,1143.18h-13.16c-0.238,0-0.42-0.164-0.42-0.383c0-0.217,0.182-0.383,0.42-0.383h13.16
			c0.238,0,0.42,0.166,0.42,0.383C27.979,1143.016,27.796,1143.18,27.559,1143.18z M17.738,1141.776
			c-0.097,0.002-0.19-0.039-0.252-0.115c-0.072-0.07-0.111-0.166-0.108-0.271c0-0.102,0.036-0.201,0.108-0.268
			c0.138-0.141,0.362-0.141,0.501-0.004c0.001,0,0.002,0.002,0.003,0.004c0.07,0.07,0.108,0.168,0.108,0.268
			c0.003,0.104-0.036,0.197-0.108,0.271C17.929,1141.737,17.835,1141.778,17.738,1141.776z M20.979,1141.776
			c-0.097,0.002-0.19-0.039-0.252-0.115c-0.072-0.07-0.111-0.166-0.108-0.271c0-0.102,0.036-0.201,0.108-0.268
			c0.137-0.141,0.361-0.141,0.5-0.004c0.001,0,0.002,0.002,0.003,0.004c0.07,0.07,0.109,0.168,0.108,0.268
			c0.003,0.104-0.036,0.197-0.108,0.271C21.168,1141.737,21.076,1141.778,20.979,1141.776z M24.579,1141.776
			c-0.097,0.002-0.19-0.039-0.252-0.115c-0.072-0.07-0.111-0.166-0.108-0.271c0-0.102,0.036-0.201,0.108-0.268
			c0.137-0.141,0.361-0.141,0.5-0.004c0.001,0,0.002,0.002,0.003,0.004c0.07,0.07,0.108,0.168,0.108,0.268
			c0.003,0.104-0.036,0.197-0.108,0.271C24.769,1141.737,24.676,1141.778,24.579,1141.776z"/>
		<path fill="#0053FB" d="M26.159,1151.605h-10.36c-1.008,0-1.82-0.739-1.82-1.659v-8.683c0-0.92,0.812-1.66,1.82-1.66h10.36
			c1.008,0,1.82,0.74,1.82,1.66v8.683C27.979,1150.866,27.167,1151.605,26.159,1151.605z M15.798,1140.372
			c-0.546,0-0.98,0.396-0.98,0.895v8.685c0,0.498,0.434,0.895,0.98,0.895h10.36c0.546,0,0.98-0.396,0.98-0.895v-8.685
			c0-0.498-0.434-0.895-0.98-0.895H15.798z"/>
		<g>
			<path fill="#0053FB" d="M19.778,1144.075h2.4v2.553h-2.4V1144.075z M16.539,1144.075h2.4v2.553h-2.4V1144.075z M23.019,1144.075
				h2.4v2.553h-2.4V1144.075z M19.778,1147.521h2.4v2.554h-2.4V1147.521z M16.539,1147.521h2.4v2.554h-2.4V1147.521z
				 M23.019,1147.521h2.4v2.554h-2.4V1147.521z"/>
		</g>
	</g>
</g>
<g>
	<g transform="translate(0 1)">
		<path fill="#FFFFFF" stroke="#231E9C" d="M9.608,1215.276l3.066-17.377c0.178-0.957,1.09-1.603,2.046-1.423l17.354,3.064
			c0.957,0.178,1.601,1.09,1.424,2.045l-3.068,17.377c-0.178,0.957-1.089,1.603-2.044,1.424l-17.356-3.063
			C10.074,1217.167,9.43,1216.233,9.608,1215.276z"/>
		<path fill="#FFFFFF" d="M28.43,1219.344H10.786c-0.968-0.002-1.753-0.787-1.756-1.756v-17.645c0-0.98,0.8-1.756,1.756-1.756H28.43
			c0.979,0,1.756,0.801,1.756,1.756v17.645C30.208,1218.564,29.409,1219.342,28.43,1219.344L28.43,1219.344z"/>
		<path fill="#FFFFFF" d="M26.741,1213.188H12.63c-0.969-0.002-1.754-0.784-1.756-1.756v-9.729c0-0.98,0.8-1.758,1.756-1.758h14.11
			c0.979,0,1.756,0.801,1.756,1.758v9.709C28.497,1212.389,27.719,1213.188,26.741,1213.188z"/>
		<path fill="#326FF9" d="M12.63,1213.188h6.889l-4.067-4.864l-3.555,4.711C12.119,1213.122,12.363,1213.188,12.63,1213.188z"/>
		<path fill="#326FF9" d="M17.208,1213.188h9.533c0.367-0.006,0.724-0.118,1.022-0.334l-5.267-7L17.208,1213.188L17.208,1213.188z"
			/>
		<circle fill="#FFFFFF" stroke="#231E9C" cx="18.297" cy="1204.921" r="1.333"/>
		<path fill="#231E9C" d="M28.497,1220.01H10.852c-1.336-0.002-2.418-1.086-2.422-2.422v-17.645c0.004-1.336,1.086-2.416,2.422-2.42
			h17.645c1.337,0.004,2.42,1.086,2.422,2.422v17.645C30.942,1218.922,29.852,1220.012,28.497,1220.01L28.497,1220.01z
			 M10.852,1198.854c-0.6,0-1.089,0.49-1.089,1.093v17.645c0,0.603,0.49,1.088,1.09,1.088h17.644c0.601,0,1.09-0.485,1.09-1.088
			v-17.646c0-0.603-0.49-1.09-1.09-1.09H10.852V1198.854z"/>
	</g>
</g>
<g>
	<path fill="#FFFFFF" d="M25.474,1269.25c-0.519,0.049-0.961,0.396-1.131,0.891c-0.173,0.492-0.04,1.039,0.338,1.4l4.313,4.313
		h-16.75c-0.736-0.021-1.35,0.563-1.37,1.3c-0.02,0.733,0.561,1.35,1.297,1.368c0.024,0,0.049,0,0.073,0h16.75l-4.334,4.313
		c-0.523,0.521-0.523,1.373,0,1.896c0.523,0.521,1.373,0.521,1.896,0l6.583-6.604l0.958-0.938l-0.958-0.938l-6.584-6.604
		C26.273,1269.355,25.875,1269.209,25.474,1269.25L25.474,1269.25z"/>
</g>
<g>
	<path fill="#FFFFFF" d="M27.292,1325.855c-0.148,0.021-0.292,0.063-0.426,0.132h-0.002c-0.129,0.061-0.74,0.364-1.666,0.829
		l-3.323,1.673c-2.385,1.196-4.728,2.379-4.728,2.379l0.028-0.013c0,0-0.163,0.063-0.33,0.197c-0.103,0.076-0.19,0.172-0.255,0.285
		c-0.093,0.162-0.128,0.354-0.099,0.537c0.051,0.27,0.214,0.504,0.447,0.648c0.163,0.104,0.316,0.151,0.316,0.151h0.003l2.293,0.668
		c0.118,0.332,0.81,2.301,0.974,2.754c0.098,0.271,0.189,0.438,0.297,0.564c0.05,0.063,0.112,0.116,0.183,0.157
		c0.037,0.021,0.076,0.033,0.117,0.046l-0.023-0.007c0.007,0.002,0.012,0.009,0.019,0.011c0.018,0.004,0.03,0.006,0.054,0.008
		c0.362,0.094,0.636-0.15,0.636-0.15l0.016-0.016l1.261-1.328l2.32,1.658l0.052,0.018c0.477,0.189,0.94,0.045,1.178-0.174
		c0.238-0.225,0.322-0.498,0.322-0.498l0.015-0.043l1.233-9.262c0.037-0.23,0.039-0.441-0.027-0.646
		c-0.065-0.202-0.202-0.375-0.386-0.481C27.638,1325.874,27.465,1325.838,27.292,1325.855L27.292,1325.855z M27.297,1326.84
		c0,0.029,0.005,0.027-0.005,0.088v0.006l-1.222,9.162c-0.007,0.017-0.019,0.043-0.051,0.072c-0.034,0.031-0.062,0.053-0.214-0.002
		l-2.84-2.027l-1.563,1.646l0.224-2.314l4.221-4.549c0.175-0.188,0.11-0.223,0.11-0.223c0.003-0.219-0.279-0.049-0.279-0.049
		l-5.42,3.914l-0.002-0.011l-2.739-0.799v-0.002l-0.007-0.002l0.014-0.006l0.014-0.01l0.015-0.008l4.73-2.377
		c1.193-0.603,2.396-1.205,3.321-1.673c0.926-0.463,1.609-0.807,1.648-0.821C27.288,1326.842,27.27,1326.842,27.297,1326.84
		L27.297,1326.84z"/>
</g>
<g>
	<path fill="#4A4A4A" d="M28.512,1392.172l-1.81-1.697l-4.215,3.951l-4.215-3.951l-1.81,1.697l6.025,5.648L28.512,1392.172z"/>
</g>
<g>
	<circle fill="#E2E9FA" cx="22.487" cy="1464.926" r="9"/>
	<g>
		<path fill="#326FF9" d="M20.487,1467.756l-2.624-2.508l-0.876,0.834l3.5,3.344l7.5-7.162l-0.873-0.838L20.487,1467.756z"/>
	</g>
</g>
<g>
	<circle fill="#FFF1EB" cx="22.487" cy="1525.926" r="9"/>
	<g>
		<path fill="#FF7C3F" d="M20.487,1528.756l-2.624-2.508l-0.876,0.834l3.5,3.344l7.5-7.162l-0.873-0.838L20.487,1528.756z"/>
	</g>
</g>
<g>
	<circle fill="#9EF5C4" cx="22.487" cy="1591.104" r="9"/>
	<g>
		<path fill="#26CB6D" d="M20.487,1593.934l-2.624-2.508l-0.876,0.834l3.5,3.346l7.5-7.164l-0.873-0.836L20.487,1593.934z"/>
	</g>
</g>
<g>
	<g>
		<circle fill="#008BFF" cx="36.097" cy="1688.426" r="32"/>
		<path fill="#FFFFFF" d="M46.111,1688.846l-15.244,9.785c-0.232,0.148-0.542,0.08-0.691-0.15c-0.052-0.079-0.079-0.174-0.079-0.271
			v-19.563c0-0.275,0.225-0.498,0.501-0.498c0.095,0,0.188,0.024,0.269,0.077l15.244,9.781c0.232,0.148,0.3,0.457,0.15,0.689
			C46.222,1688.756,46.171,1688.809,46.111,1688.846L46.111,1688.846z"/>
	</g>
</g>
<g>
	<title></title>
	<desc></desc>
	<g id="Page-1_3_">
		<g id="Core" transform="translate(-44.000000, -86.000000)">
			<g id="check-circle" transform="translate(44.000000, 86.000000)">
				<path id="Shape_12_" fill="#16D368" d="M30.097,1757.526c-8.8,0-16,7.198-16,16c0,8.801,7.2,16,16,16c8.8,0,16-7.199,16-16
					C46.097,1764.725,38.897,1757.526,30.097,1757.526L30.097,1757.526z M26.897,1781.526l-8-8l2.24-2.24l5.76,5.76l12.16-12.16
					l2.24,2.24L26.897,1781.526L26.897,1781.526z"/>
			</g>
		</g>
	</g>
</g>
<g>
	<path fill="#A4A8B1" d="M30.139,1856.713l1.848-1.802l-4.304-4.198l4.304-4.198l-1.848-1.802l-6.152,6L30.139,1856.713z"/>
</g>
<g>
	<path fill="#FFFFFF" d="M29.96,1913.064l-1.74,1.696l4.053,3.952l-4.053,3.952l1.74,1.696l5.793-5.648L29.96,1913.064z"/>
</g>
<g>
	<path fill="#FFFFFF" d="M34.139,1976.713l1.848-1.802l-4.304-4.198l4.304-4.198l-1.848-1.802l-6.152,6L34.139,1976.713z"/>
</g>
<g>
	<g>
		<path fill="#326FF9" d="M7.521,272.586h45v-24h-45V272.586z"/>
		<path fill="#FFFFFF" d="M52.761,272.997v-24.078l-16.491,1.606c-13.872,1.363-24.43,8.788-24.43,22.474h40.919L52.761,272.997z"/>
		<path fill="#326FF9" d="M31.811,259.995l-2.539-0.642c-0.778-0.2-1.268-0.844-1.268-1.605c0-0.924,0.777-1.686,1.718-1.686h1.229
			c0.86,0,1.555,0.681,1.555,1.524c0,0.682,0.531,1.203,1.228,1.203c0.695,0,1.228-0.521,1.228-1.203
			c0-2.006-1.514-3.651-3.478-3.894v-0.522c0-0.68-0.532-1.203-1.228-1.203c-0.696,0-1.229,0.522-1.229,1.203v0.564
			c-1.963,0.319-3.478,2.006-3.478,4.013c0,1.885,1.31,3.491,3.152,3.973l2.537,0.602c0.778,0.2,1.269,0.845,1.269,1.606
			c0,0.922-0.777,1.687-1.717,1.687h-1.23c-0.859,0-1.555-0.685-1.555-1.525c0-0.682-0.53-1.204-1.227-1.204
			c-0.697,0-1.23,0.522-1.23,1.204c0,2.006,1.516,3.65,3.48,3.896v0.52c0,0.684,0.532,1.205,1.228,1.205
			c0.697,0,1.228-0.521,1.228-1.205v-0.563c1.964-0.318,3.479-2.006,3.479-4.012C34.96,262.042,33.65,260.436,31.811,259.995"/>
		<defs>
			<filter id="Adobe_OpacityMaskFilter_12_" filterUnits="userSpaceOnUse" x="6.521" y="240.097" width="47.466" height="34.105">
				<feColorMatrix  type="matrix" values="1 0 0 0 0  0 1 0 0 0  0 0 1 0 0  0 0 0 1 0"/>
			</filter>
		</defs>
		<mask maskUnits="userSpaceOnUse" x="6.521" y="240.097" width="47.466" height="34.105" id="d_3_">
			<g filter="url(#Adobe_OpacityMaskFilter_12_)">
				<path id="c_3_" fill="#FFFFFF" d="M6.521,274.202h47.468v-34.104H6.521V274.202z"/>
			</g>
		</mask>
		<path mask="url(#d_3_)" fill="#FFFFFF" d="M8.975,271.794h42.56v-21.672H8.974L8.975,271.794L8.975,271.794z M52.761,274.202
			H7.748c-0.697,0-1.227-0.522-1.227-1.204v-24.081c0-0.683,0.53-1.203,1.227-1.203h45.013c0.695,0,1.226,0.521,1.226,1.203v24.08
			C53.986,273.678,53.456,274.201,52.761,274.202L52.761,274.202z M52.761,246.509c-15.1,0-26.107-1.363-39.692-3.772v2.569
			c0,0.683-0.532,1.204-1.228,1.204c-0.696,0-1.227-0.522-1.227-1.204v-4.014c0-0.361,0.162-0.682,0.449-0.923
			c0.286-0.241,0.655-0.322,1.022-0.241l0.37,0.08c13.913,2.448,25,3.894,40.306,3.894c0.695,0,1.226,0.522,1.226,1.203
			C53.986,245.988,53.456,246.509,52.761,246.509"/>
	</g>
</g>
<g>
	<g transform="translate(1 1)">
		<g transform="translate(6 6)">
			<circle fill="#0053FB" cx="26.097" cy="2027.713" r="6"/>
			<circle fill="#FFFFFF" cx="26.097" cy="2027.713" r="2"/>
		</g>
		<circle fill="none" stroke="#326FF9" stroke-width="2" stroke-opacity="0.24" cx="32.097" cy="2033.713" r="12"/>
	</g>
</g>
<g>
	<path fill="#D8D8D8" d="M46.809,2109.438c-0.52-0.042-1.096,0.057-1.616,0.227c-2.084,0.688-3.18,2.887-2.48,4.936l1.673,4.823
		l-9.462,3.12l-1.558-4.652c-0.7-2.05-2.935-3.127-5.019-2.439c-2.091,0.688-3.238,2.887-2.538,4.937l1.557,4.596l-4.903,1.646
		c-2.058,0.681-3.174,2.901-2.493,4.96c0.003,0.011,0.007,0.021,0.011,0.033c0.7,2.05,2.935,3.127,5.019,2.44l4.904-1.591
		l3.173,9.249l-4.73,1.532c-2.085,0.688-3.181,2.886-2.482,4.937c0.706,2.067,2.945,3.182,5.02,2.497l4.673-1.532l1.673,4.821
		c0.7,2.051,2.993,3.129,5.077,2.44c2.084-0.688,3.18-2.886,2.48-4.936l-1.616-4.823l9.405-3.12l1.558,4.652
		c0.7,2.05,2.935,3.128,5.019,2.439c2.092-0.688,3.238-2.887,2.538-4.936l-1.557-4.597l4.903-1.645
		c2.058-0.682,3.173-2.902,2.492-4.96c-0.004-0.011-0.008-0.022-0.012-0.033c-0.7-2.05-2.935-3.128-5.019-2.44l-4.904,1.59
		l-3.173-9.249l4.729-1.532c2.085-0.688,3.182-2.886,2.482-4.937c-0.708-2.065-2.945-3.178-5.021-2.495l-4.673,1.531l-1.671-4.823
		C49.754,2110.602,48.393,2109.553,46.809,2109.438z M46.866,2126.856l3.173,9.248l-9.404,3.119l-3.173-9.248L46.866,2126.856z"/>
</g>
<g>
	<path fill="#D8D8D8" d="M37.575,2283.681c0.771-0.346,1.265-1.113,1.261-1.958v-5.76c0-0.21,0.017-0.43,0.043-0.651
		c-0.015,0.004-0.029,0.008-0.043,0.011H35.08c-1.566,0-2.922-0.641-3.548-1.92c-0.73-1.387-1.044-3.733-2.922-5.014
		c-0.313-0.213-0.104-0.532,0.522-0.532c0.626,0.106,1.982,0.96,2.817,2.133c0.94,1.174,1.878,2.134,3.548,2.134
		c2.595,0,3.986-0.134,4.823-0.592c0.975-1.482,2.324-2.608,3.734-2.608v-0.027c-5.915-0.193-9.693-2.203-11.453-5.307
		c-3.824,0.045-7.154,0.432-9.054,0.754c-0.06-0.348-0.113-0.7-0.157-1.052c1.875-0.316,5.053-0.69,8.707-0.762
		c-0.117-0.297-0.218-0.599-0.303-0.906c-3.664-0.19-6.826-0.041-8.543,0.104c-0.021-0.354-0.05-0.707-0.053-1.065
		c1.72-0.145,4.796-0.288,8.366-0.118c-0.087-0.544-0.133-1.095-0.136-1.646c0-1.813,0.627-3.733,1.774-5.334
		c-0.521-1.813-1.252-5.653,0.21-7.039c2.816,0,4.8,1.386,5.738,2.239c1.773-0.748,3.756-1.175,5.947-1.175
		c2.191,0,4.174,0.427,5.843,1.174c0.94-0.854,2.923-2.24,5.74-2.24c1.565,1.493,0.729,5.334,0.208,7.04
		c1.148,1.601,1.773,3.413,1.67,5.333c0,0.517-0.047,1.015-0.115,1.504c3.651-0.185,6.811-0.036,8.561,0.108
		c-0.002,0.36-0.035,0.71-0.053,1.065c-1.744-0.147-4.983-0.298-8.723-0.096c-0.092,0.355-0.205,0.705-0.339,1.047
		c3.7,0.049,6.955,0.414,8.919,0.734c-0.045,0.354-0.096,0.705-0.156,1.052c-1.997-0.325-5.397-0.708-9.266-0.727
		c-1.737,3.07-5.447,5.072-11.246,5.306v0.033c2.714,0,5.219,4.16,5.219,7.04v5.76c0,0.878,0.52,1.632,1.26,1.958
		c9.561-3.233,16.479-12.449,16.479-23.292c0-13.526-10.766-24.532-24-24.532c-13.234,0-24,11.006-24,24.532
		C21.097,2271.231,28.015,2280.447,37.575,2283.681z"/>
</g>
<g>
	<path fill="#D8D8D8" d="M37.097,2416.197c0,1.04-0.545,1.659-1.317,1.659c-0.272,0-0.576-0.077-0.897-0.242l-12.456-6.438
		c-0.732-0.379-1.33-1.381-1.33-2.225v-31.564c0-0.834,0.433-1.326,1.054-1.326c0.218,0,0.464,0.061,0.718,0.191l0.438,0.228h0.004
		l13.728,7.097c0.022,0.014,0.04,0.037,0.058,0.055V2416.197L37.097,2416.197z M51.481,2378.053l0.841-1.409
		c0.297-0.5,0.846-0.787,1.404-0.787c0.13,0,0.264,0.018,0.393,0.055c0.1,0.021,0.201,0.059,0.309,0.114l14.479,7.482
		c0.004,0,0.004,0.004,0.004,0.004l0.014,0.005c0.008,0.004,0.008,0.019,0.018,0.023c0.07,0.059,0.102,0.16,0.053,0.241
		l-14.42,24.227l-1.473,2.47l-9.553-19.1L51.481,2378.053z M39.383,2403.396v-15.217l10.263,20.526l-9.232-4.772L39.383,2403.396z
		 M69.098,2416.196c0,0.975-0.566,1.53-1.402,1.53c-0.375,0-0.803-0.108-1.254-0.341l-2.067-1.07l-9.232-4.772l13.956-23.442
		V2416.196L69.098,2416.196z"/>
</g>
<g>
	<path fill="#D8D8D8" d="M76.096,2522.31c-1.771,0.77-3.648,1.274-5.566,1.499c1.996-1.18,3.539-3.04,4.262-5.26
		c-1.908,1.108-3.99,1.888-6.158,2.305c-1.85-1.923-4.407-3.006-7.075-2.997c-5.352,0-9.693,4.256-9.693,9.5
		c0,0.742,0.087,1.471,0.253,2.163c-7.756-0.365-15.002-3.968-19.976-9.931c-0.862,1.447-1.315,3.101-1.313,4.785
		c0,3.294,1.71,6.2,4.313,7.903c-1.537-0.045-3.042-0.452-4.392-1.188v0.12c0,4.602,3.339,8.439,7.774,9.316
		c-0.833,0.223-1.691,0.335-2.553,0.332c-0.612,0.002-1.223-0.056-1.824-0.17c1.233,3.769,4.81,6.524,9.05,6.596
		c-3.31,2.552-7.493,4.063-12.036,4.063c-0.786,0-1.55-0.042-2.308-0.127c4.45,2.795,9.601,4.272,14.856,4.262
		c17.827,0,27.576-14.476,27.576-27.021c0-0.417-0.006-0.827-0.027-1.237c1.896-1.332,3.535-2.996,4.84-4.913"/>
</g>
<g>
	<path fill="#D8D8D8" d="M76.096,2654.611c-0.297-0.232-0.703-0.267-1.035-0.087l-46.081,24.961
		c-0.334,0.18-0.528,0.543-0.491,0.922c0.033,0.378,0.288,0.7,0.649,0.817l13.099,4.275l-1.268,12.967
		c-0.043,0.411,0.187,0.802,0.566,0.964c0.12,0.057,0.252,0.083,0.379,0.083c0.273,0,0.533-0.117,0.713-0.323l8.26-9.334
		l12.44,12.264c0.18,0.176,0.42,0.273,0.667,0.273c0.086,0,0.173-0.015,0.259-0.038c0.328-0.091,0.581-0.352,0.665-0.682
		l11.52-46.08c0.092-0.366-0.043-0.753-0.344-0.982H76.096z M44.164,2685.324l18.731-15.147l-12.765,17.674l-6.986,7.887
		L44.164,2685.324z"/>
</g>
<g>
	<g>
		<path fill="#9FA8DA" d="M32.475,2811.947l10-16l10,16l-10,5.818L32.475,2811.947z"/>
		<path fill="#7986CB" d="M42.475,2795.947l10,16l-10,5.818V2795.947z"/>
		<path fill="#9FA8DA" d="M32.475,2814.129l10,5.818l10-5.818l-10,13.818L32.475,2814.129z"/>
		<path fill="#7986CB" d="M42.475,2819.947l10-5.818l-10,13.818V2819.947z M32.475,2811.947l10-4.364l10,4.364l-10,5.818
			L32.475,2811.947z"/>
		<path fill="#5C6BC0" d="M42.475,2807.583l10,4.364l-10,5.818V2807.583z"/>
	</g>
</g>
<g>
	<g>
		<path fill="#FFC107" d="M63.75,2904.456c0,8.835-7.165,16-16,16s-16-7.165-16-16s7.165-16,16-16S63.75,2895.621,63.75,2904.456z"
			/>
		<path fill="#FFF8E1" d="M42.15,2912.456v-16h6.56c1.927,0,3.386,0.372,4.383,1.116s1.494,1.834,1.494,3.269
			c0,0.784-0.2,1.476-0.597,2.072c-0.4,0.597-0.956,1.034-1.67,1.313c0.813,0.206,1.453,0.618,1.923,1.244
			c0.47,0.62,0.707,1.38,0.707,2.283c0,1.537-0.487,2.703-1.462,3.493c-0.977,0.79-2.363,1.194-4.166,1.21H42.15z M45.35,2902.856
			h3.49c1.65-0.028,2.479-0.66,2.479-1.956c0-0.726-0.209-1.247-0.627-1.566c-0.42-0.318-1.08-0.478-1.982-0.478H45.35V2902.856z
			 M45.35,2905.256v4.8h3.875c0.77,0,2.525-0.375,2.525-2.087s-0.895-2.69-2.4-2.713H45.35z"/>
		<path fill="#FFF8E1" d="M44.55,2894.056h2.4v4h-2.4V2894.056z M48.55,2894.056h2.4v4h-2.4V2894.056z M44.55,2910.856h2.4v4h-2.4
			V2910.856z M48.55,2910.856h2.4v4h-2.4V2910.856z"/>
	</g>
</g>
</svg>
