<svg xmlns="http://www.w3.org/2000/svg" width="60" height="65" viewBox="0 0 60 65">
    <path fill="#0053FB" fill-rule="nonzero" stroke="#231E9C" stroke-width="3" d="M30.3 4.91c2.647 4.363.287 9.601-1.187 14.545-1.473 4.943-.287 8.147 4.72 7.568 6.483-.591 8.843-1.75 13.851-1.75 5.308 0 6.482 1.75 6.781 3.204.288 2.034-.886 3.193-.886 4.364C53.579 34 58 34.58 58 38.364c0 4.068-3.535 3.784-3.535 4.943 0 1.17 2.948 1.75 2.948 4.943 0 3.205-4.133 3.5-4.133 4.955 0 1.454 1.473 1.738 1.473 3.772 0 2.046-4.121 6.41-18.858 6.41C10.842 63.09 13.789 57.272 2 57.272V35.455c6.194 0 5.895-5.24 10.016-9.307 4.134-4.364 9.73-13.966 11.203-21.239 1.186-4.943 5.607-2.614 7.08 0z"/>
</svg>
