<svg xmlns="http://www.w3.org/2000/svg" width="50" height="50" viewBox="0 0 50 50">
    <g fill="none" fill-rule="nonzero">
        <path fill="#FFF" d="M48.29 27.974c-.427 11.164-9.444 20.259-20.512 20.69-12.222.474-22.222-9.31-22.222-21.509H22.65c2.35 0 4.273-1.94 4.273-4.31V5.603c12.094 0 21.795 10.087 21.368 22.371z"/>
        <path fill="#0053FB" d="M22.65 28.448h-4.274c-.726 0-1.282-.56-1.282-1.293 0-.733.556-1.293 1.282-1.293h4.274c1.666 0 2.991-1.336 2.991-3.017V5.603c0-.732.556-1.293 1.282-1.293.727 0 1.282.56 1.282 1.293v17.242c0 3.103-2.479 5.603-5.555 5.603z"/>
        <path fill="#0053FB" d="M39.744 9.914a21.514 21.514 0 0 1 4.273 12.93c0 11.897-9.573 21.553-21.367 21.553-4.83 0-9.231-1.595-12.82-4.31 3.888 5.215 10.085 8.62 17.093 8.62 11.795 0 21.368-9.655 21.368-21.552a21.592 21.592 0 0 0-8.547-17.241z"/>
        <path fill="#231E9C" d="M26.923 50c-5.897 0-11.453-2.241-15.684-6.38-4.487-4.353-6.965-10.215-6.965-16.465 0-.733.555-1.293 1.282-1.293.726 0 1.282.56 1.282 1.293 0 5.56 2.18 10.733 6.153 14.612 3.975 3.836 9.188 5.862 14.701 5.647 10.428-.431 18.89-8.966 19.317-19.483.213-5.56-1.795-10.819-5.599-14.828-3.846-4.008-8.974-6.206-14.487-6.206-.726 0-1.282-.56-1.282-1.294 0-.732.556-1.293 1.282-1.293 6.197 0 12.009 2.5 16.325 6.983 4.316 4.526 6.538 10.474 6.325 16.724-.428 11.854-10 21.509-21.752 21.94-.3.043-.599.043-.898.043z"/>
        <path fill="#0053FB" d="M22.65 1.293c-11.795 0-21.368 9.655-21.368 21.552h17.094c2.35 0 4.274-1.94 4.274-4.31V1.292z"/>
        <path fill="#231E9C" d="M1.282 24.138c-.726 0-1.282-.56-1.282-1.293C0 10.259 10.17 0 22.65 0c.726 0 1.282.56 1.282 1.293 0 .733-.556 1.293-1.282 1.293-11.069 0-20.086 9.095-20.086 20.259 0 .733-.555 1.293-1.282 1.293z"/>
        <path fill="#326FF9" d="M11.966 28.448c-.342 0-.684-.129-.898-.388-.256-.215-.384-.56-.384-.905s.128-.69.384-.905c.47-.474 1.325-.474 1.795 0 .257.259.385.56.385.905s-.128.69-.385.905c-.213.259-.555.388-.897.388z"/>
    </g>
</svg>
