<svg xmlns="http://www.w3.org/2000/svg" xmlns:xlink="http://www.w3.org/1999/xlink" width="50" height="49" viewBox="0 0 50 49">
    <defs>
        <path id="a" d="M.632.218h2.82v2.76H.632V.218z"/>
    </defs>
    <g fill="none" fill-rule="evenodd">
        <path fill="#FFF" d="M16.313 24.446c0-4.6 3.808-8.373 8.555-8.373s8.554 3.772 8.554 8.373c0 4.6-3.807 8.373-8.554 8.373s-8.555-3.773-8.555-8.373m20.917 0c0-6.671-5.546-12.1-12.362-12.1-6.815 0-12.362 5.429-12.362 12.1 0 6.67 5.547 12.1 12.362 12.1 6.816 0 12.362-5.43 12.362-12.1"/>
        <path fill="#0053FB" d="M33.422 9.955h-3.807l5.265 8.924a10.98 10.98 0 0 1 0 11.133l-5.265 8.926h3.807l8.556-14.492-8.556-14.491z"/>
        <path fill="#231E9C" d="M24.868 17.453c-3.949 0-7.145 3.128-7.145 6.993s3.196 6.993 7.145 6.993c3.949 0 7.145-3.128 7.145-6.993s-3.196-6.993-7.145-6.993m0 16.746c-5.5 0-9.965-4.371-9.965-9.753s4.465-9.753 9.965-9.753 9.965 4.371 9.965 9.753-4.465 9.753-9.965 9.753"/>
        <path fill="#231E9C" d="M17.16 37.557h15.464l7.708-13.11-7.755-13.112H17.159L9.403 24.446l7.756 13.111zm16.262 2.76H16.314a1.41 1.41 0 0 1-1.223-.69L6.537 25.136a1.44 1.44 0 0 1 0-1.38L15.09 9.265a1.41 1.41 0 0 1 1.223-.69h17.108c.518 0 .987.276 1.223.69L43.2 23.756a1.44 1.44 0 0 1 0 1.38l-8.555 14.491c-.282.414-.705.69-1.223.69zM48.37 25.872c-.799 0-1.41-.598-1.41-1.38 0-.782.611-1.38 1.41-1.38.8 0 1.41.597 1.41 1.38v.046c0 .69-.61 1.334-1.41 1.334M19.98 3.33c-.658 0-1.223-.46-1.363-1.104-.142-.736.328-1.472 1.08-1.61h.047c.753-.185 1.504.322 1.692 1.058.142.69-.329 1.426-1.08 1.61h-.047a.945.945 0 0 1-.33.046zm-4.512 1.426a1.446 1.446 0 0 1-1.316-.828c-.33-.69 0-1.518.704-1.795h.047c.705-.321 1.552 0 1.833.736.329.69 0 1.52-.752 1.795-.141.046-.33.092-.516.092zm-4.232 2.3c-.423 0-.892-.183-1.127-.598-.47-.598-.33-1.472.33-1.931l.046-.047c.61-.46 1.503-.322 1.974.322.47.598.33 1.473-.33 1.932l-.047.046c-.28.23-.563.277-.846.277zm-3.618 3.128c-.33 0-.706-.138-.987-.368a1.313 1.313 0 0 1-.048-1.932 1.427 1.427 0 0 1 1.974-.091c.565.505.612 1.38.095 1.932-.283.321-.658.46-1.034.46zm-2.869 3.773c-.234 0-.516-.046-.75-.184-.66-.414-.893-1.242-.471-1.887v-.045c.424-.644 1.27-.875 1.928-.46.657.414.892 1.242.468 1.886l-.046.046c-.187.368-.658.644-1.129.644zM2.682 18.19c-.141 0-.33-.047-.47-.093-.752-.275-1.129-1.057-.846-1.748l1.316.46-1.316-.505c.236-.737 1.081-1.105 1.787-.875.75.23 1.128 1.012.892 1.749l-.047.091c-.188.553-.753.92-1.316.92zm-1.128 4.554h-.188C.615 22.652.049 21.916.19 21.18l1.41.184-1.41-.23c.094-.737.799-1.289 1.599-1.196.75.091 1.316.781 1.221 1.518v.092c-.141.735-.753 1.196-1.457 1.196zm-.142 4.738c-.75 0-1.363-.552-1.41-1.288l1.41-.092-1.41.046a1.396 1.396 0 0 1 1.317-1.472c.751-.046 1.458.506 1.504 1.242v.092a1.401 1.401 0 0 1-1.316 1.472h-.095zM47.9 30.518c-.094 0-.188 0-.282-.045a1.358 1.358 0 0 1-1.08-1.657c.14-.736.892-1.241 1.69-1.104.753.138 1.27.874 1.081 1.61v.046c-.187.737-.798 1.15-1.409 1.15zM2.258 32.082a1.45 1.45 0 0 1-1.363-1.011l1.363-.369-1.363.369a1.422 1.422 0 0 1 .941-1.703 1.382 1.382 0 0 1 1.738.92l.048.092c.188.736-.236 1.472-.987 1.702h-.377zm44.138 2.945c-.188 0-.376-.046-.517-.093-.705-.275-1.082-1.104-.752-1.793l.047-.092c.329-.69 1.128-1.013 1.88-.69.705.321 1.033 1.104.705 1.84l-1.268-.552 1.268.552c-.282.506-.8.828-1.363.828zM4.045 36.454c-.517 0-.987-.277-1.268-.737v-.046c-.378-.69-.095-1.519.61-1.887.705-.368 1.551-.091 1.88.598v.047c.377.69.094 1.518-.611 1.886a1.481 1.481 0 0 1-.611.139zm40.001 2.668c-.283 0-.564-.093-.8-.277-.61-.46-.799-1.288-.328-1.932.47-.645 1.315-.782 1.974-.368.657.46.799 1.288.376 1.886l-.047.046c-.283.414-.705.645-1.175.645zM6.678 40.363c-.424 0-.8-.184-1.082-.506a1.317 1.317 0 0 1 .188-1.931c.611-.46 1.457-.415 1.974.183l.048.046a1.321 1.321 0 0 1-.188 1.933c-.33.184-.612.275-.94.275zm34.218 2.301c-.376 0-.751-.138-1.034-.46a1.355 1.355 0 0 1 .094-1.932 1.486 1.486 0 0 1 2.022.045c.517.552.517 1.426-.048 1.932l-.047.046c-.281.23-.658.37-.987.37zm-30.835 1.058c-.329 0-.61-.093-.892-.322h-.047c-.612-.46-.706-1.335-.236-1.933.471-.598 1.363-.689 1.974-.23l.047.046c.612.46.706 1.334.188 1.932-.188.323-.61.507-1.034.507zm27.027 1.747c-.47 0-.939-.23-1.221-.689-.423-.645-.188-1.518.47-1.887a1.426 1.426 0 0 1 1.974.46c.423.645.235 1.473-.423 1.887l-.046.045a1.64 1.64 0 0 1-.754.184zm-22.984.83c-.235 0-.423-.047-.658-.14l-.048-.045c-.704-.368-.939-1.197-.563-1.886.375-.69 1.222-.92 1.926-.552.707.368.987 1.196.612 1.886-.282.46-.752.736-1.27.736zm18.614 1.195c-.564 0-1.128-.368-1.316-.92a1.308 1.308 0 0 1 .845-1.748h.047c.752-.276 1.552.091 1.787.828a1.309 1.309 0 0 1-.847 1.748h-.047c-.14.092-.281.092-.47.092zM18.568 48c-.14 0-.28 0-.375-.046l.376-1.335-.423 1.335c-.752-.185-1.175-.965-.987-1.702.188-.736.987-1.15 1.74-.967h.094c.75.231 1.175.967.987 1.704-.236.597-.8 1.011-1.411 1.011zm9.495.598c-.704 0-1.315-.506-1.408-1.196-.095-.736.422-1.472 1.175-1.564h.047c.752-.092 1.503.414 1.597 1.196a1.4 1.4 0 0 1-1.222 1.564h-.189zm-4.746.184H23.175a1.37 1.37 0 0 1-1.316-1.472c.047-.782.706-1.334 1.504-1.288h.047c.8.045 1.363.736 1.317 1.472-.047.736-.705 1.288-1.41 1.288z"/>
        <g transform="translate(22.826 -.154)">
            <mask id="b" fill="#fff">
                <use xlink:href="#a"/>
            </mask>
            <path fill="#231E9C" d="M2.042 2.978c-.8 0-1.41-.598-1.41-1.38 0-.783.61-1.38 1.41-1.38.799 0 1.41.597 1.41 1.38 0 .782-.611 1.38-1.41 1.38" mask="url(#b)"/>
        </g>
        <path fill="#0053FB" d="M48.37 25.826c-.799 0-1.41-.598-1.41-1.38 0-11.915-9.918-21.622-22.092-21.622-.799 0-1.41-.598-1.41-1.38 0-.782.611-1.38 1.41-1.38 13.725 0 24.912 10.95 24.912 24.382 0 .782-.61 1.38-1.41 1.38"/>
    </g>
</svg>
