<svg xmlns="http://www.w3.org/2000/svg" width="50" height="50" viewBox="0 0 50 50">
    <g fill="none" fill-rule="nonzero">
        <path fill="#0053FB" d="M16.14 6.94V5.216c0-2.199 1.799-3.966 4.035-3.966h18.421c1.053 0 2.106.431 2.851 1.164l5.702 5.603a3.985 3.985 0 0 1 1.184 2.802v28.017c0 2.198-1.798 3.966-4.035 3.966h-9.912"/>
        <path fill="#231E9C" d="M44.298 44.095h-9.912c-.746 0-1.316-.56-1.316-1.293 0-.733.57-1.293 1.316-1.293h9.912c1.491 0 2.72-1.207 2.72-2.673V10.82c0-.69-.264-1.38-.79-1.897L40.526 3.32a2.823 2.823 0 0 0-1.93-.733h-18.42c-1.492 0-2.72 1.207-2.72 2.673v1.724c0 .733-.57 1.293-1.316 1.293-.745 0-1.315-.56-1.315-1.293V5.259C14.825 2.37 17.237 0 20.175 0h18.421C40 0 41.36.56 42.368 1.552l5.702 5.603a5.212 5.212 0 0 1 1.58 3.707V38.88c0 2.845-2.413 5.216-5.352 5.216z"/>
        <path fill="#000" d="M37.85 42.802V16.767c0-2.112-.832-4.095-2.368-5.603l-5.657-5.56a8.067 8.067 0 0 0-5.702-2.328h-7.456c-.351.56-.527 1.25-.527 1.983v1.724l18.246 35.819h3.465z" opacity=".1"/>
        <path fill="#FFF" d="M29.825 48.707H5.702c-2.237 0-4.035-1.767-4.035-3.966V11.164c0-2.198 1.798-3.966 4.035-3.966h18.42c1.053 0 2.106.431 2.852 1.164l5.701 5.604a3.985 3.985 0 0 1 1.185 2.801v28.017c0 2.156-1.799 3.923-4.035 3.923z"/>
        <path fill="#231E9C" d="M29.825 50H5.702C2.763 50 .35 47.63.35 44.741V11.164c0-2.888 2.412-5.259 5.35-5.259h18.422c1.403 0 2.763.56 3.772 1.552l5.701 5.603a5.212 5.212 0 0 1 1.58 3.707v28.017c0 2.845-2.413 5.216-5.351 5.216zM5.702 8.534c-1.491 0-2.72 1.207-2.72 2.673v33.577c0 1.466 1.229 2.673 2.72 2.673h24.123c1.49 0 2.719-1.207 2.719-2.673V16.767c0-.69-.263-1.38-.79-1.896l-5.701-5.604c-.527-.517-1.185-.776-1.93-.776H5.702v.043z"/>
        <path fill="#231E9C" d="M25.79 42.112H9.736c-.746 0-1.316-.56-1.316-1.293 0-.733.57-1.293 1.316-1.293h16.096c.746 0 1.316.56 1.316 1.293 0 .733-.614 1.293-1.36 1.293zM25.79 36.164H9.736c-.746 0-1.316-.56-1.316-1.293 0-.733.57-1.293 1.316-1.293h16.096c.746 0 1.316.56 1.316 1.293 0 .732-.614 1.293-1.36 1.293zM25.79 30.259H9.736c-.746 0-1.316-.56-1.316-1.293 0-.733.57-1.294 1.316-1.294h16.096c.746 0 1.316.56 1.316 1.294 0 .732-.614 1.293-1.36 1.293z"/>
    </g>
</svg>
