<svg xmlns="http://www.w3.org/2000/svg" width="50" height="50" viewBox="0 0 50 50">
    <g fill="none" fill-rule="nonzero">
        <path fill="#FFF" d="M42.4 23.45V48.5H7.6V23.45L25 5.4z"/>
        <g>
            <path fill="#0053FB" d="M13.15 48.5V28.9h9.65v19.6M25 1.5L1.8 25l2.95 2.95L25 6.9l20.25 21.05L48.2 25l-5.8-5.85V5.4h-5.8v7.85z"/>
            <path fill="#0053FB" d="M17.25 22.1c1.55-8.7 13.9-8.7 15.45 0H17.25z"/>
            <path fill="#231E9C" d="M42.4 50H7.6c-.85 0-1.5-.65-1.5-1.5V28.45H3.75c-.4 0-.8-.15-1.1-.45L.7 26.05c-.6-.6-.6-1.5 0-2.1L23.9.45c.55-.55 1.55-.55 2.15 0l9 9.15V5.4c0-.85.65-1.5 1.5-1.5h5.8c.85 0 1.5.65 1.5 1.5v13.1l5.35 5.45c.6.6.6 1.5 0 2.1L47.25 28c-.3.3-.65.45-1.05.45h-2.35V48.5c.05.85-.65 1.5-1.45 1.5zM9.1 47h31.75V26.95c0-.4.15-.8.45-1.05.3-.3.7-.45 1.05-.45h3.25l.45-.45-4.75-4.8c-.3-.3-.45-.65-.45-1.05V6.9h-2.8v6.35c0 .6-.35 1.15-.95 1.4-.55.25-1.2.1-1.65-.35L25 3.65 3.95 25l.45.45h3.25c.4 0 .8.15 1.05.45.3.3.45.65.45 1.05V47H9.1z"/>
            <path fill="#0053FB" d="M27.2 28.9h9.65v9.8H27.2z"/>
            <circle cx="17.95" cy="33.8" r="1.95" fill="#FFF"/>
        </g>
    </g>
</svg>
