<svg xmlns="http://www.w3.org/2000/svg" width="52" height="50" viewBox="0 0 52 50">
    <g fill="none" fill-rule="nonzero">
        <path fill="#FFF" d="M45.24 48.404H6.76c-2.86 0-5.2-2.393-5.2-5.319V6.915c0-2.926 2.34-5.32 5.2-5.32h38.48c2.86 0 5.2 2.394 5.2 5.32v36.17c0 2.926-2.34 5.32-5.2 5.32z"/>
        <path fill="#231E9C" d="M50.44 14.894H1.56c-.884 0-1.56-.692-1.56-1.596 0-.904.676-1.596 1.56-1.596h48.88c.884 0 1.56.692 1.56 1.596 0 .904-.676 1.596-1.56 1.596zM11.96 9.043c-.416 0-.832-.16-1.092-.48-.312-.265-.468-.69-.468-1.116 0-.426.156-.851.468-1.117.572-.585 1.612-.585 2.184 0 .312.319.468.691.468 1.117 0 .425-.156.85-.468 1.117-.26.319-.676.479-1.092.479zM26 9.043c-.416 0-.832-.16-1.092-.48-.312-.265-.468-.69-.468-1.116 0-.426.156-.851.468-1.117.572-.585 1.612-.585 2.184 0 .312.319.468.691.468 1.117 0 .425-.156.85-.468 1.117-.26.319-.676.479-1.092.479zM41.6 9.043c-.416 0-.832-.16-1.092-.48-.312-.265-.468-.69-.468-1.116 0-.426.156-.851.468-1.117.572-.585 1.612-.585 2.184 0 .312.319.468.691.468 1.117 0 .425-.156.85-.468 1.117-.26.319-.676.479-1.092.479z"/>
        <path fill="#231E9C" d="M45.24 50H6.76C3.016 50 0 46.915 0 43.085V6.915C0 3.085 3.016 0 6.76 0h38.48C48.984 0 52 3.085 52 6.915v36.17C52 46.915 48.984 50 45.24 50zM6.76 3.191c-2.028 0-3.64 1.65-3.64 3.724v36.17c0 2.075 1.612 3.724 3.64 3.724h38.48c2.028 0 3.64-1.65 3.64-3.724V6.915c0-2.075-1.612-3.724-3.64-3.724H6.76z"/>
        <path fill="#326FF9" fill-opacity=".2" d="M20.8 18.617h10.4v10.638H20.8z"/>
        <path fill="#326FF9" fill-opacity=".1" d="M6.76 18.617h10.4v10.638H6.76z"/>
        <path fill="#326FF9" fill-opacity=".4" d="M34.84 18.617h10.4v10.638h-10.4z"/>
        <path fill="#326FF9" fill-opacity=".8" d="M20.8 32.979h10.4v10.638H20.8z"/>
        <path fill="#326FF9" fill-opacity=".6" d="M6.76 32.979h10.4v10.638H6.76z"/>
        <path fill="#0053FB" d="M34.84 32.979h10.4v10.638h-10.4z"/>
    </g>
</svg>
