<svg xmlns="http://www.w3.org/2000/svg" width="78" height="96" viewBox="0 0 78 96">
    <g fill="none" fill-rule="nonzero">
        <path fill="#326FF9" d="M39.958 47.308c2.252 0 4.536-.532 6.65-1.654 4.371-2.318 7.169-6.775 7.302-11.633.023-.837-.654-1.534-1.511-1.556-.859-.023-1.571.638-1.594 1.475-.104 3.78-2.28 7.247-5.68 9.05-5.267 2.794-11.881.884-14.743-4.257-2.863-5.14-.906-11.596 4.362-14.389.753-.4 1.032-1.32.623-2.056-.41-.735-1.352-1.007-2.107-.608-6.772 3.592-9.288 11.891-5.608 18.5 2.532 4.547 7.344 7.128 12.306 7.128z"/>
        <path fill="#231E9C" d="M72.133 0H5.867C2.727 0 .172 2.493.172 5.558v84.884C.172 93.507 2.727 96 5.867 96h66.266c3.14 0 5.695-2.493 5.695-5.558V5.558C77.828 2.493 75.273 0 72.133 0zm2.589 90.442c0 1.393-1.161 2.527-2.589 2.527H5.867c-1.428 0-2.589-1.134-2.589-2.527V5.558c0-1.393 1.161-2.526 2.589-2.526h66.266c1.428 0 2.589 1.133 2.589 2.526v84.884z"/>
        <path fill="#326FF9" d="M61.78 70.737H16.22c-.857 0-1.552.678-1.552 1.516 0 .837.695 1.515 1.553 1.515h45.558c.858 0 1.553-.678 1.553-1.515 0-.838-.695-1.516-1.553-1.516zM61.78 62.653H16.22c-.857 0-1.552.678-1.552 1.515 0 .838.695 1.516 1.553 1.516h45.558c.858 0 1.553-.678 1.553-1.516 0-.837-.695-1.515-1.553-1.515zM52.46 78.821H25.54c-.858 0-1.553.678-1.553 1.516 0 .837.695 1.516 1.553 1.516h26.92c.858 0 1.553-.679 1.553-1.516 0-.838-.695-1.516-1.553-1.516zM40.035 53.558c11.134 0 20.191-8.84 20.191-19.705 0-3.102-.745-6.144-2.166-8.887l2.312-1.302c.362-.205.625-.543.729-.938a1.485 1.485 0 0 0-.18-1.164c-4.48-7.174-12.287-11.457-20.885-11.457-.858 0-1.554.678-1.554 1.516v2.584c-10.41.777-18.637 9.292-18.637 19.648 0 10.865 9.057 19.705 20.19 19.705zm1.554-37.895v-2.472c6.359.441 12.095 3.582 15.803 8.651l-2.19 1.234-.034.02-13.58 7.651V15.663zm-3.107 1.584v16.125c0 .542.296 1.042.777 1.313.48.27 1.072.27 1.553 0l14.553-8.2a16.336 16.336 0 0 1 1.755 7.368c0 9.193-7.664 16.673-17.085 16.673-9.42 0-17.084-7.48-17.084-16.673 0-8.684 6.836-15.838 15.531-16.606z"/>
    </g>
</svg>
