<svg xmlns="http://www.w3.org/2000/svg" xmlns:xlink="http://www.w3.org/1999/xlink" width="16" height="16" viewBox="0 0 16 16">
    <defs>
        <circle id="a" cx="12" cy="12" r="12"/>
    </defs>
    <g fill="none" fill-rule="evenodd" transform="translate(-4 -4)">
        <mask id="b" fill="#fff">
            <use xlink:href="#a"/>
        </mask>
        <g mask="url(#b)">
            <g transform="translate(4 4)">
                <circle cx="8" cy="8" r="7.586" fill="#FFF" fill-rule="nonzero"/>
                <path fill="#0053FB" fill-rule="nonzero" d="M8 .414c-.317 0-.634.027-.952.055A7.587 7.587 0 0 1 13.683 8a7.598 7.598 0 0 1-6.635 7.531c.318.041.621.055.952.055A7.582 7.582 0 0 0 15.586 8 7.582 7.582 0 0 0 8 .414z" opacity=".1"/>
                <path fill="#0053FB" fill-rule="nonzero" d="M8 16c-4.414 0-8-3.586-8-8s3.586-8 8-8 8 3.586 8 8-3.586 8-8 8zM8 .828A7.176 7.176 0 0 0 .828 8 7.176 7.176 0 0 0 8 15.172 7.176 7.176 0 0 0 15.172 8 7.176 7.176 0 0 0 8 .828z"/>
                <path fill="#0053FB" fill-rule="nonzero" d="M8 2.414a5.377 5.377 0 0 0-4.497 8.33 5.348 5.348 0 0 1 4.483-2.413c1.876 0 3.531.966 4.483 2.414a5.275 5.275 0 0 0 .883-2.952c.027-2.98-2.386-5.38-5.352-5.38zm0 4.73a2.007 2.007 0 0 1-2.014-2.013c0-1.117.897-2.014 2.014-2.014 1.117 0 2.014.897 2.014 2.014A2.016 2.016 0 0 1 8 7.145z"/>
                <path fill="#0053FB" fill-rule="nonzero" d="M7.917 7.503A2.3 2.3 0 0 1 5.697 5.2a2.322 2.322 0 0 1 2.317-2.317A2.313 2.313 0 0 1 10.33 5.2c0 1.2-.938 2.207-2.138 2.303-.055 0-.096 0-.138-.013-.055.013-.096.013-.138.013zM8 3.71c-.814 0-1.49.662-1.49 1.49 0 .8.621 1.448 1.421 1.476a.27.27 0 0 1 .097.014c.027-.014.055-.014.096-.014A1.476 1.476 0 0 0 9.49 5.2c0-.828-.676-1.49-1.49-1.49zM12.22 10.91a.431.431 0 0 1-.344-.179 4.631 4.631 0 0 0-7.752 0 .421.421 0 0 1-.58.124.421.421 0 0 1-.123-.58C4.455 8.732 6.15 7.808 8 7.808c1.848 0 3.545.924 4.566 2.455a.424.424 0 0 1-.345.648z"/>
            </g>
        </g>
    </g>
</svg>
