<svg xmlns="http://www.w3.org/2000/svg" xmlns:xlink="http://www.w3.org/1999/xlink" width="14" height="12" viewBox="0 0 14 12">
    <defs>
        <circle id="a" cx="12" cy="12" r="12"/>
    </defs>
    <g fill="none" fill-rule="evenodd" transform="translate(-5 -6)">
        <mask id="b" fill="#fff">
            <use xlink:href="#a"/>
        </mask>
        <g fill-rule="nonzero" mask="url(#b)">
            <path fill="#F7F7FB" d="M17.516 17.633H6.472c-.615 0-1.11-.502-1.11-1.127V6.931c0-.307.254-.564.555-.564h9.945c.302 0 .555.257.555.564v9.588a1.11 1.11 0 0 0 1.099 1.114c.615 0 1.11-.502 1.11-1.127V10.31a.566.566 0 0 0-.555-.563h-.555"/>
            <path fill="#0053FB" d="M7.052 8.07h7.615c.205 0 .362.159.362.367v2.07a.358.358 0 0 1-.362.366H7.052a.358.358 0 0 1-.362-.367v-2.07c0-.207.157-.367.362-.367z"/>
            <path fill="#DEDFE6" d="M17.516 17.633c.615 0 1.11-.502 1.11-1.127V10.31a.566.566 0 0 0-.555-.563h-1.666v6.76c.012.624.507 1.126 1.11 1.126z"/>
            <path fill="#0053FB" d="M17.516 18H6.472C5.664 18 5 17.327 5 16.506V6.931C5 6.416 5.41 6 5.917 6h9.945c.507 0 .917.416.917.93v9.588c0 .417.338.76.749.76.41 0 .748-.343.748-.76V10.31a.192.192 0 0 0-.193-.196h-.555a.358.358 0 0 1-.362-.367c0-.208.156-.367.362-.367h.555c.507 0 .917.416.917.93v6.196c-.012.833-.676 1.494-1.484 1.494zM5.917 6.735a.192.192 0 0 0-.193.196v9.587c0 .417.338.76.748.76h9.788a1.457 1.457 0 0 1-.205-.76V6.931a.192.192 0 0 0-.193-.196H5.917z"/>
            <path fill="#0053FB" d="M9.248 13.09H7.052a.358.358 0 0 1-.362-.368c0-.208.157-.367.362-.367h2.196c.205 0 .362.16.362.367a.358.358 0 0 1-.362.368zM9.248 16.249H7.052a.358.358 0 0 1-.362-.367c0-.209.157-.368.362-.368h2.196c.205 0 .362.16.362.368a.358.358 0 0 1-.362.367zM9.248 14.657H7.052a.358.358 0 0 1-.362-.367c0-.208.157-.368.362-.368h2.196c.205 0 .362.16.362.368a.358.358 0 0 1-.362.367zM14.655 16.298h-3.38a.358.358 0 0 1-.361-.367v-3.368c0-.208.157-.367.362-.367h3.38c.204 0 .361.16.361.367v3.368a.366.366 0 0 1-.362.367zm-3.017-.735h2.655v-2.632h-2.655v2.632z"/>
        </g>
    </g>
</svg>
