<svg xmlns="http://www.w3.org/2000/svg" width="26" height="26" viewBox="0 0 26 26">
    <g fill="none" fill-rule="nonzero" transform="translate(0 1)">
        <path fill="#FFF" stroke="#231E9C" d="M1.178 18.844L4.244 1.467C4.422.51 5.334-.133 6.29.044l17.355 3.067c.956.178 1.6 1.089 1.423 2.045L22 22.533c-.178.956-1.089 1.6-2.044 1.423L2.6 20.889c-.956-.156-1.6-1.089-1.422-2.045z"/>
        <path fill="#FFF" d="M20 22.911H2.356A1.76 1.76 0 0 1 .6 21.156V3.51c0-.978.8-1.755 1.756-1.755H20c.978 0 1.756.8 1.756 1.755v17.645c.022.977-.778 1.755-1.756 1.755z"/>
        <path fill="#FFF" d="M18.311 16.756H4.2A1.76 1.76 0 0 1 2.444 15V5.267c0-.978.8-1.756 1.756-1.756h14.111c.978 0 1.756.8 1.756 1.756v9.71c0 .979-.778 1.779-1.756 1.779z"/>
        <path fill="#326FF9" d="M4.2 16.756h6.889l-4.067-4.867L3.467 16.6c.222.089.466.156.733.156z"/>
        <path fill="#326FF9" d="M8.778 16.756h9.533a1.81 1.81 0 0 0 1.022-.334l-5.266-7-5.29 7.334z"/>
        <circle cx="9.867" cy="8.489" r="1.333" fill="#FFF" stroke="#231E9C"/>
        <path fill="#231E9C" d="M20.067 23.578H2.422A2.428 2.428 0 0 1 0 21.156V3.51A2.428 2.428 0 0 1 2.422 1.09h17.645a2.428 2.428 0 0 1 2.422 2.422v17.645c.022 1.333-1.067 2.422-2.422 2.422zM2.422 2.422c-.6 0-1.089.49-1.089 1.09v17.644c0 .6.49 1.088 1.09 1.088h17.644c.6 0 1.089-.488 1.089-1.088V3.51c0-.6-.49-1.089-1.09-1.089H2.423z"/>
    </g>
</svg>
