<svg xmlns="http://www.w3.org/2000/svg" width="48" height="48" viewBox="0 0 48 48">
    <path fill="#D8D8D8" fill-rule="nonzero" d="M16.478 47.825a2.134 2.134 0 0 0 1.261-1.958v-5.76c0-.21.017-.43.043-.651a.626.626 0 0 1-.043.01h-3.756c-1.566 0-2.922-.64-3.548-1.92-.73-1.386-1.044-3.733-2.922-5.013C7.2 32.32 7.409 32 8.035 32c.626.107 1.982.96 2.817 2.133.94 1.174 1.878 2.134 3.548 2.134 2.595 0 3.986-.134 4.823-.592.975-1.482 2.324-2.608 3.734-2.608v-.027c-5.915-.194-9.693-2.204-11.453-5.307-3.824.045-7.154.432-9.054.754-.06-.348-.113-.7-.157-1.052 1.875-.316 5.053-.69 8.707-.762a8.84 8.84 0 0 1-.303-.906c-3.664-.19-6.826-.041-8.543.104-.021-.354-.05-.707-.053-1.066 1.72-.144 4.796-.288 8.366-.118a10.715 10.715 0 0 1-.136-1.646c0-1.813.627-3.733 1.774-5.333-.521-1.814-1.252-5.654.21-7.04 2.816 0 4.8 1.386 5.738 2.24 1.773-.748 3.756-1.175 5.947-1.175 2.191 0 4.174.427 5.843 1.174.94-.854 2.922-2.24 5.74-2.24 1.565 1.493.73 5.333.208 7.04 1.148 1.6 1.774 3.413 1.67 5.333 0 .516-.047 1.014-.115 1.503 3.651-.184 6.81-.036 8.56.109-.001.36-.034.71-.052 1.065-1.744-.147-4.983-.298-8.723-.095a8.962 8.962 0 0 1-.339 1.046c3.7.049 6.955.415 8.92.735-.045.354-.097.705-.158 1.052-1.995-.326-5.396-.708-9.265-.727-1.737 3.07-5.447 5.072-11.246 5.306v.033c2.714 0 5.218 4.16 5.218 7.04v5.76c0 .878.52 1.632 1.261 1.958C41.082 44.591 48 35.375 48 24.533 48 11.006 37.234 0 24 0S0 11.006 0 24.533c0 10.842 6.918 20.058 16.478 23.292z"/>
</svg>
