<svg xmlns="http://www.w3.org/2000/svg" width="32" height="32" viewBox="0 0 32 32">
    <g fill="none" fill-rule="nonzero">
        <path fill="#FFC107" d="M32 16c0 8.835-7.165 16-16 16S0 24.835 0 16 7.165 0 16 0s16 7.165 16 16z"/>
        <path fill="#FFF8E1" d="M10.4 24V8h6.56c1.927 0 3.386.372 4.383 1.116.997.744 1.494 1.834 1.494 3.269 0 .784-.2 1.475-.597 2.072-.4.597-.956 1.034-1.669 1.313.813.206 1.453.618 1.922 1.244.47.62.707 1.38.707 2.283 0 1.537-.487 2.703-1.462 3.493-.976.79-2.363 1.194-4.166 1.21H10.4zm3.2-9.6h3.49c1.65-.028 2.479-.66 2.479-1.956 0-.725-.21-1.247-.628-1.566-.419-.318-1.079-.478-1.982-.478H13.6v4zm0 2.4v4.8h3.875c.769 0 2.525-.375 2.525-2.087 0-1.712-.894-2.691-2.4-2.713h-4z"/>
        <path fill="#FFF8E1" d="M12.8 5.6h2.4v4h-2.4zM16.8 5.6h2.4v4h-2.4zM12.8 22.4h2.4v4h-2.4zM16.8 22.4h2.4v4h-2.4z"/>
    </g>
</svg>
