<svg xmlns="http://www.w3.org/2000/svg" xmlns:xlink="http://www.w3.org/1999/xlink" width="48" height="35" viewBox="0 0 48 35">
    <defs>
        <path id="a" d="M0 0h144v48H0z"/>
        <path id="c" d="M0 34.615h47.468V.512H0z"/>
    </defs>
    <g fill="none" fill-rule="evenodd" transform="translate(-48 -7)">
        <mask id="b" fill="#fff">
            <use xlink:href="#a"/>
        </mask>
        <g mask="url(#b)">
            <path fill="#FFF" d="M49 40h45V16H49z"/>
            <g transform="translate(48 7)">
                <path fill="#326FF9" d="M46.24 33.41V9.332l-16.491 1.606c-13.872 1.364-24.43 8.788-24.43 22.474h40.92z"/>
                <path fill="#FFF" d="M25.29 20.408l-2.539-.641c-.778-.201-1.268-.843-1.268-1.606 0-.924.777-1.685 1.718-1.685h1.229c.86 0 1.554.68 1.554 1.524 0 .681.532 1.203 1.228 1.203.695 0 1.227-.522 1.227-1.203 0-2.006-1.513-3.651-3.477-3.894v-.522c0-.68-.532-1.203-1.228-1.203s-1.229.522-1.229 1.203v.564c-1.963.32-3.478 2.006-3.478 4.013 0 1.885 1.31 3.492 3.152 3.973l2.537.601c.778.201 1.268.844 1.268 1.607 0 .922-.778 1.685-1.718 1.685h-1.228c-.859 0-1.555-.683-1.555-1.525 0-.682-.53-1.204-1.227-1.204-.697 0-1.23.522-1.23 1.204 0 2.006 1.516 3.651 3.48 3.894v.52c0 .683.532 1.205 1.228 1.205s1.228-.522 1.228-1.205v-.562c1.964-.32 3.477-2.006 3.477-4.012 0-1.886-1.309-3.492-3.15-3.934"/>
                <mask id="d" fill="#fff">
                    <use xlink:href="#c"/>
                </mask>
                <path fill="#231E9C" d="M2.454 32.208h42.559V10.536H2.453v21.672zm43.786 2.407H1.227C.53 34.615 0 34.093 0 33.411V9.33c0-.683.53-1.203 1.227-1.203H46.24c.696 0 1.226.52 1.226 1.203v24.08c0 .682-.53 1.204-1.226 1.204zM46.24 6.923c-15.1 0-26.107-1.363-39.692-3.773V5.72c0 .682-.532 1.204-1.228 1.204S4.093 6.401 4.093 5.72V1.706c0-.361.162-.682.449-.923.286-.241.655-.322 1.022-.241l.37.08c13.913 2.448 25 3.894 40.306 3.894.696 0 1.226.522 1.226 1.203 0 .682-.53 1.204-1.226 1.204" mask="url(#d)"/>
            </g>
        </g>
    </g>
</svg>
