<?xml version="1.0" encoding="utf-8"?>
<!-- Generator: Adobe Illustrator 16.0.0, SVG Export Plug-In . SVG Version: 6.00 Build 0)  -->
<!DOCTYPE svg PUBLIC "-//W3C//DTD SVG 1.1//EN" "http://www.w3.org/Graphics/SVG/1.1/DTD/svg11.dtd">
<svg version="1.1" id="Layer_1" xmlns="http://www.w3.org/2000/svg" xmlns:xlink="http://www.w3.org/1999/xlink" x="0px" y="0px"
	 width="47.466px" height="34.104px" viewBox="-75.5 -1.988 47.466 34.104" enable-background="new -75.5 -1.988 47.466 34.104"
	 xml:space="preserve">
<g>
	<path fill="#326FF9" d="M-74.5,30.5h45v-24h-45V30.5z"/>
	<path fill="#FFFFFF" d="M-29.26,30.91V6.832l-16.491,1.606c-13.872,1.364-24.43,8.789-24.43,22.474h40.919L-29.26,30.91z"/>
	<path fill="#326FF9" d="M-50.21,17.908l-2.539-0.641c-0.778-0.201-1.268-0.844-1.268-1.606c0-0.924,0.777-1.685,1.718-1.685h1.229
		c0.86,0,1.554,0.68,1.554,1.524c0,0.682,0.531,1.203,1.228,1.203c0.695,0,1.228-0.521,1.228-1.203c0-2.006-1.514-3.651-3.478-3.894
		v-0.522c0-0.68-0.532-1.203-1.228-1.203c-0.696,0-1.229,0.522-1.229,1.203v0.564c-1.963,0.32-3.478,2.006-3.478,4.013
		c0,1.885,1.31,3.491,3.152,3.973l2.537,0.601c0.778,0.201,1.269,0.845,1.269,1.607c0,0.922-0.778,1.686-1.718,1.686h-1.228
		c-0.859,0-1.555-0.684-1.555-1.525c0-0.682-0.53-1.204-1.227-1.204c-0.697,0-1.23,0.522-1.23,1.204c0,2.006,1.516,3.65,3.48,3.895
		v0.52c0,0.684,0.532,1.205,1.228,1.205c0.696,0,1.228-0.521,1.228-1.205v-0.563c1.964-0.319,3.478-2.006,3.478-4.012
		C-47.061,19.956-48.37,18.35-50.21,17.908"/>
	<defs>
		<filter id="Adobe_OpacityMaskFilter" filterUnits="userSpaceOnUse" x="-75.5" y="-1.988" width="47.466" height="34.104">
			<feColorMatrix  type="matrix" values="1 0 0 0 0  0 1 0 0 0  0 0 1 0 0  0 0 0 1 0"/>
		</filter>
	</defs>
	<mask maskUnits="userSpaceOnUse" x="-75.5" y="-1.988" width="47.466" height="34.104" id="d">
		<g filter="url(#Adobe_OpacityMaskFilter)">
			<path id="c" fill="#FFFFFF" d="M-75.5,32.115h47.468V-1.988H-75.5V32.115z"/>
		</g>
	</mask>
	<path mask="url(#d)" fill="#FFFFFF" d="M-73.046,29.708h42.56V8.036h-42.561L-73.046,29.708L-73.046,29.708z M-29.26,32.115
		h-45.013c-0.697,0-1.227-0.522-1.227-1.204V6.83c0-0.683,0.53-1.203,1.227-1.203h45.013c0.695,0,1.226,0.52,1.226,1.203v24.08
		C-28.034,31.592-28.564,32.114-29.26,32.115L-29.26,32.115z M-29.26,4.423c-15.1,0-26.107-1.363-39.692-3.773v2.57
		c0,0.682-0.532,1.204-1.228,1.204c-0.696,0-1.227-0.523-1.227-1.204v-4.014c0-0.361,0.162-0.682,0.449-0.923
		c0.286-0.241,0.655-0.322,1.022-0.241l0.37,0.08c13.913,2.448,25,3.894,40.306,3.894c0.695,0,1.226,0.522,1.226,1.203
		C-28.034,3.901-28.564,4.423-29.26,4.423"/>
</g>
</svg>
