<?xml version="1.0" encoding="utf-8"?>
<!-- Generator: Adobe Illustrator 16.0.0, SVG Export Plug-In . SVG Version: 6.00 Build 0)  -->
<!DOCTYPE svg PUBLIC "-//W3C//DTD SVG 1.1//EN" "http://www.w3.org/Graphics/SVG/1.1/DTD/svg11.dtd">
<svg version="1.1" id="Layer_1" xmlns:sketch="http://www.bohemiancoding.com/sketch/ns"
	 xmlns="http://www.w3.org/2000/svg" xmlns:xlink="http://www.w3.org/1999/xlink" x="0px" y="0px" width="48px"
	 height="48px" viewBox="12.842 12.923 22.235 22.136" enable-background="new 12.842 12.923 22.235 22.136"
	 xml:space="preserve">
<title></title>
<desc></desc>
<g id="black">
	<g id="slice" transform="translate(-600.000000, 0.000000)">
	</g>
	<g id="linkedin" transform="translate(16.000000, 17.000000)">
		<path fill="#D8D8D8" d="M1.506,18.059V3.419h-4.524v14.639H1.506z M1.506-1.77c-0.027-1.31-0.9-2.308-2.318-2.308
			S-3.158-3.08-3.158-1.77c0,1.282,0.9,2.308,2.292,2.308h0.027C0.606,0.539,1.506-0.488,1.506-1.77z M8.889,18.059V9.718
			c0-0.446,0.031-0.893,0.163-1.211c0.358-0.892,1.175-1.816,2.547-1.816c1.796,0,2.923,1.02,2.923,3.027v8.341h4.556V9.494
			c0-4.587-2.449-6.722-5.716-6.722c-2.678,0-3.854,1.498-4.506,2.517l0.032-1.958H4.34c0.065,1.401,0,14.728,0,14.728H8.889z"/>
	</g>
</g>
</svg>
