<svg xmlns="http://www.w3.org/2000/svg" width="14" height="12" viewBox="0 0 14 12">
    <g fill="none" fill-rule="nonzero">
        <path fill="#FFF" d="M11.977 11.617H1.743c-.76 0-1.383-.574-1.383-1.277V1.66C.36.957.982.383 1.743.383h10.234c.76 0 1.383.574 1.383 1.277v8.68c0 .703-.622 1.277-1.383 1.277z"/>
        <path fill="#0053FB" d="M13.58 3.574H.42c-.238 0-.42-.165-.42-.383 0-.217.182-.382.42-.382h13.16c.238 0 .42.165.42.382 0 .218-.182.383-.42.383zM3.76 2.17a.318.318 0 0 1-.252-.115.358.358 0 0 1-.108-.268c0-.102.036-.204.108-.268a.354.354 0 0 1 .504 0 .38.38 0 0 1 .108.268.358.358 0 0 1-.108.268.318.318 0 0 1-.252.115zM7 2.17a.318.318 0 0 1-.252-.115.358.358 0 0 1-.108-.268c0-.102.036-.204.108-.268a.354.354 0 0 1 .504 0 .38.38 0 0 1 .108.268.358.358 0 0 1-.108.268A.318.318 0 0 1 7 2.17zM10.6 2.17a.318.318 0 0 1-.252-.115.358.358 0 0 1-.108-.268c0-.102.036-.204.108-.268a.354.354 0 0 1 .504 0 .38.38 0 0 1 .108.268.358.358 0 0 1-.108.268.318.318 0 0 1-.252.115z"/>
        <path fill="#0053FB" d="M12.18 12H1.82C.812 12 0 11.26 0 10.34V1.66C0 .74.812 0 1.82 0h10.36C13.188 0 14 .74 14 1.66v8.68c0 .92-.812 1.66-1.82 1.66zM1.82.766c-.546 0-.98.396-.98.894v8.68c0 .498.434.894.98.894h10.36c.546 0 .98-.396.98-.894V1.66c0-.498-.434-.894-.98-.894H1.82z"/>
        <g fill="#0053FB">
            <path d="M5.8 4.468h2.4v2.553H5.8zM2.56 4.468h2.4v2.553h-2.4zM9.04 4.468h2.4v2.553h-2.4zM5.8 7.915h2.4v2.553H5.8zM2.56 7.915h2.4v2.553h-2.4zM9.04 7.915h2.4v2.553h-2.4z"/>
        </g>
    </g>
</svg>
