<svg xmlns="http://www.w3.org/2000/svg" xmlns:xlink="http://www.w3.org/1999/xlink" width="16" height="12" viewBox="0 0 16 12">
    <defs>
        <circle id="a" cx="12" cy="12" r="12"/>
    </defs>
    <g fill="none" fill-rule="evenodd" transform="translate(-4 -6)">
        <mask id="b" fill="#fff">
            <use xlink:href="#a"/>
        </mask>
        <g fill-rule="nonzero" mask="url(#b)">
            <path fill="#7a9feb" d="M9.544 6.6L5.81 9.21c-.702.345-.323 1.365 0 2.115l2.512 2.685 8.73 3.45 2.386-7.05L9.544 6.6zm-1.151 4.725c-.547-.21-.828-.855-.632-1.44.197-.585.8-.885 1.348-.675.547.21.828.855.631 1.44-.196.585-.8.9-1.347.675z"/>
            <path fill="#7a9feb" d="M5.81 9.21c-.701.345-.322 1.365 0 2.115l2.513 2.685 3.031 1.2h6.457l1.628-4.8L9.544 6.6 5.81 9.21zm3.93 1.44c-.196.585-.8.885-1.347.675-.547-.21-.828-.855-.632-1.44.197-.585.8-.885 1.348-.675.547.225.828.87.631 1.44z" opacity=".1"/>
            <path fill="#0053fb" d="M17.053 17.925c-.057 0-.099-.015-.14-.03l-8.73-3.45c-.057-.03-.113-.06-.155-.105l-2.512-2.685a.447.447 0 0 1-.127-.315V9.21c0-.15.07-.3.197-.375L9.319 6.21a.424.424 0 0 1 .38-.045l9.894 3.825c.098.045.196.12.239.225a.485.485 0 0 1 .014.345l-2.386 7.05a.395.395 0 0 1-.225.255.295.295 0 0 1-.182.06zm-8.492-4.29L16.8 16.89l2.105-6.21L9.6 7.08 6.232 9.45v1.695l2.33 2.49z"/>
            <path fill="#7a9feb" d="M8.323 6.525L5.81 9.21a1.567 1.567 0 0 0 0 2.115l2.512 2.685h10.526v-7.5H8.323v.015zm.42 4.875c-.575 0-1.052-.51-1.052-1.125S8.168 9.15 8.744 9.15c.575 0 1.052.51 1.052 1.125S9.333 11.4 8.744 11.4z"/>
            <path fill="#0053fb" d="M18.85 14.475H8.322a.371.371 0 0 1-.295-.135l-2.512-2.685a1.985 1.985 0 0 1-.534-1.38c0-.525.197-1.005.534-1.38L8.028 6.21a.392.392 0 0 1 .295-.135h10.526c.239 0 .421.195.421.45v7.5c0 .255-.182.45-.42.45zm-10.345-.9h9.937v-6.6H8.505l-2.4 2.55c-.182.195-.28.465-.28.75s.098.54.28.735l2.4 2.565z"/>
            <path fill="#FFF" d="M16.042 9.975h-3.509c-.238 0-.42-.195-.42-.45s.182-.45.42-.45h3.51c.238 0 .42.195.42.45s-.182.45-.42.45zM16.042 11.475h-3.509c-.238 0-.42-.195-.42-.45s.182-.45.42-.45h3.51c.238 0 .42.195.42.45s-.182.45-.42.45z"/>
            <path fill="#7a9feb" d="M4.533 15.225a.392.392 0 0 1-.294-.135.456.456 0 0 1 0-.63l1.277-1.365c.168-.18.435-.18.59 0a.456.456 0 0 1 0 .63L4.827 15.09a.371.371 0 0 1-.295.135z"/>
        </g>
    </g>
</svg>
