<svg xmlns="http://www.w3.org/2000/svg" xmlns:xlink="http://www.w3.org/1999/xlink" width="14" height="16" viewBox="0 0 14 16">
    <defs>
        <circle id="a" cx="12" cy="12" r="12"/>
    </defs>
    <g fill="none" fill-rule="evenodd" transform="translate(-5 -4)">
        <mask id="b" fill="#fff">
            <use xlink:href="#a"/>
        </mask>
        <g fill-rule="nonzero" mask="url(#b)">
            <path fill="#FFF" d="M16.852 19.547H7.148c-.875 0-1.591-.68-1.591-1.51V5.963c0-.83.716-1.51 1.59-1.51h9.705c.875 0 1.591.68 1.591 1.51v12.076c0 .83-.716 1.51-1.59 1.51z"/>
            <path fill="#0053FB" d="M11.84 17.51a.493.493 0 0 1-.397-.182l-.938-1.192a.44.44 0 0 1 .095-.634.498.498 0 0 1 .668.09l.557.695.89-1.283a.484.484 0 0 1 .67-.121.431.431 0 0 1 .126.634l-1.256 1.796c-.08.121-.24.196-.398.212 0-.016-.016-.016-.016-.016zM15.42 8.226H8.261c-.27 0-.477-.196-.477-.452 0-.257.207-.453.477-.453h7.16c.27 0 .477.196.477.453 0 .256-.207.452-.478.452zM15.42 10.49H8.261c-.27 0-.477-.196-.477-.452 0-.257.207-.453.477-.453h7.16c.27 0 .477.196.477.453 0 .256-.207.453-.478.453zM11.523 12.755H8.26c-.27 0-.477-.197-.477-.453 0-.257.207-.453.477-.453h3.262c.27 0 .477.196.477.453 0 .256-.207.453-.477.453z"/>
            <path fill="#0053FB" d="M16.852 20H7.148c-1.146 0-2.068-.875-2.068-1.962V5.962C5.08 4.875 6.002 4 7.148 4h9.704c1.146 0 2.068.875 2.068 1.962v12.076c0 1.087-.922 1.962-2.068 1.962zM7.148 4.906c-.62 0-1.114.468-1.114 1.056v12.076c0 .588.493 1.056 1.114 1.056h9.704c.62 0 1.114-.468 1.114-1.056V5.962c0-.588-.493-1.056-1.114-1.056H7.148z"/>
        </g>
    </g>
</svg>
