<svg xmlns="http://www.w3.org/2000/svg" xmlns:xlink="http://www.w3.org/1999/xlink" width="16" height="14" viewBox="0 0 16 14">
    <defs>
        <circle id="a" cx="12" cy="12" r="12"/>
    </defs>
    <g fill="none" fill-rule="evenodd" transform="translate(-4 -5)">
        <mask id="b" fill="#fff">
            <use xlink:href="#a"/>
        </mask>
        <g fill-rule="nonzero" mask="url(#b)">
            <g transform="translate(4.414 5.404)">
                <ellipse cx="12.648" cy="10.715" rx="2.524" ry="2.463"/>
                <ellipse cx="2.524" cy="10.715" fill="#0053FB" rx="2.524" ry="2.463"/>
                <ellipse cx="7.586" cy="2.477" fill="#0053FB" rx="2.524" ry="2.463"/>
            </g>
            <path fill="#0053FB" d="M6.938 18.987C5.324 18.987 4 17.694 4 16.119s1.324-2.867 2.938-2.867 2.938 1.292 2.938 2.867-1.31 2.868-2.938 2.868zm0-4.94c-1.172 0-2.11.928-2.11 2.059 0 1.144.951 2.06 2.11 2.06 1.172 0 2.11-.93 2.11-2.06.014-1.131-.938-2.06-2.11-2.06zM17.062 18.987c-1.628 0-2.938-1.293-2.938-2.868s1.324-2.867 2.938-2.867S20 14.53 20 16.119c0 1.589-1.324 2.868-2.938 2.868zm0-4.94c-1.172 0-2.11.928-2.11 2.059 0 1.144.951 2.06 2.11 2.06 1.172 0 2.11-.93 2.11-2.06 0-1.131-.951-2.06-2.11-2.06zM12 10.762c-1.628 0-2.938-1.293-2.938-2.868s1.31-2.88 2.938-2.88c1.628 0 2.938 1.292 2.938 2.867s-1.31 2.88-2.938 2.88zm0-4.94c-1.172 0-2.11.928-2.11 2.059 0 1.144.951 2.06 2.11 2.06 1.159 0 2.11-.93 2.11-2.06 0-1.131-.938-2.06-2.11-2.06z"/>
            <path fill="#0053FB" d="M15.752 14.396a.418.418 0 0 1-.359-.202l-1.586-2.57a.39.39 0 0 1 .138-.553.412.412 0 0 1 .565.135l1.587 2.584a.39.39 0 0 1-.138.552.339.339 0 0 1-.207.054zM9.159 13.023a.445.445 0 0 1-.221-.054.405.405 0 0 1-.138-.552l1.628-2.57a.415.415 0 0 1 .565-.135.405.405 0 0 1 .138.551l-1.628 2.558a.427.427 0 0 1-.344.202z"/>
        </g>
    </g>
</svg>
