<svg xmlns="http://www.w3.org/2000/svg" width="48" height="48" viewBox="0 0 48 48">
    <path fill="#D8D8D8" fill-rule="nonzero" d="M27.058.794c-.52-.042-1.096.057-1.616.227-2.084.688-3.18 2.887-2.48 4.936l1.673 4.823-9.462 3.12-1.558-4.652c-.7-2.05-2.935-3.127-5.019-2.44-2.091.688-3.238 2.887-2.538 4.937l1.557 4.595-4.903 1.646A3.925 3.925 0 0 0 .23 22.979c.7 2.05 2.935 3.127 5.019 2.44l4.904-1.59 3.173 9.249-4.73 1.532c-2.085.688-3.181 2.886-2.482 4.936a3.984 3.984 0 0 0 5.02 2.497l4.673-1.532 1.673 4.822c.7 2.05 2.993 3.128 5.077 2.44 2.084-.688 3.18-2.886 2.48-4.936l-1.615-4.823 9.404-3.12 1.558 4.652c.7 2.05 2.935 3.128 5.019 2.44 2.091-.688 3.238-2.887 2.538-4.936l-1.557-4.596 4.903-1.645a3.925 3.925 0 0 0 2.481-4.993c-.7-2.05-2.935-3.128-5.019-2.44l-4.904 1.589-3.173-9.249 4.73-1.532c2.085-.688 3.181-2.886 2.482-4.936a3.99 3.99 0 0 0-5.02-2.496l-4.673 1.532L30.52 3.46A3.967 3.967 0 0 0 27.058.794zm.057 17.419l3.173 9.248-9.403 3.12-3.173-9.248 9.403-3.12z"/>
</svg>
