<svg xmlns="http://www.w3.org/2000/svg" xmlns:xlink="http://www.w3.org/1999/xlink" width="40" height="47" viewBox="0 0 40 47">
    <defs>
        <path id="a" d="M0 0h144v48H0z"/>
        <path id="c" d="M39.052 46.666V.515H0v46.151z"/>
    </defs>
    <g fill="none" fill-rule="evenodd" transform="translate(-52 -1)">
        <mask id="b" fill="#fff">
            <use xlink:href="#a"/>
        </mask>
        <g mask="url(#b)">
            <path fill="#326FF9" d="M74.19 40.386h7.986V38.61h-7.987zM60.875 40.386h7.988V38.61h-7.988zM71.526 14.646a3.55 3.55 0 0 1 3.55 3.551 3.55 3.55 0 1 1-3.55-3.55"/>
            <g transform="translate(52 .819)">
                <mask id="d" fill="#fff">
                    <use xlink:href="#c"/>
                </mask>
                <path fill="#231E9C" d="M37.276 35.129c0 .49-.397.888-.886.888H30.176V21.296l1.776 1.774v11.17h1.775v-9.394l2.77 2.768c.502.504.78 1.174.78 1.886v5.629zm-7.1 3.55a.888.888 0 0 1-.886.887h-7.1v-1.774h7.986v.888zm-3.55 3.55c0 .49-.396.888-.887.888h-3.55V41.34h4.438v.888zm-6.212 1.775a.889.889 0 0 1-1.776 0V31.578a.889.889 0 0 1 1.776 0v12.426zm-7.988-1.775v-.888h4.437v1.776h-3.55a.888.888 0 0 1-.887-.888zm-2.663-2.663a.89.89 0 0 1-.888-.886v-.888H16.863v1.774h-7.1zm-7.1-3.55a.89.89 0 0 1-.888-.887v-5.63c0-.711.277-1.38.781-1.885l2.77-2.768v9.395H7.1V23.07l1.775-1.775v14.72H2.663zM19.526 2.29c5.505 0 8.876 9.194 8.876 14.2v15.976h-3.55v1.775h3.55v1.776H22.19v-4.439a2.667 2.667 0 0 0-2.664-2.662 2.666 2.666 0 0 0-2.663 2.662v4.439H10.65V34.24h3.55v-1.775h-3.55V16.49c0-5.006 3.372-14.2 8.876-14.2zM37.75 26.36l-7.574-7.575V16.49c0-5.576-3.657-15.976-10.65-15.976-6.994 0-10.651 10.4-10.651 15.976v2.295L1.302 26.36A4.414 4.414 0 0 0 0 29.5v5.629a2.665 2.665 0 0 0 2.663 2.663H7.1v.888a2.666 2.666 0 0 0 2.663 2.66h.887v.889a2.667 2.667 0 0 0 2.662 2.663h3.714a2.659 2.659 0 0 0 2.5 1.774 2.658 2.658 0 0 0 2.5-1.774h3.713a2.666 2.666 0 0 0 2.663-2.663v-.888h.888a2.667 2.667 0 0 0 2.662-2.661v-.888h4.438a2.666 2.666 0 0 0 2.662-2.663v-5.63a4.41 4.41 0 0 0-1.302-3.14z" mask="url(#d)"/>
            </g>
            <path fill="#231E9C" d="M71.526 15.534a2.666 2.666 0 0 1 2.663 2.662 2.666 2.666 0 0 1-2.663 2.663 2.665 2.665 0 0 1-2.662-2.663 2.665 2.665 0 0 1 2.662-2.662m0 7.101a4.443 4.443 0 0 0 4.438-4.439 4.442 4.442 0 0 0-4.438-4.437 4.442 4.442 0 0 0-4.437 4.437 4.443 4.443 0 0 0 4.437 4.44"/>
        </g>
    </g>
</svg>
