<svg xmlns="http://www.w3.org/2000/svg" width="48" height="48" viewBox="0 0 48 48">
    <path fill="#D8D8D8" fill-rule="nonzero" d="M47.621.21a.946.946 0 0 0-1.035-.086L.506 25.084a.944.944 0 0 0-.491.922.946.946 0 0 0 .649.818l13.099 4.275-1.268 12.967a.943.943 0 0 0 .566.964c.12.056.252.083.379.083a.947.947 0 0 0 .713-.323l8.26-9.334 12.44 12.263c.18.176.42.274.667.274.086 0 .173-.015.259-.038a.947.947 0 0 0 .664-.682l11.52-46.08A.949.949 0 0 0 47.62.21zM15.69 30.923l18.731-15.147L21.656 33.45l-6.986 7.886 1.02-10.413z"/>
</svg>
