<svg xmlns="http://www.w3.org/2000/svg" width="48" height="38" viewBox="0 0 48 38">
    <path fill="#D8D8D8" fill-rule="nonzero" d="M47.733 4.658a19.777 19.777 0 0 1-5.567 1.499c1.997-1.18 3.54-3.04 4.262-5.26a19.652 19.652 0 0 1-6.159 2.305A9.767 9.767 0 0 0 33.195.205c-5.351 0-9.693 4.255-9.693 9.5 0 .742.087 1.47.253 2.163A27.71 27.71 0 0 1 3.779 1.937a9.32 9.32 0 0 0-1.313 4.785c0 3.294 1.71 6.2 4.313 7.903a9.758 9.758 0 0 1-4.392-1.188v.12c0 4.602 3.339 8.44 7.774 9.317a9.79 9.79 0 0 1-2.553.332 9.673 9.673 0 0 1-1.824-.17c1.233 3.768 4.81 6.524 9.05 6.595-3.31 2.552-7.493 4.064-12.036 4.064-.786 0-1.55-.042-2.308-.127a27.834 27.834 0 0 0 14.856 4.262c17.827 0 27.577-14.476 27.577-27.022 0-.417-.007-.827-.029-1.237a19.18 19.18 0 0 0 4.84-4.913"/>
</svg>
