<svg xmlns="http://www.w3.org/2000/svg" xmlns:xlink="http://www.w3.org/1999/xlink" width="12" height="16" viewBox="0 0 12 16">
    <defs>
        <circle id="a" cx="12" cy="12" r="12"/>
    </defs>
    <g fill="none" fill-rule="evenodd" transform="translate(-6 -4)">
        <mask id="b" fill="#fff">
            <use xlink:href="#a"/>
        </mask>
        <g fill-rule="nonzero" mask="url(#b)">
            <path fill="#0053FB" d="M16.182 5.455h-3.637a.73.73 0 0 1-.727.727.73.73 0 0 1-.727-.727H7.455c-.8 0-1.455.654-1.455 1.454v11.636c0 .8.655 1.455 1.455 1.455h8.727c.8 0 1.454-.655 1.454-1.455V6.91c0-.8-.654-1.454-1.454-1.454z"/>
            <path fill="#FFF" d="M16.182 18.91H7.455c-.219 0-.364-.146-.364-.365V6.91c0-.218.145-.364.364-.364h8.727c.218 0 .363.146.363.364v11.636c0 .219-.145.364-.363.364z"/>
            <path fill="#0053FB" d="M12.545 5.455a.73.73 0 0 1-.727.727.73.73 0 0 1-.727-.727H8.545v1.454c0 .4.328.727.728.727h5.09a.73.73 0 0 0 .728-.727V5.455h-2.546z"/>
            <path fill="#0053FB" d="M11.818 4c-.8 0-1.454.655-1.454 1.455s.654 1.454 1.454 1.454c.8 0 1.455-.654 1.455-1.454 0-.8-.655-1.455-1.455-1.455zm0 2.182a.73.73 0 0 1-.727-.727c0-.4.327-.728.727-.728.4 0 .727.328.727.728a.73.73 0 0 1-.727.727zM14.727 13.09c0 1.6-1.309 2.91-2.909 2.91-1.6 0-2.909-1.31-2.909-2.91s1.31-2.908 2.91-2.908 2.908 1.309 2.908 2.909"/>
            <path fill="#FFF" d="M11.497 14.557l-1.39-1.39.514-.515.882.882 1.697-1.658.509.52z"/>
        </g>
    </g>
</svg>
