<?xml version="1.0" encoding="UTF-8"?>
<svg width="40px" height="22px" viewBox="0 0 40 22" version="1.1" xmlns="http://www.w3.org/2000/svg" xmlns:xlink="http://www.w3.org/1999/xlink">
    <!-- Generator: sketchtool 47 (45396) - http://www.bohemiancoding.com/sketch -->
    <title>B9B44CA0-3505-45B2-99DA-1A9D42B64CEA</title>
    <desc>Created with sketchtool.</desc>
    <defs></defs>
    <g id="Page-1" stroke="none" stroke-width="1" fill="none" fill-rule="evenodd">
        <g id="Page-22" transform="translate(-511.000000, -170.000000)">
            <g id="Group-41" transform="translate(511.000000, 170.000000)">
                <path d="M28.1532719,1.98240936 L27.1374346,3.00719498 C25.4872694,4.67213588 23.8306411,6.33093805 22.1770542,7.99261776 C22.1282012,8.04172766 22.112804,8.07951927 22.112804,8.14915558 C22.112804,8.21879189 22.1282012,8.25619983 22.1770542,8.30550157 L24.4980446,10.6364956 C24.5828244,10.7212869 24.7221599,10.7207114 24.8067496,10.6361119 C26.797555,8.63507508 28.7917819,6.63691579 30.7789755,4.63185041 C31.1194255,4.28846474 31.673916,4.28846474 32.0139857,4.63185041 L35.9562479,8.61071196 C36.2965077,8.95409763 36.2965077,9.51406566 35.9562479,9.85706766 L34.7697104,11.0545053 C34.6853108,11.1396803 34.6853108,11.2810631 34.7697104,11.3664299 L37.0859486,13.7035627 C37.1707285,13.7887377 37.3104441,13.7887377 37.3948438,13.7035627 L38.5813812,12.506125 C40.364609,10.7065156 40.364609,7.76088039 38.5813812,5.96107908 L34.638929,1.98240936 C32.8560814,0.183375393 29.9361195,0.183375393 28.1532719,1.98240936" id="Fill-9" fill="#23CF5F"></path>
                <path d="M20.5754567,16.1468764 L24.5422404,20.1307257 C26.3285096,21.9245801 29.2440994,21.9312943 31.0277074,20.1305338 L34.3204343,16.8062152 C34.4046439,16.7210403 34.4046439,16.5794656 34.3204343,16.4942906 L32.0041961,14.156966 C31.9196064,14.0719829 31.7793205,14.0719829 31.6949208,14.1573497 L28.4008632,17.4801336 C28.0609835,17.8229438 27.5070633,17.8231356 27.1669935,17.4812846 L22.208704,12.4950945 C21.2466621,11.5274759 20.5623405,11.1077397 19.9595674,11.0803072 C19.3567942,11.1077397 18.6724727,11.5274759 17.7104307,12.4950945 L12.7521412,17.4812846 C12.4118813,17.8231356 11.8581512,17.8229438 11.5182715,17.4801336 L8.22421388,14.1573497 C8.13981423,14.0719829 7.99952832,14.0719829 7.91493858,14.156966 L5.59870037,16.4942906 C5.51430072,16.5794656 5.51430072,16.7210403 5.59870037,16.8062152 L8.89142735,20.1305338 C10.6750353,21.9312943 13.5908152,21.9245801 15.3768943,20.1307257 L19.343678,16.1468764 C19.5132377,15.9761427 19.7364025,15.8907759 19.9595674,15.8907759 C20.1827322,15.8907759 20.405897,15.9761427 20.5754567,16.1468764 Z" id="Fill-11" fill="#2B3E51"></path>
                <path d="M11.7658628,1.98240936 C9.9830152,0.183375393 7.06305335,0.183375393 5.28020573,1.98240936 L1.3377535,5.96107908 C-0.445664381,7.76107222 -0.445664381,10.7063237 1.3377535,12.506125 L2.52410087,13.7035627 C2.60850052,13.7887377 2.74878643,13.7887377 2.83318608,13.7035627 L5.14942429,11.3664299 C5.23382394,11.2812549 5.23344376,11.1396803 5.14942429,11.0545053 L3.96288683,9.85706766 C3.62281706,9.51406566 3.62281706,8.95409763 3.96288683,8.61071196 L7.90514898,4.63185041 C8.24502866,4.28846474 8.79989935,4.28846474 9.14015921,4.63185041 C11.1271627,6.63691579 13.1215797,8.63507508 15.1125752,10.6361119 C15.1967847,10.7207114 15.3365004,10.7212869 15.4210901,10.6364956 L17.7420805,8.30550157 C17.7909335,8.25619983 17.8063307,8.21879189 17.8063307,8.14915558 C17.8063307,8.07951927 17.7909335,8.04172766 17.7420805,7.99261776 C16.0884937,6.33093805 14.4318653,4.67213588 12.78151,3.00719498 L11.7658628,1.98240936 Z" id="Fill-13" fill="#23CF5F"></path>
            </g>
        </g>
    </g>
</svg>