<svg xmlns="http://www.w3.org/2000/svg" width="88" height="64" viewBox="0 0 88 64">
    <g fill="none" fill-rule="nonzero">
        <path fill="#231E9C" d="M31.871 64c-2.137 0-4.276-.8-5.917-2.407L1.491 37.666A4.9 4.9 0 0 1 0 34.136c0-1.336.529-2.59 1.493-3.532l4.735-4.632c1.957-1.915 5.142-1.915 7.098.002L30.552 42.82c.663.648 1.776.64 2.428-.02L73.849 1.494c1.926-1.947 5.11-1.998 7.099-.115l4.814 4.556a4.913 4.913 0 0 1 1.55 3.508 4.9 4.9 0 0 1-1.434 3.552l-47.99 48.502A8.431 8.431 0 0 1 31.87 64zM9.775 27.897c-.436 0-.873.164-1.204.489l-4.734 4.631a1.552 1.552 0 0 0-.479 1.119c0 .42.171.816.479 1.118l24.461 23.93c1.998 1.958 5.232 1.933 7.205-.058l47.989-48.502a1.549 1.549 0 0 0-.039-2.238L78.639 3.83a1.732 1.732 0 0 0-2.41.037L35.363 45.176c-1.958 1.975-5.17 2.002-7.158.057L10.981 28.384a1.713 1.713 0 0 0-1.206-.487z"/>
        <path fill="#326FF9" d="M31.863 56.605a3.349 3.349 0 0 1-2.297-.917L7.25 34.7l2.295-2.457 22.318 20.986L77.727 7.225l2.375 2.382L34.237 55.61a3.34 3.34 0 0 1-2.374.994z"/>
    </g>
</svg>
