<svg xmlns="http://www.w3.org/2000/svg" width="72" height="64" viewBox="0 0 72 64">
    <g fill="none" fill-rule="nonzero">
        <g transform="translate(1.862 1.846)">
            <ellipse cx="56.917" cy="48.985" fill="#EDECF2" rx="11.359" ry="11.262"/>
            <ellipse cx="11.359" cy="48.985" fill="#326FF9" rx="11.359" ry="11.262"/>
            <ellipse cx="34.138" cy="11.323" fill="#326FF9" rx="11.359" ry="11.262"/>
        </g>
        <path fill="#231E9C" d="M13.22 63.938C5.96 63.938 0 58.031 0 50.831c0-7.2 5.959-13.108 13.22-13.108 7.263 0 13.221 5.908 13.221 13.108s-5.896 13.107-13.22 13.107zm0-22.584c-5.275 0-9.496 4.246-9.496 9.415 0 5.231 4.283 9.416 9.497 9.416 5.276 0 9.496-4.247 9.496-9.416.062-5.169-4.22-9.415-9.496-9.415zM58.78 63.938c-7.325 0-13.221-5.907-13.221-13.107 0-7.2 5.958-13.108 13.22-13.108C66.041 37.723 72 43.57 72 50.831c0 7.261-5.959 13.107-13.22 13.107zm0-22.584c-5.277 0-9.497 4.246-9.497 9.415 0 5.231 4.283 9.416 9.496 9.416 5.276 0 9.497-4.247 9.497-9.416 0-5.169-4.283-9.415-9.497-9.415zM36 26.338c-7.324 0-13.22-5.907-13.22-13.107C22.78 6.03 28.675.06 36 .06c7.324 0 13.22 5.908 13.22 13.108S43.325 26.34 36 26.34zm0-22.584c-5.276 0-9.497 4.246-9.497 9.415 0 5.231 4.283 9.416 9.497 9.416 5.214 0 9.497-4.247 9.497-9.416C45.497 8 41.276 3.754 36 3.754z"/>
        <path fill="#231E9C" d="M52.883 42.954c-.62 0-1.242-.308-1.614-.923l-7.138-11.754c-.559-.862-.248-2.03.62-2.523.87-.554 2.049-.246 2.546.615l7.137 11.816c.56.861.249 2.03-.62 2.523-.248.184-.559.246-.931.246zM23.214 36.677c-.31 0-.683-.062-.993-.246a1.87 1.87 0 0 1-.621-2.523l7.324-11.754c.559-.862 1.676-1.17 2.545-.616a1.87 1.87 0 0 1 .62 2.524l-7.323 11.692c-.373.554-.932.923-1.552.923z"/>
    </g>
</svg>
